<svg width="203" height="289" viewBox="0 0 203 289" fill="none" xmlns="http://www.w3.org/2000/svg">
<path fill-rule="evenodd" clip-rule="evenodd" d="M46.7521 157.548C48.9286 156.772 51.0265 155.877 52.9378 154.559C58.4476 150.46 62.0402 144.292 65.4349 138.448C70.2165 129.948 73.6229 120.891 75.9777 111.442C76.9895 107.383 77.3331 102.676 79.6319 99.0771C84.8432 91.5412 100.124 92.5176 108.239 93.8404C113.672 94.8013 114.796 100.879 116.03 105.376C117.057 109.112 117.73 112.891 118.295 116.721C119.638 117.603 121.155 118.32 122.6 118.945C138.355 123.773 141.124 132.724 147.142 146.55C157.305 166.647 184.884 174.515 189.05 198.299C191.734 214.001 184.102 228.773 176.232 241.827C168.904 256.085 158.672 262.928 142.379 259.56C127.096 256.133 112.409 250.402 97.3951 245.973C90.1234 244.186 82.8632 239.539 75.214 241.159C59.4527 244.697 43.2587 246.36 27.1062 245.901C4.42752 246.817 4.43103 225.064 6.7587 208.218C8.3891 182.001 21.6202 165.167 46.7521 157.548Z" fill="#AE5D29"/>
<path fill-rule="evenodd" clip-rule="evenodd" d="M45.2359 195.483C43.3409 196.736 41.747 198.634 40.4675 200.633C45.8091 200.078 51.1414 199.437 56.4619 198.708C55.7654 198.264 55.0624 197.828 54.3433 197.418C51.7199 195.94 48.1654 193.547 45.2359 195.483ZM133.983 211.263C134.962 210.88 135.34 209.389 135.722 208.534C136.918 205.853 138.009 203.127 139.145 200.419C134.833 199.191 130.64 197.828 126.173 197.173C121.37 196.47 116.496 196.3 111.649 196.458C101.83 196.778 92.1031 198.382 82.45 200.101C72.8083 201.819 63.167 203.469 53.4578 204.764C43.9454 206.033 34.4029 206.961 24.8426 207.776C22.9851 207.935 19.888 208.602 18.3942 207.142C17.2114 205.985 17.1731 203.851 18.6531 202.91C19.5749 202.324 20.9106 202.315 21.9638 202.18C23.2901 202.009 24.6218 201.896 25.9562 201.807C26.4998 201.772 27.0434 201.739 27.5873 201.705C23.222 200.061 18.6626 199.164 13.9301 199.414C13.6624 201.038 12.4566 202.71 11.7967 204.05C10.6442 206.39 9.74594 208.758 9.15619 211.302C7.92355 216.619 7.86993 222.138 8.21806 227.561C8.53787 232.083 9.22487 237.085 12.7739 240.287C15.461 242.712 19.2521 243.61 22.7693 243.892C26.8572 244.22 31.0082 243.87 35.0618 243.322C40.7473 242.554 46.4593 241.538 52.0329 240.176C62.8281 237.539 73.1754 233.343 82.722 227.654C87.3775 224.88 91.8198 221.759 96.5393 219.09C101.348 216.37 106.465 214.26 111.838 212.95C117.852 211.484 124.137 210.858 130.318 211.22C131.39 211.283 132.94 211.671 133.983 211.263ZM140.951 208.541C140.319 210.59 139.836 212.93 138.487 214.652C137.151 216.358 135.136 216.961 133.048 217.112C130.53 217.295 127.984 217.178 125.461 217.272C120.286 217.464 115.183 218.304 110.236 219.844C105.626 221.28 101.347 223.52 97.2253 226.005C93.4136 228.303 89.7137 230.77 85.9008 233.061C86.9156 233.526 87.9189 234.029 88.9277 234.467C91.0436 235.385 93.1725 236.271 95.311 237.135C99.5279 238.839 103.763 240.501 108.041 242.045C116.667 245.158 125.436 247.878 134.309 250.195C138.542 251.3 142.834 252.591 147.231 252.775C151.13 252.938 154.741 251.836 157.886 249.519C164.408 244.714 169.597 237.778 173.791 230.936C176.284 226.872 178.458 222.601 180.257 218.185C181.167 215.952 181.992 213.684 182.735 211.39C183.083 210.313 183.413 209.23 183.726 208.142C183.864 207.664 183.996 207.184 184.126 206.703C177.457 204.669 170.709 202.833 163.802 201.814C160.114 201.27 156.377 200.994 152.649 201.034C150.799 201.054 148.95 201.154 147.109 201.345C146.118 201.447 145.131 201.58 144.149 201.744C143.743 201.811 143.326 201.911 142.907 201.984C142.268 204.174 141.623 206.361 140.951 208.541ZM3.09003 199.836C2.73061 199.109 2.57898 198.394 2.45015 197.603C2.3519 197 2.09123 196.15 2.31956 195.367C2.57523 194.489 3.27174 193.704 3.77176 192.956C4.32391 192.129 4.87556 191.301 5.42647 190.473C6.52852 188.817 7.62807 187.16 8.72586 185.501C13.209 178.727 17.6616 171.934 22.1212 165.146C26.0787 159.121 29.9696 153.042 34.0477 147.099C37.5349 142.016 41.3357 137.018 46.1089 133.065C52.144 128.067 59.3302 125.713 66.8366 123.876C67.6564 123.026 68.7514 122.561 69.9219 122.655C71.5756 120.781 72.89 119.472 73.4857 117.088C73.7712 115.946 73.6817 112.738 74.7943 112.063C76.1159 111.26 76.8061 112.322 77.1706 113.52C78.3899 117.525 76.9904 122.91 73.7697 126.922C75.1266 131.609 76.9257 138.27 80.1351 142.025C83.5719 146.045 88.3247 147.297 93.4527 147.379C103.232 147.536 113.001 143.904 120.46 137.609C122.728 135.696 124.833 133.559 126.738 131.286C128.167 129.581 129.858 126.949 130.975 124.961C130.975 124.186 131.891 123.375 122.569 122.749C113.247 122.123 112.54 109.366 112.333 107.63C112.164 106.22 111.448 104.032 112.442 102.882C112.864 102.394 113.73 102.315 114.264 102.647C115.273 103.273 115.604 104.874 115.921 105.96C116.365 107.483 117.817 116.933 120.569 118.028C121.857 118.54 123.334 118.549 124.696 118.644C126.379 118.761 128.065 118.847 129.741 119.043C130.359 119.115 131.033 119.315 131.643 119.321C132.04 119.325 132.449 119.132 132.832 118.997C134.127 118.54 135.42 118.882 136.753 119.062C148.542 120.645 160.681 124.259 170.736 130.761C179.599 136.492 185.844 144.735 189.964 154.372C194.168 164.206 196.577 174.841 198.597 185.311C199.273 188.819 199.864 192.343 200.372 195.879C200.862 199.296 201.476 202.789 201.622 206.241C201.681 207.606 201.354 208.875 200.852 210.122C200.286 211.526 198.948 212.08 197.665 212.736C194.848 214.175 191.877 215.292 188.816 216.083C186.946 219.483 185.373 223.015 184.108 226.682C184.577 227.611 184.587 228.998 184.677 229.901C184.901 232.15 184.997 234.41 185.017 236.669C185.057 241.197 184.785 245.72 184.571 250.241C184.355 254.825 183.635 272.916 183.517 275.125C183.426 276.841 183.549 279.241 182.644 280.765C181.254 283.106 177.824 283.028 176.235 281.129C136.753 289.611 62.5395 287.056 32.6499 282.789C28.761 282.233 29.9821 282.849 28.9931 281.867C28.251 281.13 27.6194 279.867 27.4141 278.852C27.1399 277.498 27.5825 276.272 28.3585 275.176C29.1743 274.023 29.323 272.157 29.626 270.787C30.3426 267.548 30.6987 253.323 31.0336 251.746C31.1378 251.255 31.2388 250.736 31.3606 250.216C25.878 250.736 20.1652 250.736 14.9492 248.903C11.9914 247.864 9.23289 246.231 7.1095 243.9C4.53847 241.078 3.10808 237.525 2.37245 233.817C1.42329 229.035 1.22179 224.081 1.40825 219.22C1.66742 213.475 2.62083 207.649 4.98735 202.374C4.20862 201.651 3.55595 200.779 3.09003 199.836Z" fill="black"/>
<path fill-rule="evenodd" clip-rule="evenodd" d="M95.2261 6.8241C81.0247 6.8241 66.3359 17.8486 61.1303 24.8837C55.111 33.0183 50.3627 72.0687 52.5902 85.3194C54.8177 98.5701 65.8823 113.013 85.0903 113.013C104.298 113.013 115.988 110.643 116.456 107.201C116.769 104.907 120.992 97.3739 129.125 84.6024C137.444 82.259 141.62 78.2887 141.652 72.6913C141.685 67.0939 139.456 63.277 134.965 61.2405C136.566 39.1508 135.351 25.2304 131.319 19.4793C125.271 10.8527 109.427 6.8241 95.2261 6.8241Z" fill="#AE5D29"/>
<path fill-rule="evenodd" clip-rule="evenodd" d="M102.457 3.50288L102.203 3.50399C86.4904 3.60567 70.5096 10.847 61.1614 23.4968L60.8802 23.8817C60.8649 23.9018 60.5853 24.3188 60.5191 24.4376C60.1316 25.1341 59.6752 25.7856 59.325 26.4939C59.0295 27.0951 58.8329 27.7666 58.6156 28.4069L58.5497 28.598C57.9917 30.1961 57.5218 31.8093 57.1063 33.45C56.3012 36.6437 55.6735 39.8876 55.0629 43.1239C52.8819 54.7126 51.4557 66.4668 50.7372 78.2364L50.5953 80.6029C50.4504 83.0574 50.3407 85.5225 50.616 87.969C50.9339 90.817 51.7515 93.4898 52.9895 96.0698C54.1303 98.4494 55.6009 100.654 57.2839 102.68C58.1843 103.765 59.1397 104.819 60.3152 105.613C61.2509 106.245 62.3438 106.66 63.3968 107.061C65.1098 108.775 67.3082 110.07 69.4567 111.104C72.9982 112.805 76.8374 113.744 80.7216 114.215C84.6933 114.693 88.705 114.578 92.6442 113.895C96.4083 113.243 100.443 111.578 102.761 108.404C102.961 108.131 102.589 107.873 102.344 107.986C95.6155 111.104 88.055 111.918 80.7216 110.934C77.3003 110.475 73.9339 109.529 70.8098 108.058C68.1736 106.818 65.9504 105.015 63.5844 103.382C63.1239 102.768 62.659 102.164 62.1285 101.603L61.3009 100.734C60.6824 100.081 60.075 99.4194 59.5226 98.7049C57.8166 96.5031 56.4038 94.0058 55.4706 91.3781C53.6559 86.2633 54.1467 80.7111 54.4674 75.3807L54.4952 74.911C54.8253 69.2098 55.3633 63.5287 56.1084 57.8677C56.854 52.1991 57.8019 46.5531 58.9221 40.9471C59.4749 38.1842 60.0954 35.4389 60.6429 32.676C60.9257 31.2507 61.1231 29.8054 61.3382 28.3651C61.4685 27.4883 61.466 26.6442 61.4685 25.7875C61.4932 25.8276 61.5235 25.8652 61.5535 25.9027C61.4632 26.1157 61.5257 26.3887 61.7458 26.5139C62.5787 26.9899 63.5391 26.8296 64.477 26.8321C65.4727 26.8371 66.4681 26.8396 67.4636 26.8421C68.5003 26.8458 69.537 26.8458 70.5737 26.8443L73.6838 26.8371L86.1241 26.7995C94.2713 26.775 102.557 27.0995 110.677 26.3303L111.298 26.269C111.936 26.1954 119.137 25.3133 121.085 25.0855L121.144 25.0786C124.703 24.6678 128.212 24.0591 131.671 23.1474C130.541 23.6007 129.453 24.2119 128.332 24.6753C126.887 25.2715 125.404 25.7925 123.92 26.291C120.876 27.3155 117.828 28.3099 114.797 29.367C113.927 29.6695 111.953 37.1261 111.455 38.3057L111.44 38.3395C111.187 38.9081 110.84 39.5319 111.032 40.1781C111.457 41.6059 113.711 42.663 114.829 43.4696L115.978 44.3002L117.481 45.3893C118.098 45.8316 118.667 46.17 119.474 45.9168C119.476 45.9143 119.478 45.9143 119.481 45.9143C118.791 49.1231 118.455 59.5009 118.353 61.3219C118.263 62.9075 117.798 64.939 118.538 66.3843C118.713 66.7275 119.168 66.998 119.556 66.9705C121.247 66.8427 122.937 66.7175 124.628 66.5922C125.081 66.5572 125.494 66.2991 125.619 65.8382L125.624 65.8132C125.679 65.8282 125.741 65.8182 125.794 65.7631C125.886 65.6704 125.981 65.5802 126.079 65.4926C128.305 63.5037 131.786 63.0127 134.533 64.0473C135.973 64.5883 137.611 65.5001 138.627 66.6824C139.755 67.995 139.997 69.8285 140 71.5043C140.005 74.7356 138.839 78.007 136.461 80.2489C134.276 82.3068 131.456 82.9057 128.619 83.4947L128.315 83.5579C127.667 83.6931 127.462 84.66 127.95 85.0658C126.651 86.3383 125.531 87.8563 124.438 89.2565C122.987 91.1141 121.599 93.0453 120.249 94.9808L119.597 95.9171C117.274 99.2371 113.912 103.81 115.374 107.961C115.569 108.519 116.384 108.72 116.702 108.133C117.745 106.205 118.328 104.08 119.319 102.129C120.291 100.215 121.502 98.4419 122.702 96.6685L123.395 95.6407C124.548 93.9243 125.69 92.1893 126.749 90.4213L127.486 89.1971C128.179 88.0411 128.865 86.8465 129.375 85.6044C132.789 86.4285 136.501 84.5949 138.899 82.1526C141.916 79.0766 143.334 74.5453 142.944 70.2844C142.738 68.0551 142.081 65.8984 140.45 64.2952C140.285 64.1349 140.112 63.9821 139.935 63.8293C139.997 63.7968 140.05 63.7467 140.075 63.6865C141.168 61.0865 141.401 57.9879 141.493 55.1874C141.59 52.2918 141.528 49.3886 141.308 46.498C140.905 41.1976 139.95 35.9248 138.434 30.8299C136.191 23.3002 132.336 15.9283 126.179 10.8759C119.612 5.48719 110.815 3.48891 102.457 3.50288ZM135.143 69.3626C134.215 68.9412 132.769 69.6919 131.943 70.1703L131.889 70.2018C129.45 71.622 127.714 74.0418 126.912 76.722C126.397 78.4504 129.29 79.1392 129.535 77.4459C129.735 76.0657 130.196 74.7732 130.953 73.6184C131.134 73.6786 131.309 73.7562 131.466 73.8564C132.069 74.2472 132.419 74.9185 133.257 74.8183C133.877 74.7456 134.513 74.3148 134.47 73.6034C134.402 72.4286 133.457 71.9602 132.444 71.9001C132.589 71.7705 132.734 71.6422 132.884 71.5186L133.047 71.387C133.233 71.2529 135.215 69.8838 135.272 70.2359L135.273 70.2569C135.27 70.3971 135.458 70.4773 135.553 70.3721C135.936 69.9613 135.58 69.563 135.143 69.3626Z" fill="black"/>
<path fill-rule="evenodd" clip-rule="evenodd" d="M79.1712 94.9129C80.856 94.2259 82.3594 93.0801 83.4584 91.6164C83.8405 91.1075 83.9396 90.5702 83.8594 90.0787C83.7693 89.5261 83.4422 89.0252 82.996 88.6892C82.5485 88.3522 81.9887 88.186 81.4475 88.2708C80.9773 88.3444 80.5091 88.6017 80.1386 89.1354L80.0612 89.2421C79.4078 90.1256 78.5564 90.8505 77.5862 91.3177C76.6511 91.768 75.6053 91.9782 74.523 91.856C72.4618 91.6233 71.0412 90.5092 69.5311 88.9964C69.344 88.8053 69.1567 88.6084 68.9685 88.4082C68.8496 88.2267 68.6847 88.1101 68.5015 88.0489C68.2982 87.981 68.0682 87.9849 67.8575 88.0583C67.6543 88.1292 67.4727 88.2635 67.3509 88.4422C67.2351 88.6121 67.1695 88.822 67.1908 89.0633C67.329 90.6312 68.1492 92.0304 69.3142 93.1291C70.6081 94.3494 72.3233 95.1935 73.938 95.4896C75.717 95.8158 77.5298 95.5821 79.1712 94.9129ZM73.0988 70.7258C71.2062 71.8755 68.3223 74.5565 70.3584 77.4069C72.755 79.9202 76.2057 77.0386 77.9061 75.7353C79.4828 74.7253 81.2543 77.323 79.7914 78.5024C67.5042 87.594 62.5178 71.0264 72.1415 69.3739C73.2011 69.1918 73.5947 70.3701 73.0988 70.7258ZM95.1175 60.1499C94.9084 57.5558 90.9552 56.9667 90.562 59.5337C90.2098 61.8332 90.6244 63.9456 91.6608 66.0159C92.651 67.9938 95.14 67.071 95.3282 65.27C95.5805 62.8558 95.2476 61.7636 95.1175 60.1499ZM65.0251 59.0015C64.474 58.2801 63.6782 57.7876 62.7248 58.0659C59.7459 58.9358 60.6239 63.1623 61.6701 65.2196C62.2385 66.3368 64.076 66.6201 64.9063 65.6364C66.2598 64.0323 66.9079 60.8288 65.1873 59.2487C65.1407 59.167 65.0888 59.0846 65.0251 59.0015ZM91.7027 48.7988L91.2322 48.7165C89.7765 48.4649 87.9666 48.2231 86.9368 49.3927C86.3907 50.0129 86.2027 51.1657 86.9368 51.7593C88.2281 52.8039 89.6558 52.3991 91.2032 52.4875C92.4784 52.5606 93.704 52.7715 94.9324 53.1225C97.6273 53.8922 99.8231 55.2975 102.125 56.8405C102.427 57.0429 102.735 56.6569 102.591 56.3746C101.262 53.7738 98.6875 51.6373 96.1084 50.335C94.7319 49.6399 93.2256 49.0633 91.7027 48.7988ZM67.7406 47.6337L67.3804 47.7074C63.4611 48.5261 58.3691 50.1617 56.5131 54.009C56.4424 54.5531 56.5171 54.6697 56.5779 54.7459L56.5981 54.7712C56.6482 54.8363 56.6881 54.9259 56.9241 55C56.9896 54.9844 57.0557 54.9679 57.1225 54.9504C57.9733 54.7276 58.6464 54.4206 59.298 54.1021L60.0045 53.7542C60.8242 53.3525 61.6512 52.9654 62.5276 52.6797C64.3979 52.07 66.3216 51.6405 68.2752 51.4112C68.6986 51.3615 69.1063 51.2187 69.428 50.974C69.7333 50.7416 69.9666 50.4199 70.0729 49.9924C70.2107 49.439 70.1711 49.0201 69.8741 48.5209C69.6507 48.146 69.3311 47.8862 68.9641 47.7369C68.5899 47.5848 68.164 47.549 67.7406 47.6337Z" fill="black"/>
</svg>
