<svg width="203" height="289" viewBox="0 0 203 289" fill="none" xmlns="http://www.w3.org/2000/svg">
<g clip-path="url(#clip0_1_131)">
<path d="M34.4067 182.433H91.8026V253.071H34.4067V182.433Z" fill="#FDEA6B"/>
<path fill-rule="evenodd" clip-rule="evenodd" d="M108.543 113.342C102.356 108.633 86.8237 106.516 80.2204 111.05C73.6983 115.602 72.9873 122.965 69.9481 129.737C67.0805 128.386 62.3451 130.321 61.5137 132.981C60.4826 134.235 60.4363 137.758 59.7253 139.444C28.7861 144.366 24.089 168.473 20.365 195.841C15.4385 223.613 4.25479 251.323 9.10988 279.901C8.47728 280.816 7.97852 281.705 7.51733 282.761C6.41228 284.64 7.83563 287.3 10.0646 287.197C12.9496 286.944 15.8062 286.598 18.7048 286.49C26.7401 286.211 34.7828 286.244 42.8212 286.347L43.9174 286.361C84.4286 286.865 124.938 287.858 165.451 288.121C166.92 288.124 167.64 286.806 167.444 285.507C167.048 282.89 166.682 280.273 166.299 277.655C175.881 280.185 186.068 280.821 195.624 277.921C196.292 277.241 194.066 277.609 193.713 277.506C202.507 271.501 199.881 258.849 199.102 249.737C194.258 218.513 192.55 183.966 173.835 157.322C165.739 146.449 153.869 137.84 140.23 135.903L139.851 135.851C135.863 135.32 131.418 135.149 127.931 132.981C124.01 129.852 122.338 124.07 118.213 124.016C116.85 123.998 114.997 125.721 113.002 126.89C112.854 124.317 111.466 122.146 111.16 120.152L111.135 119.981C110.816 117.655 111.253 115.563 108.543 113.342ZM42.0523 196.666C50.7471 190.629 73.2074 193.662 73.7216 194.001C74.8537 194.745 75.3412 194.811 75.9536 195.777C76.5581 195.857 77.1621 195.94 77.7657 196.026C78.9765 196.421 78.0792 197.91 76.6806 197.379C77.5219 201.004 75.0463 203.583 74.0608 207.167C73.7408 208.331 74.0492 210.424 74.0608 211.613C73.9652 213.129 72.2879 214.92 72.5674 216.441C73.5613 221.849 78.9545 227.124 76.6806 232.369C75.1743 235.331 70.6438 236.841 67.6317 237.848C61.3911 240.242 50.5173 237.758 46.8914 232.369C44.9573 229.494 42.7167 222.243 41.5635 219.994L41.3079 216.426C40.6776 207.557 40.1169 198.01 42.0523 196.666Z" fill="#EDB98A"/>
<path fill-rule="evenodd" clip-rule="evenodd" d="M118.534 124.032L116.046 125.558L101.595 132.698C98.7931 133.482 97.3923 134.421 97.3923 135.516V146.668C97.3923 148.16 94.7633 151.542 89.5051 156.814L84.6474 151.974L84.756 151.341C85.2182 148.61 85.4494 146.784 85.4494 145.861C85.4494 144.869 80.6968 141.103 71.1918 134.563L67.0335 130.65L67.4769 129.303C64.9129 129.424 62.1324 131.002 61.5137 132.981C60.4826 134.235 60.4363 137.758 59.7253 139.444C28.7861 144.366 24.089 168.473 20.365 195.841C15.4385 223.613 4.25479 251.323 9.10988 279.901C8.47728 280.816 7.97852 281.705 7.51733 282.761C6.41228 284.64 7.83563 287.3 10.0646 287.197C12.9496 286.944 15.8062 286.598 18.7048 286.49C26.7401 286.211 34.7828 286.244 42.8212 286.347L43.9174 286.361C84.4286 286.865 124.938 287.858 165.451 288.121C166.92 288.124 167.64 286.806 167.444 285.507C167.048 282.89 166.682 280.273 166.299 277.655C175.881 280.185 186.068 280.821 195.624 277.921C196.292 277.241 194.066 277.61 193.713 277.506C202.507 271.501 199.881 258.849 199.102 249.737C194.258 218.513 192.55 183.966 173.835 157.322C165.739 146.449 153.869 137.84 140.23 135.903L139.851 135.851L139.47 135.802C135.582 135.307 131.308 135.08 127.931 132.981C124.113 129.934 122.428 124.373 118.534 124.032ZM83.907 189.486C85.3244 189.486 88.2272 191.686 92.6155 196.086L93.0021 196.264C98.3068 198.727 101.821 200.863 103.545 202.673L103.606 202.738C105.348 204.605 108.796 209.57 113.951 217.632L121.417 222.044H124.242L126.253 236.624L121.417 247.034L110.463 243.346L92.6155 238.645L82.374 228.261L76.5967 226.322C77.2976 228.346 77.5517 230.36 76.6806 232.369C75.1743 235.331 70.6438 236.841 67.6317 237.848C61.3911 240.242 50.5173 237.758 46.8914 232.369C44.9573 229.494 42.7167 222.243 41.5635 219.994L41.2327 215.359C40.6367 206.807 40.1943 197.956 42.0523 196.666C50.7471 190.629 73.2074 193.662 73.7216 194.001C74.8537 194.745 75.3412 194.811 75.9536 195.777L76.2705 195.819L74.4881 193.403L75.1192 193.067C79.6226 190.68 82.5519 189.486 83.907 189.486ZM76.6806 197.379C77.486 200.85 75.2514 203.361 74.1946 206.714L76.8948 201.548L76.8949 197.446C76.825 197.428 76.7535 197.406 76.6806 197.379Z" fill="#9DDADB"/>
<path fill-rule="evenodd" clip-rule="evenodd" d="M119.727 123.493C119.127 122.962 118.239 123.629 118.62 124.347C119.478 125.96 120.357 127.488 121.507 128.914C122.205 129.778 122.952 130.596 123.709 131.404C121.766 133.084 120.099 135.17 118.526 137.125C116.513 139.625 114.611 142.231 112.352 144.519C110.124 146.775 107.66 148.352 104.682 149.404L104.08 149.613C101.088 150.663 97.8902 152.081 96.2037 154.912C95.8711 155.47 96.5408 156.16 97.1037 155.812C100.034 153.998 103.478 153.633 106.668 152.435C109.75 151.278 112.436 149.496 114.809 147.222C117.179 144.952 119.169 142.37 121.244 139.842C123.296 137.342 125.506 135.207 127.933 133.092C131.679 135.611 135.955 136.707 140.303 137.783L140.777 137.901C145.13 138.978 149.46 140.229 153.544 142.104C157.145 143.758 160.686 145.732 163.619 148.423C166.732 151.279 169.156 154.926 171.374 158.493C176.335 166.472 179.822 175.214 182.893 184.063C186.087 193.266 188.758 202.654 190.914 212.153C192.011 216.985 192.902 221.851 193.634 226.752C193.987 229.112 194.3 231.477 194.574 233.847C194.868 236.379 194.935 238.983 195.712 241.416C196.045 242.459 196.832 242.892 197.619 242.855L197.779 244.854C197.991 247.519 198.189 250.184 198.256 252.865C198.366 257.324 198.316 261.769 197.995 266.218L197.95 266.824C197.698 270.071 197.134 273.719 194.691 276.097C192.161 278.559 188.271 279.333 184.861 279.378C176.919 279.481 169.274 275.731 162.246 272.441C155.008 269.052 147.968 265.291 141.097 261.212C137.597 259.135 134.136 256.989 130.718 254.779C129.041 253.695 127.376 252.592 125.723 251.472C124.777 250.83 123.88 250.127 122.916 249.557C123.388 249.118 123.599 248.427 123.203 247.824C125.989 245.407 127.149 241.094 127.284 237.605C127.394 234.788 126.979 231.979 126.652 229.189C126.486 227.782 126.282 226.378 126.071 224.977C125.987 224.424 125.923 223.832 125.825 223.248C133.348 227.379 141.081 231.058 149.019 234.327C153.088 236.002 157.209 237.509 161.386 238.889L162.233 239.168C166.192 240.463 170.245 241.686 174.337 242.426C174.556 242.466 174.734 242.143 174.5 242.04C170.512 240.281 166.386 238.798 162.338 237.178L161.673 236.908C161.749 236.903 161.828 236.893 161.911 236.873C164.285 236.3 166.64 235.418 168.969 234.675C171.13 233.985 173.558 233.552 175.578 232.511C175.733 232.431 175.646 232.215 175.495 232.205C173.224 232.048 170.76 232.709 168.534 233.098L167.698 233.244C166.297 233.491 164.865 233.756 163.471 234.103C163.421 233.636 163.16 233.167 162.789 232.892C158.704 229.869 159.119 223.763 158.682 219.261L158.358 215.918C157.788 210.068 157.185 204.218 156.27 198.412C156.221 198.102 155.741 198.191 155.739 198.483C155.692 205.681 156.235 212.846 156.508 220.032L156.55 221.211C156.701 225.646 156.819 230.25 159.613 233.662C159.222 233.434 158.694 233.434 158.377 233.81C157.988 234.273 157.764 234.792 157.771 235.302C155.246 234.244 152.732 233.158 150.23 232.051C142.186 228.489 134.311 224.504 126.644 220.191C125.819 219.727 125.035 220.092 124.627 220.704L124.568 220.695C124.558 220.694 124.548 220.693 124.538 220.693L124.48 220.69C124.477 220.69 124.475 220.691 124.473 220.691C123.394 220.098 121.924 220.52 120.997 221.384C120.97 221.411 120.947 221.439 120.923 221.466C119.75 220.94 118.655 220.23 117.662 219.33C115.629 217.488 113.906 215.211 112.405 212.928C109.64 208.722 107.292 204.045 103.557 200.583C100.523 197.77 96.7606 196.019 92.8138 194.92C92.8303 194.805 92.7862 194.682 92.7065 194.6C92.5038 194.393 92.3591 194.321 92.0972 194.447C92.0764 194.457 92.0639 194.471 92.0554 194.486L91.6702 193.828C91.46 193.471 91.2442 193.112 91.1694 193.018C90.7212 192.454 90.2601 191.894 89.7919 191.346C88.9981 190.419 88.0936 189.503 87.0461 188.86C84.7528 187.452 82.3419 188.249 79.9842 189.018C78.5596 189.484 77.1397 189.964 75.7176 190.436L75.5709 190.484C74.5105 190.824 73.2696 191.122 72.7954 192.245C72.6077 192.689 72.5786 193.151 72.6661 193.598C62.5945 191.038 51.4081 192.214 41.5798 195.219C41.2026 195.334 40.8259 195.644 40.7464 196.052C39.6203 201.823 39.1188 207.742 39.6283 213.612C40.068 218.679 41.1913 223.644 43.3082 228.283L43.4285 228.545C45.418 232.844 48.5711 238.144 53.3866 239.491C56.2942 240.305 59.5101 239.825 62.4757 239.676C65.3578 239.531 68.3037 239.51 71.1585 239.057C73.701 238.654 75.9286 237.515 77.4999 235.449C78.8553 233.666 79.5691 231.512 80.1539 229.369C80.4215 229.454 80.6875 229.545 80.9491 229.647C82.0537 230.078 82.9896 230.774 83.8357 231.593C85.6225 233.322 87.0085 235.423 88.878 237.073C90.5704 238.567 92.4987 239.729 94.5673 240.622C98.8535 242.473 103.452 243.212 107.985 244.193L108.302 244.262C111.715 245.011 115.199 245.93 118.211 247.706C118.27 248.228 118.509 248.72 118.891 249.042C118.359 249.541 118.134 250.331 118.601 251.072C119.905 253.141 122.152 254.318 124.169 255.641L124.3 255.727C126.284 257.042 128.285 258.33 130.303 259.592C134.405 262.159 138.592 264.584 142.839 266.903C149.669 270.632 156.646 274.149 163.749 277.34C163.322 279.436 163.478 281.598 163.158 283.708L163.109 284.009C162.972 284.792 163.157 285.447 163.696 285.959L163.753 286.011L163.752 286.004L163.803 286.051L163.82 286.065L163.814 286.061C163.877 286.117 163.941 286.17 164.006 286.216L164.089 286.269C164.609 286.585 165.279 286.582 165.811 286.303L165.872 286.269L165.974 286.211C166.677 285.807 167.162 284.805 166.871 284.009C166.153 282.053 165.883 279.966 165.22 277.997L165.746 278.232L166.438 278.533C173.927 281.77 182.245 284.495 190.404 282.289C194.009 281.314 197.379 279.251 199.183 275.889C200.958 272.581 201.209 268.74 201.303 265.061C201.419 260.519 201.176 255.908 200.576 251.405C200.174 248.383 199.687 245.303 198.937 242.312C199.323 241.972 199.607 241.484 199.682 240.879C200.036 238.022 199.416 235.052 199.037 232.21C198.666 229.435 198.256 226.666 197.793 223.905C196.858 218.329 195.772 212.765 194.507 207.255C192.255 197.448 189.283 187.816 185.703 178.413L185.39 177.594C182.083 169 178.253 160.59 172.921 153.04C170.37 149.428 167.674 146.153 164.07 143.55C160.693 141.111 156.885 139.355 152.954 138.013C149.019 136.67 144.975 135.77 140.859 135.21C136.68 134.642 132.268 134.293 128.368 132.579C128.862 131.696 128.438 130.503 127.608 129.955C124.815 128.11 122.231 125.71 119.727 123.493ZM30.2987 203.705C30.1817 203.527 29.9037 203.64 29.9551 203.85C31.3138 209.413 32.5893 214.987 33.4221 220.657C34.9256 230.889 34.649 241.255 34.5261 251.563L34.5199 252.096C34.4568 257.649 34.369 263.201 34.1853 268.752C34.0926 271.557 33.9091 274.389 34.0089 277.196C34.0633 278.718 34.4693 280.158 34.6132 281.662C34.7392 282.978 34.627 284.313 34.5641 285.63C34.5219 286.506 35.8152 286.469 35.9032 285.63L36.0157 284.546C36.1618 283.174 36.3424 281.81 36.7925 280.496C37.3336 278.916 37.5932 277.365 37.781 275.706C38.0685 273.164 38.1964 270.597 38.3074 268.037L38.3833 266.267C38.8467 255.57 38.8304 244.823 38.0802 234.137L38.0253 233.374C37.2825 223.273 35.9934 212.359 30.2987 203.705ZM59.261 140.044C59.616 139.898 59.4916 139.362 59.0986 139.455L58.3839 139.626C53.147 140.879 48.0051 142.238 43.117 144.57C38.2258 146.904 34.0848 150.389 30.7944 154.674C24.3982 163.003 21.7402 173.125 19.6418 183.238C17.3099 194.475 15.1868 205.753 12.8345 216.987L12.3977 219.08C10.2212 229.542 8.16621 240.011 6.65205 250.598L6.54329 251.366C5.01636 262.252 4.09793 273.516 5.76405 284.431C6.09364 286.591 9.68929 286.053 9.54868 283.919C9.14264 277.751 8.8519 271.616 9.13287 265.434C9.41408 259.252 9.99431 253.096 10.8593 246.967C11.5871 241.809 12.6722 236.716 13.6324 231.599L13.7829 230.791C14.587 226.439 15.4159 222.092 16.243 217.744L17.4789 211.234C19.3314 201.487 21.2201 191.731 23.3543 182.045L23.4809 181.475C25.5694 172.156 28.6485 162.395 34.9132 154.995C41.2706 147.485 50.3714 143.703 59.261 140.044ZM82.3615 238.886C82.2086 238.546 81.6738 238.583 81.5094 238.886C80.8651 240.074 80.7935 241.591 80.6718 242.932L80.659 243.07C80.5041 244.706 80.367 246.348 80.283 247.99C80.1238 251.106 80.0476 254.218 80.0574 257.338C80.0674 260.535 80.1319 263.728 80.3043 266.921L80.3511 267.776C80.5085 270.551 80.7725 273.645 82.0916 276.07C82.5711 276.952 83.8751 276.693 84.1528 275.801C85.0626 272.882 84.5955 269.42 84.3621 266.43L84.1809 264.096C84.0015 261.763 83.8304 259.428 83.6947 257.092C83.5087 253.895 83.3553 250.696 83.2077 247.498C83.1597 246.459 83.1079 245.42 83.0531 244.382L82.9688 242.824C82.8969 241.521 82.9029 240.091 82.3615 238.886ZM184.659 243.024L184.256 242.636C183.019 241.426 181.457 239.564 179.629 239.68C178.9 239.726 178.436 240.33 178.587 241.047C178.91 242.579 180.474 243.374 181.599 244.309C182.832 245.334 183.995 246.428 185.154 247.534C186.184 248.514 187.173 249.522 188.139 250.562L188.5 250.953C188.846 251.33 191.312 253.559 191.045 254.137L191.031 254.163C190.957 254.274 191.08 254.426 191.203 254.387C192.268 254.051 192.202 253.139 191.799 252.215C191.026 250.44 189.671 248.797 188.488 247.281C187.309 245.769 186.032 244.36 184.659 243.024ZM78.5034 198.499C79.3268 196.554 82.3597 196.595 84.0816 196.712C88.4176 197.004 93.109 198.101 96.9671 200.126C100.967 202.226 103.661 205.591 106.072 209.311L106.185 209.486C108.535 213.136 110.798 217.457 114.477 219.967C116.351 221.246 118.539 222.413 120.813 222.919C120.969 223.194 121.222 223.411 121.554 223.49L121.708 223.525C122.355 223.668 123.361 223.826 124.23 223.731C124.225 224.156 124.229 224.578 124.218 224.98C124.188 226.134 124.175 227.292 124.175 228.447C124.174 230.865 124.304 233.288 124.203 235.706C124.114 237.845 123.812 240.08 122.784 241.992C122.03 243.395 121.036 244.323 119.835 245.21C116.881 243.41 113.54 242.314 110.15 241.489C106.05 240.492 101.853 239.826 97.8458 238.474C95.9174 237.823 94.0635 236.971 92.3837 235.814C90.6009 234.586 89.2392 232.923 87.8382 231.297L87.6192 231.045C86.1893 229.406 84.6291 227.838 82.6084 226.949C80.8682 226.184 78.5746 226.047 77.053 224.863C76.2575 224.243 76.1908 223.344 76.1071 222.423C77.0816 222.563 78.1132 222.339 79.0844 222.226L79.5876 222.167C80.506 222.058 81.4033 221.938 82.3073 221.704C82.4753 221.661 82.4753 221.408 82.3073 221.364C81.2389 221.089 80.1799 220.971 79.0844 220.843L78.8271 220.811C77.836 220.681 76.7943 220.485 75.8221 220.703C75.6477 220.04 75.3958 219.406 75.0424 218.772C74.5464 217.881 73.6077 216.871 73.4809 215.83C73.4431 215.519 73.5155 215.153 73.6621 214.878L73.7126 214.784C73.7743 214.674 73.8473 214.562 73.9541 214.494C73.9659 214.507 73.991 214.523 74.0453 214.54C74.7935 214.776 75.4462 214.41 75.7925 213.846C77.263 214.028 78.8678 213.966 80.2468 214.027L81.6411 214.095C83.131 214.163 84.6885 214.193 86.0885 213.892C86.284 213.85 86.3431 213.525 86.1474 213.441C84.4262 212.706 82.3384 212.471 80.4957 212.189C79.4666 212.03 78.43 211.91 77.3979 211.771C76.7106 211.679 75.9813 211.525 75.2692 211.489C73.4839 209.268 74.4459 205.764 76.9304 204.807C77.8355 205.205 78.6493 204.974 79.6381 204.889C80.6251 204.804 81.6146 204.747 82.6056 204.751C84.5914 204.76 86.6957 205.282 88.6622 205.057C88.9821 205.02 89.2793 204.595 88.9613 204.335C87.4559 203.108 85.2986 202.707 83.3879 202.446L82.9918 202.393C82.3512 202.309 81.5722 202.186 80.7642 202.114C80.5815 201.757 80.2536 201.488 79.7611 201.421C79.6147 201.401 79.4676 201.389 79.3208 201.377L79.323 201.362C78.122 201.305 78.1741 199.277 78.5034 198.499ZM160.73 236.43C160.751 236.462 160.774 236.494 160.799 236.524L160.837 236.568L160.639 236.487L160.73 236.43ZM57.5446 194.154C62.6 193.611 67.6626 193.725 72.733 193.871C73.1385 195.197 74.5501 196.326 75.9179 196.369C74.8466 197.998 74.7361 200.204 75.4873 201.932C73.8924 202.566 72.5185 203.706 71.6843 205.329C70.5276 207.579 70.679 210.083 71.8222 212.163C70.8465 213.045 70.2707 214.479 70.3284 215.83C70.3928 217.337 71.2913 218.624 72.038 219.871C72.8448 221.22 72.8719 222.408 73.1197 223.919C73.4824 226.131 74.9747 227.472 76.8948 228.309L76.7928 228.711C76.2977 230.636 75.6818 232.668 74.2669 234.077C72.4468 235.888 69.6232 235.871 67.2185 235.986L67.1024 235.992C64.9004 236.102 62.6994 236.231 60.4982 236.355L58.8472 236.448C56.3128 236.587 53.8788 236.604 51.8098 234.929C48.432 232.196 46.1163 227.672 44.6506 223.668C41.5743 215.262 41.5374 206.038 42.9495 197.284C47.6853 195.758 52.5991 194.685 57.5446 194.154ZM99.5862 208.099L99.549 208.101C98.5082 208.22 97.7931 209.062 97.5384 210.062C97.1685 211.514 97.35 212.827 96.4599 214.138C95.5444 215.486 94.9814 216.566 94.8484 218.231C94.7937 218.916 94.8188 219.6 94.6661 220.271L94.5555 220.741C94.4379 221.242 94.3418 221.725 94.4002 222.263C94.4536 222.753 94.6927 223.136 95.1852 223.293C96.79 223.806 98.0292 222.624 98.4437 221.13C98.8019 219.839 98.3237 218.3 98.829 217.088C99.1089 216.416 99.6252 215.853 99.917 215.177C100.206 214.506 100.351 213.806 100.397 213.077C100.485 211.698 99.2653 210.042 99.9461 208.792C100.091 208.526 99.9268 208.091 99.5862 208.099ZM120.904 193.871C119.817 193.651 118.584 193.145 117.512 193.565C116.961 193.782 116.689 194.453 117.155 194.92C117.963 195.729 119.137 195.774 120.226 195.965L120.321 195.982C121.608 196.22 122.898 196.446 124.189 196.66C126.618 197.062 129.052 197.417 131.496 197.72C134.005 198.03 136.521 198.306 139.041 198.514L140.017 198.594C142.145 198.764 144.36 198.893 146.449 198.567C146.752 198.519 146.703 198.078 146.449 198C144.161 197.308 141.651 197.123 139.285 196.83C136.77 196.518 134.26 196.189 131.756 195.798C129.256 195.408 126.759 194.989 124.271 194.526C123.147 194.317 122.024 194.099 120.904 193.871ZM81.6903 191.649C82.6439 191.312 83.6931 190.812 84.7265 190.979C86.5085 191.268 88.0946 193.003 89.5051 194.146L88.7969 194.008C85.1728 193.312 80.3736 192.562 77.3315 194.865C77.3237 194.851 77.3177 194.838 77.3089 194.825C77.0633 194.452 76.7788 194.161 76.4682 193.842C76.4386 193.814 76.4099 193.786 76.3816 193.756L76.2141 193.578L76.5973 193.445C77.4181 193.155 78.3904 192.781 78.5442 192.726L78.5548 192.722C79.6012 192.368 80.6489 192.018 81.6903 191.649ZM111.466 115.732C111.616 113.815 108.63 113.831 108.482 115.732C108.16 119.883 109.094 123.994 111.106 127.633C111.121 127.66 111.137 127.683 111.153 127.708C109.894 128.362 108.622 128.99 107.321 129.551C105.657 130.269 103.962 130.923 102.236 131.478C100.675 131.979 98.7521 132.178 97.4397 133.222C94.6724 135.424 95.7121 139.995 96.2444 142.957L96.3275 143.425C96.5926 144.95 96.7843 146.514 96.1412 147.977C95.4544 149.54 94.0657 150.699 92.8268 151.817L92.5765 152.044C91.479 153.043 90.2249 154.257 89.4199 155.612C88.685 154.093 87.6832 152.853 86.624 151.456C85.8683 150.459 86.4062 150.13 86.9491 149.156C87.4716 148.219 87.7268 147.22 87.5634 146.15C87.2619 144.175 85.6826 142.749 84.1106 141.677C82.2541 140.412 80.1821 139.474 78.263 138.297C74.3195 135.879 70.4789 133.114 67.0189 130.043C66.9234 129.959 66.758 130.07 66.8344 130.186C69.5676 134.341 72.7725 137.931 76.7113 140.978C78.3084 142.214 79.9861 143.239 81.6751 144.316L82.1607 144.628C82.8388 145.067 83.6847 145.654 83.9913 146.401C84.2998 147.153 83.6419 147.72 83.2878 148.343C82.1632 150.321 82.7057 152.166 84.039 153.843L84.1011 153.92C85.4259 155.552 86.43 157.069 86.9102 159.154C87.9421 163.632 86.5048 168.296 85.0004 172.5L84.941 172.666C84.1271 174.932 83.2622 177.181 82.5551 179.483L82.3606 180.12C81.72 182.238 81.1954 184.327 81.914 186.505C82.1584 187.246 83.1692 187.421 83.589 186.724C85.07 184.265 85.4392 181.307 86.3676 178.604C87.2724 175.97 88.3113 173.384 89.1853 170.739C90.3106 167.333 91.0638 163.668 90.655 160.096C90.667 160.075 90.6803 160.055 90.6903 160.033L90.9768 159.407C91.758 157.711 92.5125 156.23 93.9331 154.879C95.4148 153.469 97.0232 152.221 98.1891 150.514C100.722 146.806 99.1554 142.682 98.8495 138.628L98.8145 138.131C98.759 137.289 98.7285 136.145 99.2787 135.563C99.8975 134.907 101.349 134.74 102.17 134.449C104.292 133.699 106.383 132.824 108.374 131.774C110.27 130.775 112.107 129.671 113.816 128.377L114.683 127.726C116.05 126.695 117.468 125.569 118.385 124.165C118.491 124.003 118.311 123.743 118.119 123.82C116.589 124.441 115.192 125.427 113.76 126.286C113.738 126.234 113.712 126.181 113.683 126.128C111.912 122.925 111.183 119.376 111.466 115.732ZM62.5963 137.679C61.9868 136.008 59.2087 136.137 59.3195 138.122C59.4044 139.647 60.0522 141.024 60.6445 142.408L60.7077 142.556C61.3193 143.999 62.0256 145.353 62.8708 146.676C64.4856 149.203 66.3772 151.549 68.3976 153.762C70.2292 155.769 72.6333 156.996 75.4036 156.792C76.5708 156.706 77.7491 156.41 78.7719 155.827C79.9868 155.135 81.3061 153.056 82.8561 153.559C83.0059 153.608 83.1458 153.388 83.0162 153.284C81.2269 151.844 79.196 154.077 77.4829 154.615C74.9016 155.426 72.2526 154.53 70.5911 152.444C68.8565 150.267 67.2599 147.829 65.802 145.458C65.0616 144.254 64.3861 143.004 63.8026 141.717C63.2139 140.417 63.08 139.004 62.5963 137.679ZM66.7572 127.398C66.8324 127.168 66.5457 126.948 66.3429 127.08C65.1672 127.845 64.1483 128.856 63.0638 129.742C61.8605 130.724 60.6484 131.687 59.4175 132.635C57.6232 134.018 59.7043 136.563 61.2838 135.053C63.4453 132.987 65.8125 130.286 66.7572 127.398ZM73.2124 119.313C72.7347 117.472 69.9097 118.231 70.3214 120.05L70.3348 120.106C71.1146 123.111 70.004 126.17 67.6333 128.118L67.546 128.189C66.0462 129.389 68.1711 131.486 69.6561 130.298C72.8981 127.704 74.2468 123.3 73.2124 119.313Z" fill="black"/>
<path fill-rule="evenodd" clip-rule="evenodd" d="M48.8902 60.7121C49.8186 53.2924 52.7349 45.4146 55.802 38.4974C62.6985 23.8723 78.4871 21.8587 92.6409 18.8433C106.608 16.8069 121.398 14.968 135.155 19.0312C142.888 20.9287 145.909 30.1532 144.688 37.4326C143.992 41.9687 141.93 46.2619 140.172 50.4658C136.678 59.0992 134.461 68.342 134.457 77.6893C134.697 83.7977 135.558 90.7698 128.549 93.3571C121.879 96.6788 121.316 105.683 112.964 110.792C109.587 117.643 100.389 118.246 93.7679 119.835C89.5834 120.637 85.3515 121.228 81.1082 121.609C68.8214 123.186 58.9921 119.62 52.5603 108.658C48.2562 101.987 45.0511 94.2837 45.8429 86.1984C46.6315 77.6842 47.9453 69.2147 48.8902 60.7121Z" fill="#EDB98A"/>
<path fill-rule="evenodd" clip-rule="evenodd" d="M92.535 1.06899C91.8337 0.272932 90.7532 0.545965 90.0974 1.17544C89.6705 1.30144 89.2568 1.48881 88.8661 1.73679C87.9833 1.62332 87.0576 1.62332 86.1917 1.65513C85.9816 1.53715 85.7565 1.4322 85.5114 1.34202C83.7607 0.701018 82.2103 1.02665 80.9314 1.88483C80.3154 1.30119 79.5383 0.934975 78.5449 0.990333C77.6583 1.03993 77.0265 1.45775 76.485 2.00807C75.945 1.2283 75.0722 0.671961 73.9847 0.59456C72.4648 0.486348 71.0036 1.09679 69.7926 2.04189C69.0871 1.2313 68.1251 0.765393 67.0532 0.760885C66.3479 0.632634 65.6035 0.683233 64.931 0.88663C63.9546 1.18196 63.0972 1.73529 62.4144 2.45344C61.3342 1.41742 60.0119 0.671961 58.4872 0.780673C56.5139 0.923452 54.8782 2.37654 54.1178 4.16503C52.7822 4.70083 51.5492 5.46507 50.5188 6.5547C50.4637 6.61206 50.4112 6.67218 50.3562 6.73255C49.8009 6.9377 49.2782 7.22852 48.818 7.61152C47.3599 8.82664 47.0348 10.5851 47.5175 12.3082C47.4499 12.584 47.3924 12.8645 47.3399 13.1448C45.9743 13.3527 44.7337 14.142 44.0284 15.427C43.063 17.1905 43.2531 19.5148 44.2986 21.1983C44.748 21.9225 45.3185 22.5327 45.9593 23.0662C45.2347 24.7144 45.5824 26.6813 46.7506 28.0144C47.0352 28.474 47.3847 28.8888 47.7778 29.2643C47.3439 30.9684 48.1157 32.7266 49.6564 33.6371L49.7882 33.9674C49.8103 34.0223 49.8328 34.077 49.856 34.1311C49.873 34.2012 49.894 34.2691 49.9147 34.3375C49.9515 34.9422 50.1503 35.5356 50.545 36.0947C51.353 37.2405 52.3545 37.9876 52.8856 39.3252L52.9388 39.4657C53.1672 40.0987 53.9045 40.5453 54.5327 40.35C51.0445 47.5242 49.2157 55.5071 47.9602 63.3304C47.3341 67.2333 46.8509 71.1496 46.4591 75.0811L46.0748 78.9961C45.7369 82.476 45.436 85.9674 45.4341 89.4589C45.4291 97.3571 47.685 104.954 52.5271 111.239C57.1066 117.181 63.5869 121.486 70.9076 123.182C78.4659 124.931 87.3322 124.242 94.1102 120.239C96.1085 119.062 94.3578 116.231 92.3244 117.178C88.4752 118.972 84.5635 120.304 80.2967 120.602C76.1374 120.895 71.9681 120.374 68.0238 119.012C61.4985 116.755 55.9461 112.028 52.3771 106.142C50.6188 103.241 49.3458 100.092 48.668 96.7656C47.8243 92.6194 47.9514 88.3337 48.2614 84.1344L48.2828 83.8482C48.8956 75.7571 49.7034 67.6162 51.009 59.6058C52.163 52.5222 53.9375 45.5822 56.2412 38.7957C57.1436 38.0001 58.1531 37.3418 59.2333 36.8419C67.1435 36.511 75.0679 36.6077 82.9678 37.1542C89.7052 37.6234 96.41 38.4172 103.064 39.5741L103.777 39.6994C105.25 39.9622 106.886 40.1125 108.274 40.7064C109.464 41.2174 109.947 42.1993 110.247 43.4064C111.002 46.4599 111.118 49.8017 111.245 52.9328C111.37 55.9935 111.088 59.0798 111.333 62.1305C111.54 64.683 112.193 67.2956 114.081 69.1419C115.069 70.1086 116.285 70.6371 117.425 71.371C118.163 71.8447 118.476 72.3329 118.381 73.2096C118.176 75.1284 116.632 77.5456 118.366 79.1888C118.671 79.4769 119.199 79.5145 119.499 79.1888C120.214 78.41 121.202 77.8161 122.05 77.1874C122.405 76.9271 122.11 76.4212 121.707 76.6013C121.177 76.8395 120.637 77.12 120.084 77.3655C121.304 76.3585 123.04 75.8648 124.486 75.5718C125.214 75.4265 125.979 75.3839 126.737 75.4518C127.297 75.7195 127.87 75.9678 128.443 76.2105C129.17 76.5163 129.906 76.7941 130.646 77.0574C133.215 79.1538 134.44 82.5632 133.905 85.8972C133.612 87.738 132.764 89.7397 131.166 90.8143C129.273 92.0868 126.737 91.5404 124.691 92.485C122.775 93.369 121.61 95.1553 120.737 97.0039L120.373 97.7735C119.563 99.4775 118.73 101.136 117.623 102.687C116.342 104.483 114.774 106.096 113.063 107.482C112.233 108.152 111.349 108.755 110.435 109.305L110.185 109.453C109.259 109.997 108.596 110.515 108.534 111.665C108.514 112.066 108.767 112.431 109.092 112.639C110.492 113.528 111.885 112.416 113.051 111.64C114.309 110.803 115.512 109.861 116.625 108.834C118.741 106.886 120.572 104.571 121.98 102.058C123.053 100.145 123.663 97.4522 125.359 95.9693C126.394 95.0648 127.857 95.0576 129.15 94.892C130.353 94.7369 131.491 94.4865 132.562 93.8928C136.916 91.4706 138.147 85.6066 137.114 81.0752C136.939 80.311 136.694 79.5671 136.391 78.8507C138.012 79.1212 139.832 77.4432 139.175 75.7496C139.125 75.6219 139.067 75.5019 139.012 75.3789C140.08 74.675 140.923 73.6082 141.323 72.2127C141.528 71.4913 141.558 70.7624 141.451 70.0585C141.968 69.7106 142.396 69.2319 142.671 68.6432C143.532 68.2449 144.294 67.649 144.75 66.7974C145.38 65.6223 145.3 64.5402 144.82 63.5658C144.887 63.4433 144.952 63.3181 145.015 63.1901C146.778 62.0706 148.009 60.1416 147.868 58.0024C147.823 57.2936 147.648 56.6548 147.378 56.0789C147.401 56.0063 147.423 55.9309 147.443 55.8583C148.919 55.1068 150.139 53.8721 150.575 52.2239C151.01 50.5654 150.497 48.9122 149.472 47.6397C150.972 46.5403 151.875 45.0048 151.327 42.6825C151.105 41.7384 150.657 40.879 150.052 40.1551C150.054 40.1328 150.059 40.1102 150.064 40.0875L150.205 39.9784C152.057 38.5143 153.122 36.6485 151.985 34.3538C151.475 33.322 150.747 32.6028 149.892 32.1294L149.849 31.9941C150.462 30.6791 150.67 29.2187 150.247 27.6832C149.902 26.4185 149.084 25.4113 148.039 24.7427C148.109 24.1764 148.099 23.5729 147.986 22.9189C147.798 21.8145 147.251 20.8501 146.45 20.1663C146.42 20.0208 146.383 19.8782 146.34 19.7352C146.07 18.8612 145.565 17.9119 144.98 17.2078C144.497 16.6241 143.957 16.4112 143.296 16.3887C143.336 15.8504 143.309 15.304 143.199 14.7505C142.861 13.0424 141.776 11.4365 140.168 10.7076C139.507 10.4095 138.812 10.3221 138.142 10.3945C137.571 9.1921 136.459 8.32065 135.09 8.13278C134.558 8.05764 134.062 8.0624 133.607 8.13028C133.35 8.00979 133.082 7.90233 132.802 7.80439C132.617 7.73926 132.429 7.67915 132.242 7.61928C131.609 6.83274 130.776 6.20376 129.803 5.82578C128.68 5.38742 127.537 5.43226 126.524 5.80048L126.202 5.73285C125.696 4.85613 124.891 4.17731 123.653 3.86921C122.247 3.52103 120.804 4.00697 119.699 4.89145C119.694 4.89145 119.689 4.89145 119.681 4.8887C119.103 3.59367 118.116 2.69191 116.457 2.75453C115.424 2.79461 114.491 3.30836 113.771 4.03979C113.371 3.98944 112.971 3.94435 112.568 3.89951C112.143 3.40079 111.67 2.93513 111.148 2.51681C110.292 1.83022 109.179 1.88558 108.549 2.85222C108.411 3.06263 108.284 3.27555 108.156 3.48846L107.578 3.44838C106.898 2.52909 105.97 1.90787 104.7 1.85803C103.534 1.81018 102.704 2.38155 102.071 3.18036C101.556 3.16784 101.038 3.15807 100.52 3.1503C99.9177 2.45144 99.2074 1.83523 98.397 1.32423C97.7767 0.933472 96.8614 1.06648 96.3586 1.5875C96.019 1.94169 95.7028 2.31141 95.409 2.69416C94.6514 1.8435 93.6282 1.28315 92.535 1.06899ZM129.345 80.6118C128.177 79.9454 126.607 80.6669 125.476 81.233C124.098 81.9218 122.73 82.9613 121.887 84.2639C120.739 86.0373 123.438 87.4701 124.646 85.8795C125.389 84.9001 125.981 83.9132 126.882 83.0565C127.705 82.27 128.898 81.744 129.37 80.7069C129.388 80.6719 129.383 80.6318 129.345 80.6118ZM128.525 37.565L128.503 37.5024C128.171 36.5924 129.621 36.2001 129.95 37.1026C130.449 38.4705 129.874 39.9577 128.525 40.5484C128.151 40.7122 127.723 40.6553 127.498 40.2788C127.309 39.962 127.397 39.4129 127.767 39.2508C128.526 38.9184 128.781 38.3316 128.525 37.565ZM141.013 35.0203C140.288 34.3791 141.352 33.3192 142.074 33.9577C142.748 34.5534 143.248 35.3625 143.118 36.293C142.986 37.2414 142.272 37.9109 141.49 38.3841C140.662 38.8859 139.907 37.5868 140.733 37.0863L140.826 37.0295C141.172 36.8138 141.578 36.5172 141.637 36.0929C141.699 35.642 141.318 35.2901 141.013 35.0203ZM136.895 23.7052L136.843 23.6674C136.064 23.1103 136.812 21.8062 137.601 22.3696C138.324 22.8864 138.903 23.5577 138.964 24.4835C139.024 25.3832 138.566 26.1632 137.969 26.7962C137.304 27.5004 136.244 26.4363 136.907 25.7337C137.554 25.0489 137.681 24.3016 136.895 23.7052Z" fill="black"/>
<path fill-rule="evenodd" clip-rule="evenodd" d="M79.4839 93.3326C78.0818 91.0276 75.0932 96.6741 74.7757 97.645C74.4944 98.505 74.3088 99.3861 74.2144 100.277C73.1274 100.521 71.9987 100.521 70.8849 100.308C69.2295 99.9905 68.2176 99.1011 66.7789 98.3374C65.7852 97.8097 64.5328 98.4285 64.016 99.3037C63.4082 100.334 63.7954 101.403 64.5949 102.171C66.111 103.627 69.094 103.962 71.073 103.575C72.2069 103.354 73.2461 102.929 74.1638 102.311C74.1699 102.426 74.174 102.542 74.1831 102.657L74.2006 102.856C74.3526 104.471 74.7968 106.502 76.0521 107.553C78.1109 109.277 80.6518 105.962 78.6513 104.24L78.5892 104.188C77.3458 103.184 77.0745 100.49 77.1415 99.0062C77.1854 98.0377 77.3619 97.0568 77.6679 96.1344L77.7308 95.9507C77.8229 95.6902 78.8271 93.2185 79.19 93.5333L79.2073 93.551C79.3569 93.7296 79.5988 93.5216 79.4839 93.3326ZM68.2893 80.3259C66.3966 81.4756 63.5128 84.1567 65.5489 87.007C67.9455 89.5203 71.3961 86.6387 73.0965 85.3354C74.6732 84.3254 76.4447 86.9231 74.9819 88.1025C62.6947 97.1941 57.7083 80.6265 67.332 78.9741C68.3916 78.792 68.7852 79.9702 68.2893 80.3259ZM88.4996 69.6984C86.6499 69.3705 84.755 69.8302 83.2244 70.9118L83.1084 70.9952C81.6338 72.073 79.9839 73.9655 80.8301 75.8234C81.1697 76.5693 82.1868 76.6863 82.8322 76.3482C83.9066 75.7851 84.1014 74.3996 85.0601 73.6329C85.8463 73.0044 86.905 72.6231 87.9176 72.7151C90.2964 72.931 91.7596 75.2758 92.4985 77.2965C92.593 77.555 92.9727 77.6555 93.1211 77.3779C94.8632 74.1236 91.7794 70.2801 88.4996 69.6984ZM58.8716 68.4703C55.3284 68.1784 51.1811 71.8496 52.1139 75.5874C52.5613 77.3809 55.2233 77.3296 55.6965 75.5874C55.9569 74.6288 55.9309 73.7806 56.6214 72.9846C57.1913 72.3273 58.0011 71.9456 58.8716 72.0042C59.831 72.0688 60.716 72.548 61.3885 73.2215C61.9958 73.8297 62.359 74.7197 62.9881 75.258C63.143 75.3903 63.3502 75.3988 63.5031 75.258C64.5859 74.2603 63.936 72.1833 63.2495 71.1417C62.267 69.6513 60.6672 68.6183 58.8716 68.4703ZM95.2469 63.0692C92.9739 61.0582 88.8437 59.1162 85.7786 60.1059C84.0164 60.6747 83.2482 63.5125 85.2154 64.412C87.4935 65.4536 90.1199 65.0297 92.4385 66.1094C93.4123 66.563 94.3281 67.1298 95.0061 67.9612C95.5402 68.6165 96.0836 69.4787 96.856 69.8564C97.059 69.9559 97.334 69.9584 97.4967 69.774C99.19 67.8598 96.7254 64.377 95.2469 63.0692ZM62.7785 60.0061C61.3736 59.612 59.8152 59.6201 58.3881 59.8675C56.9614 60.115 55.513 60.7059 54.3483 61.5679L54.2131 61.6688C52.9416 62.6264 51.4242 64.0196 51.5056 65.716C51.5735 67.1325 53.0645 68.0906 54.3518 67.3482C55.4012 66.7427 55.895 65.5299 56.7835 64.7223C57.5166 64.0557 58.3778 63.5302 59.2966 63.162C60.3172 62.7529 61.3396 62.5613 62.4348 62.543C63.2782 62.529 64.1266 62.8055 64.9542 62.894C64.8861 63.0337 65.5402 62.9686 65.9152 62.8446C66.1929 62.7264 66.1944 62.3754 66.0982 62.1477C65.6207 61.0198 63.8835 60.3157 62.7785 60.0061Z" fill="black"/>
<path fill-rule="evenodd" clip-rule="evenodd" d="M45.858 81.8515C48.901 84.9939 53.9809 85.8956 58.0294 84.2103C68.4249 79.8696 63.3367 66.3307 55.3196 62.6948C54.318 62.4453 52.9804 61.8534 51.7605 61.7192C51.6502 61.6651 51.4101 61.8216 51.1191 61.6736C42.2789 62.66 40.2658 76.3748 45.858 81.8515ZM79.3878 82.6558C82.8007 87.1799 89.1458 88.5756 94.33 86.4725C104.572 82.4416 100.939 70.4359 93.932 65.7292C79.1301 60.1706 73.0178 74.3143 79.3878 82.6558ZM101.589 72.6317C101.599 72.6272 101.608 72.625 101.618 72.6204C101.564 72.5966 101.51 72.5729 101.456 72.5486C101.473 72.5944 101.492 72.6397 101.509 72.6856C101.536 72.6673 101.559 72.646 101.589 72.6317ZM38.8121 67.7414C39.6477 67.7432 40.8548 67.8804 41.5465 68.4598C43.2524 62.7103 49.5489 57.3892 55.0248 61.2693C59.337 62.6552 62.5369 65.729 64.3555 69.8155C67.6346 67.8662 72.7907 68.6985 75.6342 71.2763C77.4964 65.1266 82.0796 62.9731 87.5347 62.6552C93.4889 61.6806 99.4234 67.4596 101.275 72.0957C102.815 71.9206 105.115 71.4309 106.564 72.3805C115.964 69.9167 132.4 68.5583 134.311 69.9272C135.673 70.4495 136.421 73.6622 134.518 73.8356C132.86 73.6004 134.712 71.4815 133.041 71.2503C124.137 70.6987 115.494 72.4907 106.685 73.2427C105.898 74.3 103.357 74.6537 102.001 74.2288C104.137 82.0932 99.5275 87.4436 92.6211 89.0463C81.9272 91.5013 72.6233 81.9406 75.4197 71.9962C72.1802 70.3856 68.454 70.4547 64.925 71.3031C70.822 92.993 35.8689 92.0198 41.328 69.203C37.695 71.009 36.906 68.1059 38.8121 67.7414Z" fill="black"/>
</g>
<defs>
<clipPath id="clip0_1_131">
<rect width="202" height="288" fill="white" transform="matrix(-1 0 0 1 202.828 0.484375)"/>
</clipPath>
</defs>
</svg>
