<svg width="203" height="296" viewBox="0 0 203 296" fill="none" xmlns="http://www.w3.org/2000/svg">
<path fill-rule="evenodd" clip-rule="evenodd" d="M27.1713 174.842C30.5695 158.773 42.6211 146.303 58.8293 140.091C61.9449 138.332 64.965 130.785 69.1521 129.403C69.8233 129.181 68.7639 130.945 69.1521 131.05C70.5368 131.426 72.0884 131.465 73.6173 130.108C76.3498 127.684 77.207 120.602 78.8684 117.401C87.6303 100.519 109.507 107.124 112.438 125.787C114.481 127.116 117.37 128.288 119.595 129.359C121.885 130.462 123.9 133.134 126.261 134.09C128.367 134.942 131.838 134.338 133.96 135.081C143.721 138.499 151.989 142.812 158.471 151.55C159.837 153.393 161.376 155.659 162.619 157.521C169.027 164.883 173.477 173.136 177.576 181.99C189.045 207.978 192.164 236.752 194.963 264.752C194.899 269.651 198.156 283.236 193.339 285.585C193.627 285.883 193.523 286.481 192.988 286.476C180.774 286.353 168.588 287.444 156.564 289.566C150.762 290.589 144.991 291.993 139.082 292.223C126.814 292.139 114.59 290.087 102.339 292.029C87.6108 292.029 69.7115 291.6 53.3265 290.972C38.0132 290.384 22.6178 291.711 7.49413 289.112C6.29701 288.923 5.7124 287.465 5.96333 286.421C7.7377 279.967 8.60875 273.325 9.60439 266.72C9.40608 262.483 9.7608 258.06 11.331 254.114C15.4335 227.474 20.6942 201.009 27.1713 174.842Z" fill="#FFDBB4"/>
<path fill-rule="evenodd" clip-rule="evenodd" d="M69.1521 131.148C68.7639 131.042 69.8233 129.279 69.1521 129.501C64.965 130.883 61.9449 138.43 58.8293 140.189C42.621 146.401 30.5695 158.87 27.1713 174.94C20.6942 201.106 15.4335 227.572 11.331 254.212C9.76079 258.158 9.40607 262.581 9.60435 266.817L9.44803 267.861C8.51453 274.121 7.6443 280.405 5.96332 286.518C5.7124 287.563 6.297 289.02 7.49411 289.209C22.4459 291.779 37.6633 290.511 52.8044 291.05L55.9603 291.168C71.6117 291.742 88.3963 292.126 102.339 292.126C114.59 290.185 126.814 292.236 139.082 292.321C144.991 292.09 150.762 290.687 156.564 289.663C168.588 287.542 180.774 286.451 192.988 286.574C193.523 286.579 193.627 285.981 193.339 285.683C198.156 283.334 194.899 269.749 194.963 264.85L194.71 262.328C191.969 235.126 188.701 207.296 177.576 182.088L177.243 181.371C173.235 172.788 168.854 164.782 162.619 157.618L162.238 157.049C161.07 155.308 159.7 153.307 158.471 151.648C151.989 142.91 143.721 138.597 133.96 135.179C131.837 134.436 128.367 135.04 126.261 134.187C124.053 133.294 122.148 130.899 120.036 129.69L120.036 138.707L89.4837 168.748L72.1553 142.226L70.3931 131.364C69.9685 131.337 69.5533 131.257 69.1521 131.148Z" fill="#8FA7DF"/>
<path fill-rule="evenodd" clip-rule="evenodd" d="M32.1133 209.858C32.4365 211.425 32.8894 212.991 33.4916 214.475C34.0718 215.906 34.9458 217.189 35.5478 218.604C35.6286 218.795 35.7608 218.939 35.9201 219.049L35.8705 219.434L35.8246 219.818C35.5244 222.416 35.1867 225.006 34.8942 227.602L34.7521 228.902C34.1771 234.324 33.2688 239.719 32.5638 245.127C31.8734 250.422 31.1706 255.717 30.4193 261.005C29.6432 266.457 28.8525 271.901 27.9296 277.331C27.5399 279.624 27.1333 281.915 26.7096 284.205L26.3824 285.957C23.0138 286.766 22.0933 291.452 25.5231 293.182C27.0798 293.964 29.0799 293.776 30.363 292.547C31.6963 291.267 31.7516 288.957 32.061 287.222L32.3591 285.61C34.5896 273.489 36.5255 261.229 37.4306 248.936C37.6631 245.762 37.859 242.586 37.9863 239.406C38.1073 236.416 38.0495 233.426 38.0957 230.435L38.1111 229.62C38.1819 226.431 38.1234 223.247 38.0402 220.058C38.0304 219.669 38.0132 219.281 37.9936 218.89C38.106 218.758 38.187 218.602 38.2211 218.45L38.2654 218.25C38.3755 217.734 38.2507 217.13 37.8539 216.761C37.6827 214.589 37.4575 212.419 37.3963 210.249C37.3914 210.071 37.1344 210.076 37.1194 210.249C36.975 212.097 36.6864 213.949 36.3975 215.799C34.5394 214.308 33.166 211.85 32.3557 209.792C32.297 209.643 32.0788 209.697 32.1133 209.858ZM76.0761 123.497C75.7676 124.904 75.1581 126.168 74.3404 127.343C73.9509 127.905 73.508 128.428 72.9768 128.865C72.5212 129.239 72.0022 129.483 71.5177 129.809C70.8127 129.698 70.0758 129.965 69.5813 130.483L69.6594 129.726C69.6841 129.481 69.2775 129.432 69.231 129.669C67.0892 140.451 65.1359 151.239 63.4451 162.099L62.704 166.894L62.0067 171.397C60.8488 178.899 59.7288 186.398 58.8854 193.955C57.7617 204.04 56.817 214.152 56.1266 224.278C55.4338 234.475 55.0076 244.679 54.7041 254.896C54.6284 257.472 54.5474 260.045 54.4693 262.62L53.9464 259.541C53.4245 256.461 52.9128 253.379 52.4741 250.285C50.9 239.213 49.6414 228.063 49.0272 216.896C48.4639 206.677 48.6524 196.255 51.2572 186.299C51.9135 183.795 52.7165 181.329 53.6857 178.927C54.626 176.591 55.9085 174.426 56.9198 172.124C58.0949 169.446 58.4474 166.92 57.8425 164.036C57.3137 161.524 56.3859 159.161 56.2197 156.576C55.9085 151.777 57.4731 147.129 59.6835 142.928C60.2664 141.821 60.8808 140.729 61.5222 139.646C63.4633 136.375 65.6521 133.222 67.9237 130.2C68.0461 130.038 67.7869 129.86 67.6544 129.992C65.5836 132.035 63.3191 134.043 61.4559 136.274C60.5503 137.359 59.6666 138.466 58.8293 139.603C49.6439 141.135 41.7513 146.845 36.3559 154.386C30.2333 162.944 27.1364 173.244 24.8448 183.387C22.2963 194.659 20.1469 206.034 17.858 217.362C15.4884 229.085 13.131 240.807 10.7465 252.526C9.56165 258.344 8.37653 264.162 7.19434 269.983C6.59456 272.93 5.96516 275.87 5.30688 278.807C4.9688 280.312 4.60649 281.815 4.29314 283.325C3.94086 285.028 4.26889 286.118 5.42415 287.369C5.85036 287.834 6.52357 287.826 7.05237 287.579L7.21767 287.502L7.37743 287.425C8.03174 287.104 8.54472 286.771 8.95183 286.057C9.40007 285.273 9.47107 284.403 9.62505 283.53C9.90927 281.925 10.1906 280.32 10.4745 278.712C10.8988 276.307 11.3602 273.91 11.8298 271.512L14.1858 259.533C14.814 256.339 15.4432 253.145 16.076 249.953C18.3356 238.536 20.5976 227.122 22.8594 215.708C25.0311 204.749 26.9528 193.714 29.4252 182.817L29.5657 182.203L29.7087 181.59C31.9194 172.197 35.0083 163.111 40.6131 155.151C44.9267 149.03 50.9169 143.564 57.9725 140.797C57.4753 141.511 56.9979 142.239 56.5426 142.982C53.6832 147.644 51.5952 153.179 52.0849 158.731C52.3245 161.443 53.3576 164.109 53.2599 166.844C53.1694 169.273 51.6636 171.406 50.6231 173.519C48.261 178.309 46.552 183.399 45.4503 188.621C43.2397 199.106 43.247 209.895 44.0086 220.539C44.8361 232.11 46.4075 243.678 48.1971 255.136C49.1151 261.012 50.3367 266.841 51.2721 272.708C51.7345 275.601 52.3639 278.487 52.9148 281.365L53.1773 282.741C53.3242 283.504 53.4767 284.265 53.6529 285.017L53.7616 285.468V285.549C53.7664 286.104 53.9185 286.563 54.1633 286.929C54.4984 288.002 54.9146 289.048 55.4679 290.052C55.7518 290.565 56.1634 290.854 56.6114 290.959C57.0618 291.988 58.0827 292.779 59.3016 292.775L75.3343 292.713C84.6468 292.677 93.9593 292.615 103.272 292.564C105.622 292.552 107.969 292.508 110.317 292.447C112.518 292.386 114.628 292.122 116.805 291.848C119.263 291.54 120.594 289.803 120.227 287.352C120.146 286.812 120.058 286.275 119.975 285.737C120.465 285.898 121.047 285.822 121.441 285.439L121.811 285.078C122.323 284.572 122.781 284.075 123.106 283.401C123.441 282.707 123.713 281.974 124.01 281.265C124.649 279.74 125.27 278.211 125.875 276.674C127.087 273.6 128.298 270.513 129.425 267.407C131.655 261.257 133.628 255.013 135.344 248.699C138.404 237.434 140.617 225.952 142.013 214.367L142.346 211.606L142.443 210.79C142.973 206.3 143.418 201.74 143.207 197.259C143.077 194.454 142.642 191.627 141.591 189.007C140.622 186.59 139.126 184.523 137.704 182.363L137.541 182.114L137.378 181.858C136.134 179.896 135.144 177.845 135.094 175.462C135.044 173.044 135.75 170.691 136.539 168.428L136.736 167.869L136.868 167.5C138.546 162.821 140.457 158.209 139.827 153.118C138.896 145.621 134.343 139.578 128.614 134.918C133.709 135.925 138.752 137.914 143.202 140.436C148.459 143.417 153.191 147.351 157.272 151.791C164.983 160.182 170.489 170.25 174.996 180.645C179.713 191.524 183.212 202.924 185.848 214.472C188.499 226.086 190.274 237.886 191.486 249.733C192.091 255.629 192.566 261.54 192.96 267.454C193.16 270.484 193.312 273.519 193.547 276.544C193.782 279.567 193.888 282.636 194.627 285.578C194.972 286.949 197.3 287.088 197.55 285.578C198.103 282.206 197.949 278.718 197.794 275.303L197.78 274.992C197.628 271.591 197.43 268.192 197.195 264.793C196.715 257.846 196.074 250.908 195.237 243.993C192.301 219.718 186.888 195.571 176.271 173.412C171.272 162.976 164.856 152.835 155.93 145.299C151.68 141.714 146.889 138.852 141.726 136.78C137.109 134.926 132.418 134.048 127.513 134.051C125.052 132.169 122.411 130.53 119.772 129.129C119.613 129.044 119.446 129.249 119.578 129.381C119.647 129.447 119.713 129.515 119.781 129.579C119.483 129.599 119.175 129.738 118.898 130.029C117.928 131.042 117.111 132.311 116.379 133.628C115.265 135.016 114.203 136.45 113.091 137.823C111.311 140.023 109.49 142.19 107.646 144.34C104.55 147.954 101.353 151.5 98.0192 154.903L97.4623 155.469C95.7342 157.216 93.9836 159.308 91.9397 160.691L91.8305 160.763C90.9682 161.324 90.3567 161.426 89.6213 160.588C88.9528 159.826 88.3963 158.941 87.8243 158.101L87.692 157.908C84.7714 153.673 82.0639 149.282 79.6133 144.761C78.4963 142.704 77.4338 140.617 76.4256 138.506L76.1248 137.873C75.5764 136.709 74.9816 135.568 74.5289 134.371C74.4236 134.09 74.3208 133.809 74.2204 133.53C75.7627 132.521 76.9571 130.336 77.3905 128.626C77.8409 126.849 77.6132 125.026 76.8105 123.402C76.6587 123.096 76.1495 123.172 76.0761 123.497ZM152.16 195.688C152.373 202.442 152.503 209.204 152.821 215.953L152.931 218.257C152.434 218.809 152.143 219.447 152.375 220.322C152.466 220.657 152.733 220.96 153.066 221.072L153.17 223.214C153.642 232.853 154.196 242.472 155.208 252.086C156.474 264.118 157.938 276.131 159.399 288.141C159.607 289.842 160.792 291.191 162.635 290.942C164.501 290.69 165.257 289.07 165.012 287.381C164.05 280.757 163.125 274.127 162.314 267.481L161.392 259.908C160.234 250.443 159.05 240.978 157.685 231.543C157.115 227.599 156.522 223.657 155.928 219.716L156.136 219.447C156.985 218.345 157.864 217.267 158.733 216.182C160.403 214.091 162.05 212.016 163.58 209.826C163.656 209.716 163.502 209.555 163.392 209.639C161.247 211.22 159.218 212.91 157.176 214.628L155.389 216.138C154.361 209.328 153.342 202.515 152.434 195.688C152.412 195.517 152.155 195.505 152.16 195.688ZM121.312 131.05C122.602 132.264 123.921 133.452 125.221 134.659L125.698 135.103L126.172 135.55C128.457 137.713 130.646 139.964 132.47 142.55C135.819 147.297 137.814 153.086 136.421 158.883C135.266 163.684 132.614 168.036 131.902 172.958C131.545 175.423 131.718 177.901 132.649 180.23C133.599 182.605 135.117 184.641 136.48 186.784C139.442 191.441 139.846 196.553 139.552 201.949C139.244 207.583 138.595 213.221 137.794 218.804C136.174 230.118 133.731 241.315 130.497 252.279C128.879 257.77 126.967 263.143 125.064 268.539C124.117 271.224 123.013 273.846 121.875 276.456C121.275 277.829 120.66 279.195 120.036 280.559C120.266 278.633 120.266 276.657 120.379 274.743C120.541 272.001 120.746 269.265 120.935 266.525C121.319 260.966 121.662 255.402 121.968 249.838C123.052 229.996 123.85 210.137 123.792 190.263C123.762 180.325 123.559 170.387 123.13 160.458C122.93 155.783 122.541 151.112 122.189 146.443L122.115 145.443C121.804 141.252 121.431 137.051 120.793 132.897C120.982 132.471 121.146 132.04 121.268 131.598L121.312 131.431L121.28 131.436C121.309 131.306 121.319 131.177 121.312 131.05ZM110.153 113.974C110.126 113.859 109.962 113.869 109.933 113.974C109.206 116.418 109.463 119.106 110.089 121.564C110.427 122.896 110.907 124.188 111.487 125.435L111.69 125.871C112.187 126.932 112.747 128.026 113.715 128.687C114.119 128.963 114.841 128.98 115.245 128.687L115.451 128.531C115.485 128.505 115.519 128.478 115.551 128.45C115.928 128.135 116.114 127.438 115.941 126.979C115.493 125.794 114.476 124.924 113.774 123.868C113.152 122.93 112.601 121.94 112.144 120.911C111.157 118.685 110.714 116.322 110.153 113.974Z" fill="black"/>
<path fill-rule="evenodd" clip-rule="evenodd" d="M93.0307 25.3992C79.1596 25.3992 64.8124 36.1539 59.7278 43.0168C53.8485 50.9524 49.2106 89.0472 51.3863 101.974C53.562 114.9 64.3693 128.989 83.1306 128.989C101.892 128.989 113.309 126.678 113.767 123.32C114.072 121.082 118.197 113.733 126.142 101.274C134.267 98.9882 138.345 95.115 138.377 89.6545C138.409 84.1941 136.232 80.4706 131.846 78.4839C133.41 56.9348 132.222 43.3551 128.284 37.7447C122.377 29.3292 106.902 25.3992 93.0307 25.3992Z" fill="#FFDBB4"/>
<path fill-rule="evenodd" clip-rule="evenodd" d="M102.383 4.52731C100.518 2.33132 97.2271 4.40703 97.3017 6.8067C96.5569 7.00835 95.6785 7.70406 95.3396 8.61109C94.6064 8.56354 93.8673 8.70924 93.2014 9.09016L93.0611 8.91718C90.7538 6.09942 87.7004 3.68145 84.5496 5.75651C83.692 6.32123 83.3081 7.25452 83.4972 8.26612L83.5117 8.33774L83.4421 8.0254C83.371 7.72864 83.477 8.32243 83.5167 8.44808L83.5218 8.46233C83.605 8.6739 83.688 8.78044 83.7634 8.94039C80.5377 6.64803 75.6259 7.98988 78.2139 12.4274L77.1615 12.0168C73.5201 10.6092 68.9924 9.09762 65.6729 11.6284C64.1891 13.0562 65.8361 14.96 67.3481 15.4215L67.0882 15.3781C64.1868 14.8852 58.1338 13.6671 57.269 17.4451C56.958 18.8045 57.8649 19.798 59.0093 20.345C56.5881 20.3361 54.2002 20.7353 52.1051 21.9172C50.1123 23.3338 51.7229 25.678 53.807 25.5758C53.1609 26.375 52.9464 27.7276 53.5703 28.5908C52.3859 28.9018 51.2933 29.3018 50.2862 29.9253L50.0094 29.9609C47.9963 30.2121 45.6996 30.3617 44.5923 32.3392C42.9624 36.6303 48.766 36.4594 51.2572 34.9522C51.1093 35.1925 50.9997 35.455 50.9382 35.7352L50.1311 35.9618C47.0857 36.809 43.6392 37.745 41.6784 40.3087C40.7797 41.7841 42.0304 44.2913 43.9095 43.8432C38.8176 46.2688 40.7692 52.6587 45.7489 49.3347C45.9818 49.5504 46.2652 49.7106 46.5618 49.7812L45.5111 50.3511C42.8422 51.8126 39.6324 53.8135 40.1897 57.1318C40.7198 58.8879 43.1551 58.567 44.393 57.8949C42.2302 59.7551 40.1895 61.7693 38.3358 63.9469L37.8228 64.5573C36.3811 66.2857 33.873 69.4674 36.5898 71.1301C39.9392 72.8353 41.6085 67.8 43.5565 66.0027C41.9989 69.6687 47.0626 72.2253 48.8301 68.5328C49.127 68.585 49.4254 68.5903 49.718 68.5509C48.1942 70.1666 44.073 81.2215 49.1992 78.7975C50.0156 77.9334 50.7321 76.9892 51.3906 75.998C50.5677 82.3319 49.9658 88.6956 49.5764 95.0639L49.4379 97.3725C49.2963 99.767 49.1892 102.172 49.4581 104.558C49.7686 107.337 50.5672 109.944 51.7765 112.461C52.8907 114.782 54.3271 116.933 55.9709 118.91C56.8504 119.968 57.7836 120.996 58.9318 121.771C59.8456 122.387 60.9132 122.792 61.9417 123.183C63.6148 124.855 65.7622 126.118 67.8606 127.127C71.3198 128.787 75.0697 129.703 78.8635 130.162C82.7429 130.629 86.6613 130.517 90.5089 129.85C94.1855 129.214 98.1262 127.589 100.391 124.493C100.586 124.227 100.222 123.975 99.9828 124.085C93.4111 127.127 86.0264 127.922 78.8635 126.961C75.5219 126.514 72.2337 125.59 69.1822 124.156C66.6074 122.946 64.4359 121.187 62.1249 119.594C61.6752 118.995 61.221 118.406 60.7029 117.859L59.8946 117.011C59.2904 116.374 58.6971 115.729 58.1576 115.032C56.4913 112.884 55.1113 110.447 54.1998 107.884C52.4273 102.894 52.9067 97.4781 53.2199 92.2781L53.2471 91.8199C53.5695 86.2582 54.095 80.7161 54.8228 75.1936C55.1254 72.8954 55.4622 70.601 55.831 68.3117C56.4221 67.3498 57.0535 66.419 57.7601 65.547C57.185 67.7824 59.1763 70.8898 61.618 69.4144C64.414 67.0237 64.2787 63.1647 66.6221 60.2371C69.0512 56.4839 85.8116 49.1845 90.7946 48.1594C89.9917 49.3276 88.5253 50.1413 88.1833 51.52C82.0551 56.936 92.0445 59.8191 95.1638 52.1006C95.0949 54.6703 94.8344 57.2178 94.2631 59.726C93.4307 62.0293 92.7772 68.7045 96.951 66.69C98.9489 67.2673 100.472 65.5651 100.723 63.6445C102.166 67.9846 100.801 74.9184 103.448 78.117C104.259 78.9584 105.513 78.3982 105.935 77.4376C108.383 76.7962 108.174 73.9424 108.471 71.8995C110.703 80.0419 113.497 85.6936 113.881 94.1877C112.154 96.6471 115.943 98.4558 117.569 96.4849C119.851 93.1868 117.746 88.6781 117.21 85.0678C117.852 85.0348 118.487 84.7497 119.017 84.127C119.306 85.2601 119.14 86.7527 119.042 87.9816C120.49 93.641 125.991 90.0159 125.764 85.4253C126.001 86.7204 126.181 88.0288 126.295 89.3467C125.233 90.5694 124.445 92.0331 123.98 93.5866C123.644 94.7091 124.785 95.3821 125.656 95.2192C126.119 96.8003 128.129 97.9412 129.45 96.4299C130.756 95.1084 130.983 93.1988 131.088 91.2975C131.269 91.1042 131.38 90.851 131.362 90.5443C131.345 90.2562 131.275 90.0117 131.162 89.8061C131.184 89.4176 131.212 89.0361 131.255 88.6674C132.266 91.8138 131.608 95.1106 131.519 98.333C129.733 99.339 127.695 99.7689 125.647 100.194L125.35 100.255C124.717 100.387 124.517 101.33 124.993 101.726C123.725 102.968 122.631 104.448 121.563 105.814C120.146 107.626 118.79 109.51 117.471 111.399L116.697 112.508C114.436 115.729 111.31 120.093 112.71 124.061C112.901 124.606 113.697 124.801 114.008 124.229C115.026 122.348 115.595 120.276 116.563 118.372C117.513 116.505 118.695 114.775 119.868 113.045L120.545 112.042C121.671 110.368 122.787 108.675 123.821 106.951L124.541 105.756C125.218 104.629 125.887 103.463 126.386 102.252C128.162 102.68 130.02 102.372 131.724 101.632L131.745 101.75L131.788 101.963C132.032 102.987 133.444 103.688 134.347 103.018C136.507 101.389 137.386 98.9641 137.615 96.3716C138.051 95.6394 138.42 94.8661 138.721 94.0659C138.863 95.6625 139.479 97.2104 141.376 97.1623C144.669 96.892 144.992 93.7813 144.101 90.6875C148 91.8783 148.456 86.3642 147.226 83.4582C147.683 83.3217 148.106 83.0496 148.348 82.6829L148.55 83.0373C149.299 84.3347 150.148 85.5944 151.332 86.2678C152.986 87.2084 155.39 86.0433 155.28 83.9716C154.926 80.5957 151.968 78.0244 150.167 75.3189C150.487 75.3641 150.821 75.3527 151.148 75.2917C154.747 77.3002 156.465 72.5729 155.198 69.834C154.268 67.3733 152.587 65.2572 150.784 63.3917L151.313 63.7075C152.266 64.269 153.329 64.8112 154.377 64.5909C161.235 69.0981 163.486 61.5177 155.791 59.1485L155.793 59.1132C156.566 58.3681 156.901 57.189 156.3 56.0112C159.123 57.0029 163.153 54.7591 160.665 51.6924C159.042 50.1639 157.127 48.8491 155.005 48.161C155.11 47.5982 155.145 47.0256 155.101 46.4494L155.228 46.4666C156.568 46.6596 158.22 47.2068 159.046 45.7636C159.465 45.0368 159.416 43.8392 158.729 43.2742C156.363 41.3286 153.664 39.7104 150.733 39.0543C150.625 38.6973 150.513 38.3423 150.394 37.9891C152.895 37.9426 155.703 34.6199 152.83 32.7372C150.305 31.45 147.703 30.6221 144.851 30.6989C146.523 29.0498 145.536 26.0607 143.313 25.6012C144.769 22.5003 141.172 20.9003 138.489 21.3893C138.588 20.0116 137.85 18.476 136.431 18.1302C137.175 13.7705 132.56 14.1829 129.669 15.2163C130.637 13.5355 129.642 11.5582 127.934 10.9688C125.136 10.3354 122.46 13.0008 120.33 14.6353C121.056 12.9301 120.443 11.3579 118.713 10.6784C116.932 9.98091 115.012 11.3289 113.525 12.2448C112.716 11.2292 111.335 10.8981 110.097 10.9609C109.965 10.5795 109.771 10.2614 109.522 10.0099C109.529 7.65982 105.529 6.36781 104.133 8.55693C103.895 7.03479 103.269 5.57012 102.383 4.52731ZM52.3385 47.152L52.2924 47.405C52.2332 47.4574 52.1776 47.5125 52.1208 47.5662C51.9425 47.6084 51.7703 47.6529 51.6071 47.6984C51.8448 47.5059 52.0898 47.3277 52.3385 47.152ZM49.2507 40.9846L49.3051 41.0598C49.3143 41.0722 49.3238 41.0844 49.3337 41.0962C49.1829 41.1534 49.0326 41.2117 48.8827 41.2719L48.6584 41.3637L48.5793 41.3986C48.8021 41.2587 49.0258 41.1201 49.2507 40.9846ZM85.259 9.93692L85.3938 9.97039C85.4368 9.98085 85.4775 9.99057 85.5146 9.99947C85.5285 10.003 85.5413 10.0046 85.5538 10.0096L85.5185 10.002C85.5823 10.0506 85.666 10.1078 85.7357 10.1536C85.6673 10.148 85.5992 10.1414 85.5305 10.1375C85.4409 10.0704 85.3502 10.0035 85.259 9.93692Z" fill="black"/>
<path fill-rule="evenodd" clip-rule="evenodd" d="M72.3656 106.549C71.9901 105.897 71.1254 105.294 70.3342 105.386C66.7896 105.801 66.7958 110.091 68.1645 112.595C69.378 114.815 71.8895 116.119 74.4032 115.928C77.0439 115.728 79.294 114.178 80.2842 111.713C80.9391 110.082 81.2416 107.07 79.4996 105.974C79.4673 105.954 79.4139 105.959 79.3882 105.989C78.5529 106.958 78.5201 108.415 77.7889 109.494C77.1088 110.499 76.0522 111.328 74.8145 111.456C73.8901 111.552 72.9549 111.219 72.5933 110.391C72.3977 109.943 72.42 109.699 72.4935 109.391L72.5603 109.123C72.7918 108.184 72.8958 107.469 72.3656 106.549ZM71.4181 87.7371C69.5695 88.8587 66.7527 91.4741 68.7414 94.2547C71.0823 96.7065 74.4527 93.8954 76.1136 92.624C77.6536 91.6387 79.3839 94.1729 77.955 95.3234C65.9536 104.192 61.0832 88.0304 70.4831 86.4183C71.5181 86.2407 71.9024 87.3901 71.4181 87.7371ZM90.9398 80.046C89.8051 78.3467 87.215 78.5969 86.59 80.6134C86.2515 81.7057 86.7191 82.6875 86.6948 83.7783C86.6745 84.6998 86.735 85.7266 87.018 86.619C87.6633 88.654 89.4969 90.0913 91.6661 90.0317C93.8283 89.9723 95.7326 88.6064 96.6382 86.6825C97.5469 84.7514 97.3545 82.7527 96.6911 80.7891C96.6592 80.6947 96.5354 80.649 96.4607 80.7285C95.6765 81.5603 95.1024 82.4385 94.5084 83.37L93.8997 84.3247C93.4344 85.0437 92.7583 85.962 91.8897 85.9044L91.7593 85.8915C91.5179 85.8708 91.5549 85.9187 91.3687 85.5902C91.2825 85.4382 91.2982 85.1558 91.2566 84.9764L91.2421 84.9158L91.25 84.8832C91.2684 84.7963 91.2866 84.6326 91.3014 84.3486L91.3046 84.2858C91.3675 82.9573 91.7437 81.2499 90.9398 80.046ZM62.1769 81.1772C62.3803 79.0039 59.3192 78.5213 58.3016 80.1294C57.7708 80.968 57.6163 82.0215 57.4989 83.0195L57.444 83.4933C57.3236 84.5184 57.2758 85.5847 57.7216 86.5409C58.4237 88.0469 59.9506 88.843 61.5977 88.7169C63.1705 88.5962 64.6056 87.686 65.3621 86.3041C66.0365 85.0711 66.707 82.6637 65.8879 81.3776C65.8385 81.2996 65.7396 81.2896 65.6717 81.3497C64.8977 82.0357 64.7716 83.2868 64.3114 84.1804C63.8367 85.1021 63.1167 86.0004 62.0256 86.1404C60.9817 86.2743 60.5829 85.7052 60.8493 84.7119C61.1927 83.4295 62.0476 82.5571 62.1769 81.1772ZM90.113 67.125L89.6124 66.9336C87.8972 66.2869 85.5424 65.5394 84.148 66.9315C83.2877 67.7899 83.124 69.0545 83.7379 70.1021C84.4819 71.371 85.8163 71.4023 87.105 71.5892C88.5707 71.8018 90.0613 72.206 91.4259 72.7822C92.963 73.4315 94.3895 74.2408 95.7871 75.1447C97.1155 76.0036 98.4391 77.4074 100.029 77.6721C100.094 77.6828 100.168 77.655 100.185 77.5839C100.546 76.0322 99.5423 74.5052 98.6467 73.2946C97.5632 71.829 96.2503 70.626 94.7829 69.5474C93.3667 68.5062 91.7485 67.7538 90.113 67.125ZM58.9569 72.6418L58.804 72.6151C57.7639 72.4423 56.8214 72.4821 56.0376 73.3043C55.4393 73.9316 55.2087 74.7446 55.4939 75.5739C55.757 76.339 56.3455 77.1163 57.1997 77.2766C60.0833 77.8181 63.2773 77.7287 66.1753 77.3186C67.5012 77.1309 68.8391 76.9013 70.1306 76.5391L70.7247 76.3672C71.8029 76.0598 73.0373 75.7386 73.8204 74.9471C74.102 74.6627 73.9397 74.2556 73.6028 74.1239C72.2363 73.5897 70.3633 73.8739 68.9062 73.8321C67.2111 73.7837 65.5134 73.6569 63.8264 73.4822C62.1778 73.3111 60.5827 72.9395 58.9569 72.6418Z" fill="black"/>
<path fill-rule="evenodd" clip-rule="evenodd" d="M49.5085 89.2254C52.4808 92.2909 57.4425 93.1706 61.3969 91.5266C71.5506 87.2921 66.5807 74.0844 58.7501 70.5375C57.7718 70.2942 56.4653 69.7167 55.2738 69.5858C55.1661 69.533 54.9315 69.6857 54.6473 69.5413C46.0127 70.5036 44.0464 83.8828 49.5085 89.2254ZM82.2585 90.0101C85.5921 94.4235 91.7896 95.785 96.8533 93.7334C106.857 89.8011 103.309 78.0892 96.4645 73.4977C82.0069 68.0751 76.0367 81.8727 82.2585 90.0101ZM103.944 80.2313C103.953 80.2269 103.962 80.2247 103.972 80.2203C103.919 80.1971 103.866 80.1739 103.813 80.1502C103.831 80.1949 103.849 80.2391 103.866 80.2838C103.892 80.266 103.915 80.2452 103.944 80.2313ZM42.6265 75.4607C43.4427 75.4624 44.6217 75.5963 45.2973 76.1615C46.9635 70.5527 53.1136 65.3618 58.4622 69.1469C62.6741 70.4989 65.7996 73.4975 67.5759 77.484C70.7787 75.5823 75.8149 76.3944 78.5923 78.9091C80.4112 72.9098 84.8878 70.809 90.216 70.4989C96.0317 69.5481 101.828 75.1857 103.637 79.7084C105.141 79.5375 107.388 79.0598 108.803 79.9862C117.985 77.5827 134.038 76.2575 135.905 77.5929C137.235 78.1024 137.965 81.2366 136.107 81.4057C134.488 81.1762 136.296 79.1092 134.664 78.8836C125.967 78.3456 117.525 80.0937 108.921 80.8273C108.153 81.8587 105.671 82.2038 104.346 81.7893C106.432 89.4612 101.93 94.6808 95.1842 96.2442C84.7389 98.6391 75.6514 89.3124 78.3827 79.6113C75.2186 78.0401 71.579 78.1076 68.1321 78.9352C73.8919 100.094 39.7517 99.145 45.0839 76.8865C41.5354 78.6483 40.7647 75.8162 42.6265 75.4607Z" fill="black"/>
</svg>
