<svg width="606" height="313" viewBox="0 0 606 313" fill="none" xmlns="http://www.w3.org/2000/svg">
<g clip-path="url(#clip0_1_172)">
<path d="M365.407 194.433H422.803V265.071H365.407V194.433Z" fill="#FDEA6B"/>
<path fill-rule="evenodd" clip-rule="evenodd" d="M439.543 125.342C433.356 120.633 417.824 118.516 411.22 123.05C404.698 127.602 403.987 134.965 400.948 141.737C398.081 140.386 393.345 142.321 392.514 144.981C391.483 146.235 391.436 149.758 390.725 151.444C359.786 156.366 355.089 180.473 351.365 207.841C346.438 235.613 335.255 263.323 340.11 291.901C339.477 292.816 338.979 293.705 338.517 294.761C337.412 296.64 338.836 299.3 341.065 299.197C343.95 298.944 346.806 298.598 349.705 298.49C357.74 298.211 365.783 298.244 373.821 298.347L374.917 298.361C415.429 298.865 455.938 299.858 496.451 300.121C497.92 300.124 498.64 298.806 498.444 297.507C498.048 294.89 497.682 292.273 497.299 289.655C506.881 292.185 517.068 292.821 526.624 289.921C527.292 289.241 525.066 289.609 524.713 289.506C533.507 283.501 530.881 270.849 530.102 261.737C525.258 230.513 523.55 195.966 504.835 169.322C496.739 158.449 484.869 149.84 471.23 147.903L470.851 147.851C466.863 147.32 462.418 147.149 458.931 144.981C455.01 141.852 453.338 136.07 449.213 136.016C447.85 135.998 445.997 137.721 444.002 138.89C443.854 136.317 442.466 134.146 442.16 132.152L442.135 131.981C441.816 129.655 442.253 127.563 439.543 125.342ZM373.052 208.666C381.747 202.629 404.207 205.662 404.722 206.001C405.854 206.745 406.341 206.811 406.954 207.777C407.558 207.857 408.162 207.94 408.766 208.026C409.977 208.421 409.079 209.91 407.681 209.379C408.522 213.004 406.046 215.583 405.061 219.167C404.741 220.331 405.049 222.424 405.061 223.613C404.965 225.129 403.288 226.92 403.567 228.441C404.561 233.849 409.954 239.124 407.681 244.369C406.174 247.331 401.644 248.841 398.632 249.848C392.391 252.242 381.517 249.758 377.891 244.369C375.957 241.494 373.717 234.243 372.563 231.994L372.308 228.426C371.678 219.557 371.117 210.01 373.052 208.666Z" fill="#EDB98A"/>
<path fill-rule="evenodd" clip-rule="evenodd" d="M449.534 136.032L447.046 137.558L432.595 144.698C429.793 145.482 428.392 146.421 428.392 147.516V158.668C428.392 160.16 425.763 163.542 420.505 168.814L415.647 163.974L415.756 163.341C416.218 160.61 416.449 158.784 416.449 157.861C416.449 156.869 411.697 153.103 402.192 146.563L398.034 142.65L398.477 141.303C395.913 141.424 393.132 143.002 392.514 144.981C391.483 146.235 391.436 149.758 390.725 151.444C359.786 156.366 355.089 180.473 351.365 207.841C346.438 235.613 335.255 263.323 340.11 291.901C339.477 292.816 338.979 293.705 338.517 294.761C337.412 296.64 338.836 299.3 341.065 299.197C343.95 298.944 346.806 298.598 349.705 298.49C357.74 298.211 365.783 298.244 373.821 298.347L374.917 298.361C415.429 298.865 455.938 299.858 496.451 300.121C497.92 300.124 498.64 298.806 498.444 297.507C498.048 294.89 497.682 292.273 497.299 289.655C506.881 292.185 517.068 292.821 526.624 289.921C527.292 289.241 525.066 289.61 524.713 289.506C533.507 283.501 530.881 270.849 530.102 261.737C525.258 230.513 523.55 195.966 504.835 169.322C496.739 158.449 484.869 149.84 471.23 147.903L470.851 147.851L470.47 147.802C466.582 147.307 462.308 147.08 458.931 144.981C455.113 141.934 453.428 136.373 449.534 136.032ZM414.907 201.486C416.324 201.486 419.227 203.686 423.615 208.086L424.002 208.264C429.307 210.727 432.821 212.863 434.545 214.673L434.606 214.738C436.348 216.605 439.796 221.57 444.951 229.632L452.417 234.044H455.242L457.253 248.624L452.417 259.034L441.463 255.346L423.615 250.645L413.374 240.261L407.597 238.323C408.298 240.346 408.552 242.36 407.681 244.369C406.174 247.331 401.644 248.841 398.632 249.848C392.391 252.242 381.517 249.758 377.891 244.369C375.957 241.494 373.717 234.243 372.563 231.994L372.233 227.359C371.637 218.807 371.194 209.956 373.052 208.666C381.747 202.629 404.207 205.662 404.722 206.001C405.854 206.745 406.341 206.811 406.954 207.777L407.271 207.819L405.488 205.403L406.119 205.067C410.623 202.68 413.552 201.486 414.907 201.486ZM407.681 209.379C408.486 212.85 406.251 215.361 405.195 218.714L407.895 213.548L407.895 209.446C407.825 209.428 407.753 209.406 407.681 209.379Z" fill="#9DDADB"/>
<path fill-rule="evenodd" clip-rule="evenodd" d="M450.727 135.493C450.127 134.962 449.239 135.629 449.62 136.347C450.478 137.96 451.357 139.488 452.507 140.914C453.205 141.778 453.952 142.596 454.709 143.404C452.766 145.084 451.099 147.17 449.526 149.125C447.513 151.625 445.611 154.231 443.352 156.519C441.124 158.775 438.66 160.352 435.682 161.404L435.08 161.613C432.088 162.663 428.89 164.081 427.204 166.912C426.871 167.47 427.541 168.16 428.104 167.812C431.034 165.998 434.478 165.633 437.668 164.435C440.75 163.278 443.436 161.496 445.809 159.222C448.179 156.952 450.169 154.37 452.244 151.842C454.296 149.342 456.506 147.207 458.933 145.092C462.679 147.611 466.955 148.707 471.303 149.783L471.777 149.901C476.13 150.978 480.46 152.229 484.544 154.104C488.145 155.758 491.686 157.732 494.619 160.423C497.732 163.279 500.156 166.926 502.374 170.493C507.335 178.472 510.822 187.214 513.893 196.063C517.087 205.266 519.758 214.654 521.914 224.153C523.011 228.985 523.902 233.851 524.634 238.752C524.987 241.112 525.3 243.477 525.574 245.847C525.868 248.379 525.935 250.983 526.712 253.416C527.045 254.459 527.832 254.892 528.619 254.855L528.779 256.854C528.991 259.519 529.189 262.184 529.256 264.865C529.366 269.324 529.316 273.769 528.995 278.218L528.95 278.824C528.698 282.071 528.134 285.719 525.691 288.097C523.161 290.559 519.271 291.333 515.861 291.378C507.919 291.481 500.274 287.731 493.246 284.441C486.008 281.052 478.968 277.291 472.097 273.212C468.597 271.135 465.136 268.989 461.718 266.779C460.041 265.695 458.376 264.592 456.723 263.472C455.777 262.83 454.88 262.127 453.916 261.557C454.388 261.118 454.599 260.427 454.203 259.824C456.989 257.407 458.149 253.094 458.284 249.605C458.394 246.788 457.979 243.979 457.652 241.189C457.486 239.782 457.282 238.378 457.071 236.977C456.987 236.424 456.923 235.832 456.825 235.248C464.348 239.379 472.081 243.058 480.019 246.327C484.088 248.002 488.209 249.509 492.386 250.889L493.233 251.168C497.192 252.463 501.245 253.686 505.337 254.426C505.556 254.466 505.734 254.143 505.5 254.04C501.512 252.281 497.386 250.798 493.338 249.178L492.673 248.908C492.749 248.903 492.828 248.893 492.911 248.873C495.285 248.3 497.64 247.418 499.969 246.675C502.13 245.985 504.558 245.552 506.578 244.511C506.733 244.431 506.646 244.215 506.495 244.205C504.224 244.048 501.76 244.709 499.534 245.098L498.698 245.244C497.297 245.491 495.865 245.756 494.471 246.103C494.421 245.636 494.16 245.167 493.789 244.892C489.704 241.869 490.119 235.763 489.682 231.261L489.358 227.918C488.788 222.068 488.185 216.218 487.27 210.412C487.221 210.102 486.741 210.191 486.739 210.483C486.692 217.681 487.235 224.846 487.508 232.032L487.55 233.211C487.701 237.646 487.819 242.25 490.613 245.662C490.222 245.434 489.694 245.434 489.377 245.81C488.988 246.273 488.764 246.792 488.771 247.302C486.246 246.244 483.732 245.158 481.23 244.051C473.186 240.489 465.311 236.504 457.644 232.191C456.819 231.727 456.035 232.092 455.627 232.704L455.568 232.695C455.558 232.694 455.548 232.693 455.538 232.693L455.48 232.69C455.477 232.69 455.475 232.691 455.473 232.691C454.394 232.098 452.924 232.52 451.997 233.384C451.97 233.411 451.947 233.439 451.923 233.466C450.75 232.94 449.655 232.23 448.662 231.33C446.629 229.488 444.906 227.211 443.405 224.928C440.64 220.722 438.292 216.045 434.557 212.583C431.523 209.77 427.761 208.019 423.814 206.92C423.83 206.805 423.786 206.682 423.707 206.6C423.504 206.392 423.359 206.321 423.097 206.447C423.076 206.457 423.064 206.471 423.055 206.486L422.67 205.828C422.46 205.471 422.244 205.112 422.169 205.018C421.721 204.454 421.26 203.894 420.792 203.346C419.998 202.419 419.094 201.503 418.046 200.86C415.753 199.452 413.342 200.249 410.984 201.018C409.56 201.484 408.14 201.964 406.718 202.436L406.571 202.484C405.51 202.824 404.27 203.122 403.795 204.245C403.608 204.689 403.579 205.151 403.666 205.598C393.594 203.038 382.408 204.214 372.58 207.219C372.203 207.334 371.826 207.644 371.746 208.052C370.62 213.823 370.119 219.742 370.628 225.612C371.068 230.679 372.191 235.644 374.308 240.283L374.429 240.545C376.418 244.844 379.571 250.144 384.387 251.491C387.294 252.305 390.51 251.825 393.476 251.676C396.358 251.531 399.304 251.51 402.158 251.057C404.701 250.654 406.929 249.515 408.5 247.449C409.855 245.666 410.569 243.512 411.154 241.369C411.422 241.454 411.687 241.545 411.949 241.647C413.054 242.078 413.99 242.774 414.836 243.593C416.623 245.322 418.009 247.423 419.878 249.073C421.57 250.567 423.499 251.729 425.567 252.622C429.853 254.473 434.452 255.212 438.985 256.193L439.302 256.262C442.715 257.011 446.199 257.93 449.211 259.706C449.27 260.228 449.509 260.72 449.891 261.042C449.359 261.541 449.134 262.331 449.601 263.072C450.905 265.141 453.152 266.318 455.169 267.641L455.3 267.727C457.284 269.042 459.285 270.33 461.303 271.592C465.405 274.159 469.592 276.584 473.839 278.903C480.669 282.632 487.646 286.149 494.749 289.34C494.322 291.436 494.478 293.598 494.158 295.708L494.109 296.009C493.972 296.792 494.157 297.447 494.696 297.959L494.753 298.011L494.752 298.004L494.803 298.051L494.82 298.065L494.814 298.061C494.877 298.117 494.941 298.17 495.006 298.216L495.089 298.269C495.609 298.585 496.279 298.582 496.811 298.303L496.872 298.269L496.974 298.211C497.677 297.807 498.162 296.805 497.871 296.009C497.153 294.053 496.883 291.966 496.22 289.997L496.746 290.232L497.438 290.533C504.927 293.77 513.245 296.495 521.404 294.289C525.009 293.314 528.379 291.251 530.183 287.889C531.958 284.581 532.209 280.74 532.303 277.061C532.419 272.519 532.176 267.908 531.576 263.405C531.174 260.383 530.687 257.303 529.937 254.312C530.323 253.972 530.607 253.484 530.682 252.879C531.036 250.022 530.416 247.052 530.037 244.21C529.666 241.435 529.256 238.666 528.793 235.905C527.858 230.329 526.772 224.765 525.507 219.255C523.255 209.448 520.283 199.816 516.703 190.413L516.39 189.594C513.083 181 509.253 172.589 503.921 165.04C501.37 161.428 498.674 158.153 495.07 155.55C491.693 153.111 487.885 151.355 483.954 150.013C480.019 148.67 475.975 147.77 471.859 147.21C467.68 146.642 463.268 146.293 459.368 144.579C459.862 143.696 459.438 142.503 458.608 141.955C455.815 140.11 453.231 137.71 450.727 135.493ZM361.299 215.705C361.182 215.527 360.904 215.64 360.955 215.85C362.314 221.413 363.589 226.987 364.422 232.657C365.926 242.889 365.649 253.255 365.526 263.563L365.52 264.096C365.457 269.649 365.369 275.201 365.185 280.752C365.093 283.557 364.909 286.389 365.009 289.196C365.063 290.718 365.469 292.158 365.613 293.662C365.739 294.978 365.627 296.313 365.564 297.63C365.522 298.506 366.815 298.469 366.903 297.63L367.016 296.546C367.162 295.174 367.342 293.81 367.792 292.496C368.334 290.916 368.593 289.365 368.781 287.706C369.069 285.164 369.196 282.597 369.307 280.037L369.383 278.267C369.847 267.57 369.83 256.823 369.08 246.137L369.025 245.374C368.282 235.273 366.993 224.359 361.299 215.705ZM390.261 152.044C390.616 151.898 390.492 151.362 390.099 151.455L389.384 151.626C384.147 152.879 379.005 154.238 374.117 156.57C369.226 158.904 365.085 162.389 361.794 166.674C355.398 175.003 352.74 185.125 350.642 195.238C348.31 206.475 346.187 217.753 343.835 228.987L343.398 231.08C341.221 241.542 339.166 252.011 337.652 262.598L337.543 263.366C336.016 274.252 335.098 285.516 336.764 296.431C337.094 298.59 340.689 298.053 340.549 295.919C340.143 289.751 339.852 283.616 340.133 277.434C340.414 271.252 340.994 265.096 341.859 258.967C342.587 253.809 343.672 248.716 344.632 243.599L344.783 242.791C345.587 238.439 346.416 234.092 347.243 229.744L348.479 223.234C350.331 213.487 352.22 203.731 354.354 194.045L354.481 193.475C356.569 184.156 359.649 174.395 365.913 166.995C372.271 159.485 381.371 155.703 390.261 152.044ZM413.362 250.886C413.209 250.546 412.674 250.583 412.509 250.886C411.865 252.074 411.794 253.591 411.672 254.932L411.659 255.07C411.504 256.706 411.367 258.348 411.283 259.99C411.124 263.106 411.048 266.218 411.057 269.338C411.067 272.535 411.132 275.728 411.304 278.921L411.351 279.776C411.509 282.551 411.773 285.645 413.092 288.07C413.571 288.952 414.875 288.693 415.153 287.801C416.063 284.882 415.595 281.42 415.362 278.43L415.181 276.096C415.001 273.763 414.83 271.428 414.695 269.092C414.509 265.895 414.355 262.696 414.208 259.498C414.16 258.459 414.108 257.42 414.053 256.382L413.969 254.824C413.897 253.521 413.903 252.091 413.362 250.886ZM515.659 255.024L515.256 254.636C514.019 253.426 512.457 251.564 510.629 251.68C509.9 251.726 509.436 252.33 509.587 253.047C509.91 254.579 511.474 255.374 512.599 256.309C513.832 257.334 514.995 258.428 516.154 259.534C517.184 260.514 518.173 261.522 519.139 262.561L519.5 262.953C519.846 263.33 522.312 265.559 522.045 266.137L522.031 266.163C521.957 266.274 522.08 266.426 522.203 266.387C523.268 266.051 523.202 265.139 522.799 264.215C522.026 262.44 520.671 260.797 519.488 259.281C518.309 257.769 517.032 256.36 515.659 255.024ZM409.503 210.499C410.327 208.554 413.36 208.595 415.082 208.712C419.418 209.004 424.109 210.101 427.967 212.126C431.967 214.226 434.661 217.591 437.072 221.311L437.185 221.486C439.535 225.136 441.798 229.457 445.477 231.967C447.351 233.246 449.539 234.413 451.813 234.919C451.969 235.194 452.222 235.411 452.554 235.49L452.708 235.525C453.355 235.668 454.361 235.826 455.23 235.731C455.225 236.156 455.229 236.578 455.218 236.98C455.188 238.134 455.175 239.292 455.175 240.447C455.174 242.865 455.304 245.288 455.203 247.706C455.114 249.845 454.812 252.08 453.784 253.992C453.03 255.395 452.036 256.323 450.835 257.209C447.881 255.41 444.54 254.314 441.15 253.489C437.05 252.492 432.853 251.826 428.846 250.474C426.917 249.823 425.063 248.971 423.384 247.814C421.601 246.586 420.239 244.923 418.838 243.297L418.619 243.045C417.189 241.406 415.629 239.838 413.608 238.949C411.868 238.184 409.575 238.047 408.053 236.863C407.257 236.243 407.191 235.344 407.107 234.423C408.082 234.563 409.113 234.339 410.084 234.226L410.588 234.167C411.506 234.058 412.403 233.938 413.307 233.704C413.475 233.661 413.475 233.408 413.307 233.364C412.239 233.089 411.18 232.971 410.084 232.843L409.827 232.811C408.836 232.681 407.794 232.485 406.822 232.703C406.648 232.04 406.396 231.406 406.042 230.772C405.546 229.881 404.608 228.871 404.481 227.83C404.443 227.519 404.515 227.153 404.662 226.878L404.713 226.784C404.774 226.674 404.847 226.562 404.954 226.494C404.966 226.507 404.991 226.523 405.045 226.54C405.793 226.776 406.446 226.41 406.793 225.845C408.263 226.028 409.868 225.966 411.247 226.027L412.641 226.095C414.131 226.163 415.688 226.193 417.088 225.892C417.284 225.85 417.343 225.525 417.147 225.441C415.426 224.706 413.338 224.471 411.496 224.188C410.467 224.03 409.43 223.91 408.398 223.771C407.711 223.679 406.981 223.525 406.269 223.489C404.484 221.268 405.446 217.764 407.93 216.807C408.835 217.205 409.649 216.974 410.638 216.889C411.625 216.804 412.615 216.747 413.606 216.751C415.591 216.76 417.696 217.282 419.662 217.057C419.982 217.02 420.279 216.595 419.961 216.335C418.456 215.108 416.299 214.707 414.388 214.446L413.992 214.393C413.351 214.309 412.572 214.186 411.764 214.114C411.581 213.757 411.254 213.488 410.761 213.421C410.615 213.401 410.468 213.389 410.321 213.377L410.323 213.362C409.122 213.305 409.174 211.277 409.503 210.499ZM491.73 248.43C491.751 248.462 491.774 248.494 491.799 248.523L491.837 248.568L491.639 248.487L491.73 248.43ZM388.545 206.154C393.6 205.611 398.663 205.725 403.733 205.871C404.139 207.197 405.55 208.326 406.918 208.369C405.847 209.998 405.736 212.204 406.487 213.932C404.892 214.566 403.518 215.706 402.684 217.329C401.528 219.579 401.679 222.083 402.822 224.163C401.846 225.045 401.271 226.479 401.328 227.83C401.393 229.337 402.291 230.624 403.038 231.871C403.845 233.22 403.872 234.408 404.12 235.919C404.482 238.13 405.975 239.472 407.895 240.309L407.793 240.711C407.298 242.636 406.682 244.668 405.267 246.077C403.447 247.888 400.623 247.871 398.218 247.986L398.102 247.992C395.9 248.102 393.699 248.231 391.498 248.355L389.847 248.448C387.313 248.587 384.879 248.604 382.81 246.929C379.432 244.196 377.116 239.672 375.651 235.668C372.574 227.262 372.537 218.038 373.95 209.284C378.685 207.758 383.599 206.685 388.545 206.154ZM430.586 220.099L430.549 220.101C429.508 220.22 428.793 221.062 428.538 222.062C428.168 223.514 428.35 224.827 427.46 226.138C426.544 227.486 425.981 228.566 425.848 230.231C425.794 230.916 425.819 231.6 425.666 232.271L425.555 232.741C425.438 233.242 425.342 233.725 425.4 234.263C425.454 234.753 425.693 235.136 426.185 235.293C427.79 235.806 429.029 234.624 429.444 233.13C429.802 231.838 429.324 230.3 429.829 229.088C430.109 228.416 430.625 227.853 430.917 227.177C431.206 226.506 431.351 225.806 431.397 225.077C431.485 223.698 430.265 222.042 430.946 220.792C431.091 220.526 430.927 220.091 430.586 220.099ZM451.904 205.871C450.817 205.651 449.584 205.145 448.512 205.565C447.961 205.782 447.689 206.453 448.155 206.92C448.963 207.729 450.137 207.774 451.226 207.965L451.321 207.982C452.608 208.22 453.898 208.446 455.189 208.66C457.618 209.062 460.052 209.417 462.496 209.72C465.005 210.03 467.521 210.306 470.041 210.514L471.017 210.594C473.145 210.764 475.36 210.893 477.449 210.567C477.752 210.519 477.703 210.078 477.449 210C475.161 209.308 472.651 209.123 470.285 208.83C467.77 208.518 465.26 208.189 462.756 207.798C460.256 207.408 457.759 206.989 455.271 206.526C454.147 206.317 453.024 206.099 451.904 205.871ZM412.69 203.649C413.644 203.312 414.693 202.812 415.726 202.979C417.509 203.268 419.095 205.003 420.505 206.146L419.797 206.008C416.173 205.312 411.374 204.562 408.331 206.865C408.324 206.851 408.318 206.838 408.309 206.825C408.063 206.452 407.779 206.161 407.468 205.842C407.439 205.814 407.41 205.786 407.382 205.756L407.214 205.578L407.597 205.445C408.418 205.155 409.39 204.781 409.544 204.726L409.555 204.722C410.601 204.368 411.649 204.018 412.69 203.649ZM442.466 127.732C442.616 125.815 439.63 125.831 439.482 127.732C439.16 131.883 440.094 135.994 442.106 139.633C442.121 139.66 442.137 139.683 442.153 139.708C440.894 140.362 439.622 140.99 438.321 141.551C436.657 142.269 434.962 142.923 433.236 143.478C431.675 143.979 429.752 144.178 428.44 145.222C425.672 147.424 426.712 151.995 427.244 154.957L427.327 155.425C427.593 156.95 427.784 158.514 427.141 159.977C426.454 161.54 425.066 162.699 423.827 163.817L423.577 164.044C422.479 165.043 421.225 166.257 420.42 167.612C419.685 166.093 418.683 164.853 417.624 163.456C416.868 162.459 417.406 162.13 417.949 161.156C418.472 160.219 418.727 159.22 418.563 158.15C418.262 156.175 416.683 154.749 415.111 153.677C413.254 152.412 411.182 151.474 409.263 150.297C405.319 147.879 401.479 145.114 398.019 142.043C397.923 141.959 397.758 142.07 397.834 142.186C400.568 146.341 403.773 149.931 407.711 152.978C409.308 154.214 410.986 155.239 412.675 156.316L413.161 156.628C413.839 157.067 414.685 157.654 414.991 158.401C415.3 159.153 414.642 159.72 414.288 160.343C413.163 162.321 413.706 164.166 415.039 165.843L415.101 165.92C416.426 167.552 417.43 169.069 417.91 171.154C418.942 175.632 417.505 180.296 416 184.5L415.941 184.666C415.127 186.932 414.262 189.181 413.555 191.483L413.361 192.12C412.72 194.238 412.195 196.327 412.914 198.505C413.158 199.246 414.169 199.421 414.589 198.724C416.07 196.265 416.439 193.307 417.368 190.604C418.272 187.97 419.311 185.384 420.185 182.739C421.311 179.333 422.064 175.668 421.655 172.096C421.667 172.075 421.68 172.055 421.69 172.033L421.977 171.407C422.758 169.711 423.512 168.23 424.933 166.879C426.415 165.469 428.023 164.221 429.189 162.514C431.722 158.806 430.155 154.682 429.85 150.628L429.815 150.131C429.759 149.289 429.729 148.145 430.279 147.563C430.897 146.907 432.349 146.74 433.17 146.449C435.292 145.699 437.383 144.824 439.374 143.774C441.27 142.775 443.107 141.671 444.816 140.377L445.683 139.726C447.05 138.695 448.468 137.569 449.385 136.165C449.491 136.003 449.311 135.743 449.119 135.82C447.589 136.441 446.192 137.427 444.76 138.286C444.738 138.234 444.712 138.181 444.683 138.128C442.912 134.925 442.183 131.376 442.466 127.732ZM393.596 149.679C392.987 148.008 390.209 148.137 390.319 150.122C390.404 151.647 391.052 153.024 391.645 154.408L391.708 154.556C392.319 155.999 393.026 157.353 393.871 158.675C395.486 161.203 397.377 163.549 399.398 165.762C401.229 167.769 403.633 168.996 406.404 168.792C407.571 168.706 408.749 168.41 409.772 167.827C410.987 167.135 412.306 165.056 413.856 165.559C414.006 165.608 414.146 165.388 414.016 165.284C412.227 163.844 410.196 166.077 408.483 166.615C405.902 167.426 403.253 166.53 401.591 164.444C399.856 162.267 398.26 159.828 396.802 157.458C396.062 156.254 395.386 155.004 394.803 153.717C394.214 152.417 394.08 151.004 393.596 149.679ZM397.757 139.398C397.832 139.168 397.546 138.948 397.343 139.08C396.167 139.845 395.148 140.856 394.064 141.742C392.861 142.724 391.648 143.687 390.418 144.635C388.623 146.018 390.704 148.563 392.284 147.053C394.445 144.987 396.813 142.286 397.757 139.398ZM404.212 131.313C403.735 129.472 400.91 130.231 401.321 132.05L401.335 132.106C402.115 135.111 401.004 138.17 398.633 140.118L398.546 140.189C397.046 141.389 399.171 143.486 400.656 142.298C403.898 139.704 405.247 135.3 404.212 131.313Z" fill="black"/>
<path fill-rule="evenodd" clip-rule="evenodd" d="M443.433 24.4357L441.273 27.0086C442.469 27.8528 443.598 28.7011 444.66 29.5534L444.661 29.5508C439.742 26.336 434.293 24.4357 428.407 24.4357C417.07 24.4357 394.042 34.189 388.836 41.224C386.253 44.7153 381.452 55.4331 378.962 67.0853C376.961 76.4477 373.985 102.898 376.961 112.837C380.77 125.556 393.3 137.313 406.221 137.313C419.142 137.313 439.201 127.971 453.478 107.498C454.131 106.562 461.628 105.476 466.976 101.963L465.571 117.455L464.504 126.467L464.74 127.108C468.57 137.483 471.605 142.895 473.845 143.346C476.131 143.805 480.787 140.052 487.811 132.087L488.709 128.314C490.989 118.689 492.129 113.522 492.129 112.814L492.127 112.685C492.094 111.056 491.533 101.836 491.522 99.3548L491.522 62.1661C483.967 37.0125 476.757 24.4357 469.893 24.4357H443.433Z" fill="#EDB98A"/>
<path fill-rule="evenodd" clip-rule="evenodd" d="M461.334 15.8694C459.113 15.0077 456.54 15.1705 454.431 16.468C450.292 16.2902 446.175 18.7149 444.017 22.2543C443.972 22.3044 443.924 22.3545 443.881 22.4046L443.424 22.9385C442.991 23.4484 442.534 24.0104 442.172 24.5907C443.945 24.6312 445.422 25.3549 446.453 26.8165C447.188 27.8594 445.503 28.8504 444.751 27.864L444.725 27.828C444.106 26.9505 443.172 26.6106 442.131 26.5928C441.833 26.5878 441.606 26.4733 441.446 26.3045C441.382 26.5372 441.325 26.7724 441.273 27.0086C436.035 24.9684 430.389 24.4281 424.765 24.912C425.012 25.3118 425.218 25.7401 425.376 26.1903C425.556 26.7005 425.173 27.2864 424.678 27.4227C424.142 27.57 423.659 27.2558 423.465 26.7703L423.447 26.7228C423.231 26.1096 422.878 25.5833 422.404 25.1753C419.757 25.5347 417.128 26.1064 414.564 26.8433C411.482 27.7298 408.429 28.8116 405.443 30.0503C405.949 30.249 406.386 30.5846 406.692 31.145C407.302 32.2634 405.623 33.2653 404.986 32.196L404.964 32.1564C404.901 32.0418 404.846 31.9728 404.805 31.9336L404.791 31.9202L404.703 31.8796L404.539 31.8325L404.476 31.8171C404.42 31.8045 404.397 31.8053 404.251 31.7972C404.056 31.7862 403.862 31.7872 403.667 31.787C403.209 31.7867 402.916 31.531 402.784 31.2038C401.31 31.8699 399.856 32.5712 398.427 33.3059L398.087 33.482C393.677 35.79 389.498 38.8208 387.075 43.2804C386.914 43.5785 386.864 43.9041 386.904 44.2147C386.387 44.8359 385.887 45.4772 385.406 46.1285C383.941 48.1224 382.868 50.3893 381.852 52.6362C379.809 57.155 378.433 61.7966 377.36 66.636C376.322 71.3001 375.485 76.0143 374.706 80.7286C373.844 85.9663 373.126 91.2491 372.976 96.562C372.711 106.033 374.559 115.559 379.869 123.532C384.606 130.646 391.739 136.295 400.198 138.103C408.801 139.942 417.905 138.148 424.686 132.407C425.779 131.483 425.629 129.617 424.686 128.67C423.618 127.603 422.042 127.75 420.954 128.67C414.569 134.078 405.275 134.912 397.581 132.157C390.468 129.607 384.896 123.725 381.477 117.12C377.305 109.064 376.602 99.8108 377.243 90.8984C377.593 86.0039 378.321 81.1494 379.071 76.3024L379.524 73.3848C380.018 70.2246 380.537 67.0688 381.214 63.9408L381.373 63.212C382.2 59.4399 383.169 55.5711 384.668 52.025C385.454 50.1639 386.399 48.3704 387.367 46.5994C387.554 46.2562 387.747 45.908 387.945 45.5574C388.21 45.65 388.513 45.6651 388.83 45.5649C391.564 44.7132 394.373 44.1421 397.231 43.9517C398.534 43.8645 399.838 43.851 401.141 43.9019C403.371 43.7719 405.663 43.9683 407.788 44.6531C407.996 44.4745 408.206 44.2997 408.417 44.1248C408.474 44.1203 408.531 44.1143 408.588 44.103C409.13 43.9963 409.511 43.6106 409.74 43.1234C409.752 43.0976 409.763 43.0718 409.773 43.046C410.045 42.8378 410.319 42.6329 410.596 42.4308C411.27 42.6058 411.861 42.044 412.02 41.4283C412.17 41.3268 412.323 41.2287 412.474 41.1292C412.593 41.1583 412.711 41.1823 412.826 41.1908C413.323 41.2266 413.802 41.1505 414.242 40.9133C414.799 40.6129 415.155 40.1285 415.393 39.5782C416.235 39.63 417.088 39.3562 417.841 38.8613C418.452 38.4597 418.92 37.9054 419.386 37.3521C425.058 34.8184 431.223 33.3225 437.404 32.9392C438.012 33.0564 438.617 33.196 439.214 33.3583C439.355 33.3969 439.556 33.4725 439.787 33.5632C438.409 33.3964 437.013 33.3798 435.598 33.584C428.881 34.5566 423.65 39.593 419.148 44.347C418.077 44.1303 416.995 45.5193 417.986 46.4391L425.714 53.6108C425.524 54.4129 426.442 55.2034 427.247 55.0108C428.596 54.6862 429.947 54.3706 431.3 54.0602C432.71 54.7438 434.484 54.6268 435.763 53.6359C435.823 53.5898 435.952 53.5162 436.065 53.443C436.17 53.5299 436.311 53.6171 436.367 53.6542C436.822 53.9558 437.376 54.0444 437.908 53.9598C438.455 53.8728 438.948 53.5951 439.373 53.2491C439.644 53.0288 440.275 52.1094 440.627 52.0416L440.661 52.0378C440.426 52.0445 441.18 52.7456 441.382 52.8907C441.854 53.2281 442.376 53.4054 442.964 53.3408C443.988 53.228 444.868 52.2934 445.369 51.4304L445.407 51.3642L445.422 51.3231L445.436 51.3676C445.438 51.3754 445.441 51.3838 445.444 51.3933C445.519 51.5964 445.755 51.8274 445.915 51.9694C446.371 52.3734 446.936 52.551 447.539 52.4456C448.05 52.3566 448.479 52.0476 448.824 51.6737L448.878 51.6142C448.98 51.4988 449.653 50.5937 449.547 50.3768L449.534 50.3585L449.568 50.3515C449.977 50.4522 450.32 50.3512 450.572 50.1401C451.976 49.832 453.362 49.473 454.704 49.0166C454.809 49.3122 454.911 49.6078 455.011 49.9058C454.279 50.3592 453.601 51.0055 452.978 51.4664C451.797 52.3381 450.617 53.2098 449.439 54.084L444.772 57.5322L444.238 57.3887C443.556 57.2053 442.971 57.603 442.72 58.2108L442.7 58.2634C442.6 58.5297 442.481 58.7759 442.34 59.0116C441.173 58.965 440.186 59.6824 439.866 60.7115C439.578 60.7049 439.287 60.716 438.989 60.7488C438.174 60.8384 437.625 61.4446 437.772 62.277L437.784 62.3341L437.803 62.4268C437.331 62.6277 436.988 63.0157 436.912 63.6024C436.786 63.793 436.684 64.0004 436.618 64.2313C436.277 65.4297 436.941 66.9111 437.294 68.0591L437.321 68.149C437.548 68.9035 437.782 69.6543 438.02 70.4048L438.611 72.2682C440.251 77.4614 441.85 82.9367 440.523 88.381C440.24 89.5333 441.711 90.0543 442.349 89.1525C443.895 86.9692 445.565 84.912 447.319 82.9371L447.404 82.9236C448.632 82.6764 449.109 81.8074 449.673 80.9217C450.005 81.0196 450.362 81.0427 450.708 80.976C451.207 80.8796 451.655 80.5938 452.008 80.2328C452.308 79.9267 452.582 79.1417 452.936 78.9471C453.379 78.7038 454.269 79.0515 454.797 78.9734C455.227 78.91 455.629 78.7622 456.018 78.5766C456.734 79.5538 457.208 80.7025 457.325 81.9409C457.37 82.4118 457.51 82.8101 457.713 83.1408C456.967 83.1132 456.22 83.1658 455.481 83.3036C452.75 83.8121 450.792 85.5004 449.691 88.0153C449.644 88.1255 449.787 88.2157 449.852 88.1105C451.485 85.5931 455.039 85.4653 457.62 86.352C460.361 87.2939 461.899 89.7111 462.447 92.469C463.047 95.4924 462.277 98.7513 460.634 101.326C459.871 102.524 458.83 103.616 457.448 104.057C455.804 104.58 454.286 103.643 452.603 104.127C451.457 104.455 450.952 105.565 451.16 106.674C451.242 107.11 451.395 107.491 451.6 107.821C450.995 109.024 450.435 110.261 449.722 111.398C448.621 113.154 447.29 114.607 445.84 116.073C444.342 117.586 442.816 119.068 441.213 120.471C439.677 121.816 437.916 122.773 436.306 124.006C435.175 124.87 434.615 126.082 435.173 127.47C435.633 128.617 437.184 129.594 438.439 129.075C440.843 128.084 442.946 126.395 444.862 124.657C446.638 123.044 448.184 121.115 449.352 119.021C450.453 117.047 451.265 114.805 451.95 112.645L452.035 112.375C452.358 111.348 452.698 110.194 452.918 109.029C454.236 109.75 456.024 109.855 457.435 109.66C459.714 109.347 461.792 108.197 463.363 106.521C464.095 105.742 464.742 104.852 465.3 103.888C465.25 104.475 465.219 105.043 465.187 105.56C463.881 106.992 463.357 109.059 463.821 110.945C462.728 112.071 462.422 113.762 462.992 115.201C461.797 116.389 461.842 118.279 462.359 119.996C460.945 121.578 460.811 124.043 461.915 125.828L461.948 125.957C460.834 127.824 461.085 130.238 462.481 131.887C461.528 133.74 461.675 136.232 464.059 136.951C464.927 137.212 465.769 136.989 466.399 136.502C465.824 139.367 465.567 142.276 466.334 145.154C466.639 146.297 467.755 147.131 468.928 147.131C469.908 147.131 470.621 146.637 471.113 145.911C471.056 147.356 471.143 148.809 471.451 150.274C471.636 151.159 472.456 151.85 473.326 152.063C473.012 152.418 472.887 152.93 473.188 153.464C474.464 155.726 477.547 154.788 477.755 152.621C478.625 151.97 479.03 150.902 479.198 149.747C479.442 148.063 479.53 146.407 479.807 144.745L479.913 144.844L479.967 144.891L479.985 145.012C480.143 145.833 480.606 146.409 481.207 146.752C481.076 148.185 481.318 149.645 482.226 150.733C482.83 151.458 483.861 151.744 484.744 151.587C484.799 151.589 484.856 151.589 484.915 151.581C486.915 151.315 488.072 149.415 487.546 147.671C488.351 146.683 488.69 145.429 488.452 144.189C490.01 143.156 489.979 140.886 489.439 139.063C491.073 137.771 491.687 135.357 490.866 133.439C492.339 131.607 492.544 129.055 491.543 126.97C493.163 125.637 493.154 123.064 491.547 121.701C492.403 120 492.919 117.962 492.064 116.405C492.667 115.738 492.998 114.788 492.928 113.869C492.826 112.521 491.935 111.589 490.83 110.968L490.753 110.546C490.493 110.578 490.217 110.506 489.973 110.271C489.732 110.039 489.483 109.852 489.226 109.698C488.935 109.694 488.685 109.564 488.509 109.364C488.027 109.201 487.509 109.128 486.935 109.122C485.694 109.108 485.65 107.25 486.805 107.129C486.987 106.945 487.238 106.829 487.511 106.829L487.724 106.83C488.223 106.835 488.726 106.866 489.189 107.064C489.489 107.193 489.721 107.387 489.891 107.625C489.923 107.984 490.118 108.342 490.54 108.638C491.028 108.979 491.696 109.019 492.218 108.71C492.949 108.277 492.956 107.602 492.872 106.867C492.688 105.261 493.61 103.749 493.39 102.105C493.293 101.378 493.051 100.751 492.658 100.244C493.488 98.999 493.635 97.3916 492.995 96.0247C494.328 94.5891 494.558 92.3763 493.708 90.6487C493.696 90.6068 493.687 90.564 493.673 90.5227C493.577 90.2291 493.445 89.9643 493.299 89.7111C494.045 88.4171 494.039 86.8292 493.281 85.5407C494.43 84.2001 494.466 82.0667 493.445 80.6224C493.439 80.5026 493.426 80.3829 493.416 80.2631C493.885 79.0445 493.772 77.6591 493.178 76.5258C493.39 76.0361 493.553 75.5089 493.658 74.9473C493.926 73.4994 493.788 72.0917 493.388 70.6789C493.323 70.456 493.251 70.2331 493.173 70.0101C493.16 69.0425 493.123 68.0791 493.075 67.1175C493.265 66.3034 493.296 65.4089 493.3 64.5784L493.301 64.0399C493.31 62.6694 493.406 60.6628 492.541 59.4978C493.096 58.2394 492.868 56.6538 491.941 55.6563C492.591 54.5354 492.728 53.159 492.074 51.9153C491.969 51.7151 491.847 51.5288 491.713 51.3524C491.767 50.2134 491.528 49.0389 490.922 47.9069C490.528 47.17 489.94 46.532 489.241 46.0215C489.253 45.8705 489.26 45.7197 489.258 45.5711C489.246 44.9083 489.099 44.2428 488.852 43.6218C489.295 42.8638 489.501 42.0094 489.241 41.0886C488.951 40.0466 488.188 39.1498 487.235 38.6439C487.159 37.6614 487.005 36.6848 486.786 35.7211C487.372 34.4153 486.906 32.692 485.582 31.9227C485.755 30.8792 485.599 29.7971 484.841 28.982C484.554 28.6731 484.215 28.4389 483.851 28.2836C484.026 27.2343 483.828 26.1427 483.103 25.2883C482.512 24.5907 481.635 24.1668 480.742 24.1045C480.399 22.2794 478.658 20.9147 476.821 21.0234C476.591 20.2199 476.043 19.5192 475.192 19.1641C474.974 19.0731 474.754 19.0133 474.535 18.9799C473.041 17.471 470.817 16.4482 468.892 15.9245C466.961 15.4012 465.004 15.3505 463.346 15.9589L463.225 16.0046L463.09 15.9871C462.504 15.922 461.919 15.8844 461.334 15.8694ZM476.008 139.545C476.524 139.384 477.099 139.736 477.239 140.245C477.386 140.783 477.058 141.316 476.54 141.477C475.895 141.679 475.218 141.729 474.545 141.729C474.005 141.73 473.545 141.269 473.545 140.728C473.545 140.184 474.003 139.726 474.545 139.726C475.092 139.725 475.496 139.705 476.008 139.545ZM480.596 128.904C481.367 128.905 482.028 129.09 482.6 129.631C482.981 129.992 482.991 130.689 482.6 131.048C482.205 131.41 481.633 131.432 481.228 131.086L481.15 131.016C481.14 131.008 481.133 131.001 481.127 130.995C481.095 130.974 481.062 130.953 481.028 130.935L481.093 130.977C481.142 131.013 481.027 130.955 480.963 130.927L480.942 130.919L480.936 130.917L480.884 130.913C480.788 130.908 480.692 130.908 480.596 130.908C480.073 130.908 479.571 130.448 479.595 129.906C479.62 129.364 480.035 128.904 480.596 128.904ZM466.045 122.547C464.962 121.882 465.929 120.181 467.015 120.794L467.055 120.817C467.611 121.159 468.296 121.113 468.927 121.113C470.214 121.114 470.217 123.118 468.927 123.117L468.714 123.116C467.789 123.109 466.854 123.045 466.045 122.547ZM474.567 115.233C475.386 115.079 476.302 114.942 477.163 115.036L477.306 115.053H477.571C477.801 115.053 478.024 115.146 478.203 115.292C478.486 115.41 478.754 115.567 478.998 115.78C479.973 116.626 478.553 118.038 477.584 117.197C477.53 117.15 477.467 117.111 477.398 117.08L477.344 117.057H476.274C476.177 117.057 476.082 117.037 475.99 117.008C475.642 117.056 475.319 117.124 475.099 117.166C473.841 117.403 473.302 115.472 474.567 115.233ZM475.481 96.0009C477.049 95.2725 478.786 95.2777 480.236 96.2892C481.274 97.0125 480.31 98.7183 479.264 98.0447L479.227 98.0196C479.097 97.9289 478.963 97.853 478.828 97.7841C478.092 97.9973 477.351 98.0073 476.639 97.7452L476.546 97.7095L476.491 97.731C475.33 98.2701 474.313 96.5434 475.481 96.0009ZM458.404 92.8611C459.989 92.6832 460.001 90.1768 458.404 90.3562C455.033 90.7349 451.973 92.2361 449.733 94.8141C448.69 96.0131 450.407 97.7673 451.469 96.6217L451.501 96.5854C453.283 94.5354 455.688 93.1662 458.404 92.8611ZM476.152 79.9929C476.504 79.9543 476.855 79.935 477.201 79.9518C478.032 79.9919 479.044 80.547 478.68 81.5499C478.387 82.3535 477.429 82.3853 476.956 81.9567C476.759 81.9615 476.562 81.9745 476.366 81.9945C475.844 82.0484 475.326 82.1481 474.811 82.2498C473.554 82.4975 473.015 80.5665 474.279 80.3173L474.839 80.2064C475.027 80.1695 475.217 80.1334 475.408 80.1003C475.522 80.0434 475.645 80.0051 475.776 79.9953L475.842 79.9929H476.152ZM486.092 64.4463L486.21 64.4303C487.899 64.2138 490.612 64.413 490.817 66.5669C490.93 67.7597 489.209 67.8346 488.869 66.8146C487.622 66.5894 486.364 66.5464 485.125 66.6831C484.652 66.2022 484.649 65.2776 485.435 65.0469C485.546 64.7478 485.778 64.4916 486.092 64.4463ZM447.474 60.8084C447.865 60.4494 448.505 60.4019 448.889 60.8084C449.111 61.0424 449.296 61.3024 449.442 61.5884L449.539 61.7816C449.556 61.8136 449.573 61.8455 449.59 61.877C449.623 61.9353 449.66 61.991 449.695 62.0476L449.72 62.0712C449.729 62.0809 449.74 62.0927 449.754 62.1069C450.114 62.4879 450.159 63.151 449.754 63.5239C449.363 63.8829 448.723 63.9305 448.339 63.5239C448.118 63.29 447.933 63.0302 447.786 62.7439L447.689 62.551C447.673 62.5189 447.656 62.4871 447.638 62.4556C447.606 62.397 447.569 62.3414 447.533 62.2848L447.493 62.245C447.487 62.239 447.481 62.2326 447.474 62.2254C447.115 61.8447 447.069 61.1814 447.474 60.8084ZM467.99 58.1991C469.399 57.1986 471.076 57.152 472.372 58.3556C473.307 59.2243 471.933 60.6163 470.99 59.8023L470.957 59.7726C470.922 59.7406 470.888 59.7125 470.853 59.6857C470.684 59.83 470.469 59.9214 470.224 59.9217C470.159 59.9218 470.095 59.9217 470.031 59.923L469.935 59.9264L469.884 59.9307L469.877 59.9319L469.832 59.9511C469.75 59.9883 469.636 60.0456 469.792 59.948C469.757 59.9663 469.725 59.9878 469.692 60.0088L469.634 60.0612C469.257 60.4184 468.605 60.4655 468.23 60.0705C467.567 59.846 467.215 58.7484 467.99 58.1991ZM454.208 54.9165L454.183 54.9084C452.947 54.5549 453.472 52.6209 454.715 52.9758C456.033 53.3528 456.662 54.5815 456.926 55.8399C457.037 56.3692 456.771 56.9231 456.227 57.0726C455.731 57.2091 455.108 56.9048 454.996 56.3727C454.918 55.9986 454.828 55.6812 454.685 55.3866L454.599 55.2185C454.558 55.1418 454.544 55.1291 454.408 55.0098C454.385 54.9898 454.281 54.9412 454.208 54.9165ZM475.144 44.8239L475.337 44.7798C476.541 44.5156 478.139 44.3776 478.867 45.5731C479.529 46.6623 477.857 47.6537 477.169 46.6242C477.158 46.6239 477.146 46.624 477.132 46.6251L477.11 46.6277L476.801 46.6026C476.417 46.5999 476.049 46.668 475.676 46.7565C474.424 47.0533 473.889 45.1215 475.144 44.8239ZM431.916 37.1204C431.004 36.2073 432.419 34.7898 433.331 35.7036C434.052 36.4258 434.747 37.1529 435.216 38.0705C435.462 38.5519 435.341 39.1576 434.857 39.4414C434.41 39.7032 433.735 39.5654 433.488 39.082C433.082 38.2867 432.569 37.7752 431.916 37.1204ZM443.419 34.7237C444.32 35.2577 444.903 36.1375 445.257 37.1557C445.435 37.6667 445.055 38.2516 444.558 38.3881C444.025 38.5349 443.537 38.2219 443.345 37.7358L443.328 37.6882C443.233 37.416 443.081 37.0943 442.894 36.8516C442.734 36.6444 442.485 36.437 442.297 36.3682C441.847 36.2023 441.527 35.793 441.569 35.3151C442.31 35.5719 442.999 35.263 443.419 34.7237ZM470.38 30.3652C471.289 29.5205 472.508 29.4086 473.61 29.9198C474.1 30.1473 474.223 30.8554 473.968 31.2907C473.674 31.7945 473.092 31.8786 472.6 31.6502C472.726 31.7088 472.498 31.6314 472.4 31.6031C472.387 31.609 472.222 31.6014 472.165 31.6022L472.096 31.6066C472.096 31.607 472.113 31.6067 472.147 31.6056C472.099 31.6165 472.051 31.6294 472.004 31.6444L471.945 31.665C471.975 31.6588 471.84 31.747 471.802 31.7763L471.795 31.7819C470.852 32.6584 469.434 31.2446 470.38 30.3652Z" fill="black"/>
<path fill-rule="evenodd" clip-rule="evenodd" d="M410.484 105.333C409.082 103.028 406.093 108.674 405.776 109.645C405.494 110.505 405.309 111.386 405.214 112.277C404.127 112.521 402.999 112.521 401.885 112.308C400.23 111.99 399.218 111.101 397.779 110.337C396.785 109.81 395.533 110.429 395.016 111.304C394.408 112.334 394.795 113.403 395.595 114.171C397.111 115.627 400.094 115.962 402.073 115.575C403.207 115.354 404.246 114.929 405.164 114.311C405.17 114.426 405.174 114.542 405.183 114.657L405.201 114.856C405.353 116.471 405.797 118.502 407.052 119.553C409.111 121.277 411.652 117.962 409.651 116.24L409.589 116.188C408.346 115.184 408.075 112.49 408.141 111.006C408.185 110.038 408.362 109.057 408.668 108.134L408.731 107.951C408.823 107.69 409.827 105.218 410.19 105.533L410.207 105.551C410.357 105.73 410.599 105.522 410.484 105.333ZM399.289 92.3259C397.397 93.4756 394.513 96.1567 396.549 99.007C398.946 101.52 402.396 98.6387 404.097 97.3354C405.673 96.3254 407.445 98.9231 405.982 100.102C393.695 109.194 388.708 92.6265 398.332 90.9741C399.392 90.792 399.785 91.9702 399.289 92.3259ZM419.5 81.6984C417.65 81.3705 415.755 81.8302 414.224 82.9118L414.108 82.9952C412.634 84.073 410.984 85.9655 411.83 87.8234C412.17 88.5693 413.187 88.6863 413.832 88.3482C414.907 87.7851 415.101 86.3996 416.06 85.6329C416.846 85.0044 417.905 84.6231 418.918 84.7151C421.296 84.931 422.76 87.2758 423.498 89.2965C423.593 89.555 423.973 89.6555 424.121 89.3779C425.863 86.1236 422.779 82.2801 419.5 81.6984ZM389.872 80.4703C386.328 80.1784 382.181 83.8496 383.114 87.5874C383.561 89.3809 386.223 89.3296 386.697 87.5874C386.957 86.6288 386.931 85.7806 387.621 84.9846C388.191 84.3273 389.001 83.9456 389.872 84.0042C390.831 84.0688 391.716 84.548 392.389 85.2215C392.996 85.8297 393.359 86.7197 393.988 87.258C394.143 87.3903 394.35 87.3988 394.503 87.258C395.586 86.2603 394.936 84.1833 394.249 83.1417C393.267 81.6513 391.667 80.6183 389.872 80.4703ZM426.247 75.0692C423.974 73.0582 419.844 71.1162 416.779 72.1059C415.016 72.6747 414.248 75.5125 416.215 76.412C418.493 77.4536 421.12 77.0297 423.439 78.1094C424.412 78.563 425.328 79.1298 426.006 79.9612C426.54 80.6165 427.084 81.4787 427.856 81.8564C428.059 81.9559 428.334 81.9584 428.497 81.774C430.19 79.8598 427.725 76.377 426.247 75.0692ZM393.778 72.0061C392.374 71.612 390.815 71.6201 389.388 71.8675C387.961 72.115 386.513 72.7059 385.348 73.5679L385.213 73.6688C383.942 74.6264 382.424 76.0196 382.506 77.716C382.573 79.1325 384.065 80.0906 385.352 79.3482C386.401 78.7427 386.895 77.5299 387.783 76.7223C388.517 76.0557 389.378 75.5302 390.297 75.162C391.317 74.7529 392.34 74.5613 393.435 74.543C394.278 74.529 395.127 74.8055 395.954 74.894C395.886 75.0337 396.54 74.9686 396.915 74.8446C397.193 74.7264 397.194 74.3754 397.098 74.1477C396.621 73.0198 394.884 72.3157 393.778 72.0061Z" fill="black"/>
</g>
<path fill-rule="evenodd" clip-rule="evenodd" d="M358.931 289.115C359.281 289.126 359.171 289.024 359.042 289C359.005 289.038 358.968 289.077 358.931 289.115ZM348.614 296.782C338.85 297.939 329.075 296.88 319.36 295.819C299.677 294.36 280.133 298.609 260.412 297.314C235.766 296.276 211.053 294.326 186.489 297.611C179.694 297.767 168.857 299.6 171.321 289.087C174.558 262.057 178.885 235.163 183.521 208.341C187.449 193.304 187.733 167.296 198.491 156.839C200.063 155.404 205.704 150.76 207.196 150.137C214.611 147.377 227.977 145.224 233.492 139.375C237.959 131.819 235.881 121.51 242.827 115.427C248.915 110.459 262.202 111.509 268.71 115.24C273.845 118.568 274.649 125.032 277.849 129.813C278.638 130.958 280.513 133.72 281.572 134.61C284.148 137.09 293.199 139.696 295.813 140.174C310.562 143.196 317.917 145.062 329.518 154.86C359.829 185.792 355.532 240.502 363.92 280.952C364.263 285.398 366.967 291.433 362.142 294.295C357.987 296.285 353.101 296.069 348.614 296.782Z" fill="#AE5D29"/>
<path fill-rule="evenodd" clip-rule="evenodd" d="M236.874 129.091C236.837 128.986 236.668 128.968 236.643 129.091C236.229 130.983 235.454 133.057 234.668 134.83C233.87 136.627 232.778 138.277 231.4 139.678C228.511 142.614 224.796 143.954 220.721 143.956L220.624 143.959C220.605 143.822 220.584 143.685 220.564 143.548L220.537 143.343C220.164 140.53 216.824 140.612 216.172 142.735C215.841 142.84 215.509 142.945 215.181 143.056L215.115 143.079C214.562 143.29 212.688 144.223 212.344 143.974C211.586 143.43 210.721 144.054 210.434 144.749C209.964 145.888 209.885 147.296 209.732 148.531L209.712 148.691L209.689 148.884C198.97 151.669 192.954 162.389 189.883 172.265C188.219 177.618 187.131 183.142 186.037 188.634C184.866 194.509 183.788 200.399 182.645 206.276C180.394 217.858 178.263 229.467 176.412 241.119L175.875 244.502C174.179 255.217 172.527 265.925 171.138 276.687C170.388 282.49 169.685 288.298 169.007 294.111C168.885 295.148 168.765 296.185 168.646 297.223L168.467 298.78C168.308 300.176 168.039 301.557 168.73 302.863C170.226 305.696 174.761 305.676 175.017 302.047C175.068 301.326 174.825 300.774 174.422 300.389L174.427 300.328C174.431 300.292 174.435 300.265 174.437 300.253C174.571 299.532 174.607 298.77 174.689 298.04C174.868 296.485 175.043 294.93 175.22 293.372C175.562 290.405 175.906 287.438 176.263 284.474C176.984 278.461 177.747 272.455 178.555 266.455L179.357 260.522C182.037 240.745 184.831 220.973 188.507 201.353C189.508 196.012 190.538 190.679 191.593 185.349C192.594 180.3 193.719 175.275 195.398 170.402C198.14 162.44 202.934 154.985 209.589 149.759C209.486 150.758 209.412 151.761 209.317 152.759C209.073 155.323 208.813 157.885 208.552 160.446C207.599 169.727 206.308 178.992 204.105 188.066C203.013 192.563 201.683 197.001 200.063 201.335C199.265 203.471 198.394 205.578 197.439 207.646C196.495 209.692 194.838 211.879 194.738 214.158C194.692 215.212 195.796 216.149 196.818 216.036C196.34 220.235 196.071 224.477 195.786 228.666C195.37 234.733 195.039 240.811 194.554 246.873C193.686 257.731 192.597 268.575 191.457 279.408C191.231 281.556 190.985 283.702 190.742 285.847L190.539 287.649C190.402 288.817 190.195 290.217 190.815 291.252C190.261 292.589 189.881 293.963 189.66 295.395C189.38 297.176 190.399 299.172 192.479 299.095C192.715 299.088 192.951 299.067 193.188 299.042C195.116 299.488 197.039 299.881 199.041 299.894C201.599 299.912 204.161 299.86 206.718 299.842C211.666 299.809 216.613 299.776 221.561 299.735C239.472 299.591 257.391 299.599 275.299 299.311L282.464 299.197C289.033 299.092 295.602 298.97 302.168 298.731C306.689 298.567 311.21 298.4 315.729 298.218L316.649 298.183C320.637 298.037 324.629 297.963 328.572 297.353C328.671 297.336 328.714 297.234 328.698 297.143L328.693 297.119L328.865 297.081C328.965 297.512 331.045 295.7 331.029 294.496C331.892 293.375 331.489 291.583 331.396 290.285C331.306 289.019 331.193 287.752 331.093 286.486C330.88 283.784 330.698 281.079 330.48 278.376C329.599 267.479 328.839 256.553 328.346 245.633C328.097 240.128 327.897 234.62 327.686 229.115C327.591 226.609 327.459 224.1 327.213 221.605L327.15 220.982C326.88 218.451 326.906 215.731 325.974 213.346C325.961 213.313 325.917 213.313 325.904 213.346C324.962 215.667 324.872 218.364 324.682 220.91C324.649 220.9 324.615 220.895 324.58 220.887C323.278 220.268 321.963 219.711 320.731 218.947C320.564 218.844 320.402 218.736 320.238 218.631C318.299 212.702 316.053 206.871 313.986 200.981C307.308 181.935 303.621 161.652 302.805 141.485C307.898 144.768 313.446 147.321 318.839 150.064L319.344 150.321C324.657 153.037 329.743 156.119 333.525 160.829C336.821 164.93 338.976 169.927 340.991 174.744C343.155 179.921 345.107 185.19 346.891 190.507C350.511 201.297 353.315 212.351 355.503 223.518C357.662 234.538 359.205 245.64 360.237 256.82C360.763 262.523 361.243 268.231 361.647 273.946C361.852 276.839 362.034 279.734 362.204 282.631C362.286 284.038 362.347 285.447 362.44 286.853C362.496 287.664 362.507 288.501 362.774 289.271C362.997 289.912 363.392 290.449 363.762 291.016C364.437 292.05 366.142 292.238 366.776 291.016L367.051 290.487C367.415 289.782 367.746 289.073 367.796 288.26C367.842 287.49 367.747 286.687 367.703 285.914C367.619 284.351 367.521 282.785 367.423 281.222C367.218 277.935 366.99 274.647 366.733 271.362C366.222 264.782 365.565 258.219 364.738 251.669C361.829 228.666 357.628 205.783 349.613 183.953C347.631 178.555 345.42 173.201 342.924 168.02C340.511 163.01 337.458 158.28 333.027 154.831C328.947 151.655 324.206 149.529 319.494 147.466L318.905 147.208C313.624 144.901 308.353 142.417 302.838 140.702C302.961 140.718 303.082 140.733 303.187 140.769C303.308 140.807 303.379 140.651 303.305 140.566C302.992 140.22 302.861 139.863 302.501 139.522C302.253 139.285 301.995 139.062 301.729 138.847L301.346 138.543C300.647 137.988 299.911 137.421 299.03 137.227C297.785 136.955 297.174 138.087 297.523 138.972C297.343 138.739 296.861 138.808 296.735 139.129C292.637 149.693 289.946 160.875 284.431 170.856C280.359 178.229 274.896 185.038 267.645 189.491C263.75 191.883 259.293 193.721 254.69 194.011C250.556 194.27 246.579 193.22 243.064 191.051C236.249 186.85 231.8 179.474 228.627 172.326C225.138 164.458 222.647 156.073 221.184 147.573C225.821 147.637 230.714 145.522 233.798 142.075C235.42 140.261 236.63 138.051 237.243 135.695C237.862 133.318 237.664 131.365 236.874 129.091ZM275.774 122.919C275.209 121.91 273.956 121.577 272.931 121.987C271.794 122.444 271.453 123.548 271.614 124.669C271.802 125.983 272.647 127.403 273.304 128.55C273.992 129.751 274.878 130.857 275.794 131.891C277.52 133.842 279.366 135.6 281.556 137.037C283.736 138.467 286.201 139.537 288.734 140.135L289.337 140.275C291.308 140.726 294.112 141.242 295.754 140.171C295.834 140.119 295.831 140.014 295.754 139.963C294.866 139.344 293.677 139.234 292.655 138.942C291.541 138.621 290.424 138.256 289.359 137.799C287.256 136.896 285.243 135.705 283.451 134.283C281.651 132.857 279.91 131.155 278.706 129.191C278.1 128.206 277.584 127.172 277.089 126.13C276.588 125.085 276.336 123.925 275.774 122.919Z" fill="black"/>
<path fill-rule="evenodd" clip-rule="evenodd" d="M208.366 76.2346C208.468 70.479 208.581 64.6084 209.434 58.9088C210.269 53.3367 212.566 48.3 216.513 44.2537C224.896 35.6589 237.048 33.5596 248.359 31.6358L267.698 28.3464C273.597 27.3431 279.892 25.7394 285.853 27.1623C288.79 27.8634 291.284 29.4923 293.564 31.4195C295.762 33.277 298.124 35.2717 299.613 37.7708C301.105 40.2735 301.618 43.1991 302.103 46.0296C302.65 49.2208 303.075 52.437 303.377 55.6608C303.982 62.1198 304.064 68.6274 303.625 75.0998C303.413 78.2391 303.075 81.3695 302.643 84.4859C302.429 86.0313 302.187 87.5728 301.913 89.109C301.833 89.5619 301.771 90.0634 301.689 90.5701C302.299 92.3084 302.646 94.1087 302.618 95.9012C302.535 101.181 298.087 104.506 293.603 106.291C291.003 107.326 288.285 108.029 285.73 109.185C283.042 110.401 281.213 112.372 279.376 114.621C275.871 118.91 271.916 122.765 267.401 125.981C257.826 132.8 245.7 136.025 234.083 133.577C231.296 132.99 228.484 132.078 225.979 130.704C223.333 129.253 221.344 127.15 219.674 124.665C216.573 120.05 214.348 114.854 212.666 109.566C210.95 104.172 209.731 98.7687 209.067 93.1444C208.405 87.5384 208.265 81.8753 208.366 76.2346Z" fill="#AE5D29"/>
<path fill-rule="evenodd" clip-rule="evenodd" d="M270.136 8.31663C262.144 7.21489 251.112 10.7957 247.132 18.0159C228.129 13.5263 204.162 13.3793 188.5 28.325C172.157 46.054 192.684 69.4297 206.296 74.6999C205.305 79.5265 206.85 110.447 217.783 124.24C226.46 135.926 246.667 141.319 256.017 127.361L256.09 127.246C257.092 125.634 256.229 125.686 255.201 126.885C246.045 134.954 233.596 135.092 224.003 126.576C206.024 111.011 207.878 72.8465 216.433 50.7678C240.794 48.0865 266.877 55.4861 283.703 73.8636L282.565 80.7281C282.371 81.8976 282.151 83.066 281.983 84.2396C281.875 84.9916 281.863 85.7394 282.383 86.3481C284.1 88.3576 286.993 85.338 289.373 84.137C290.076 84.0379 290.78 83.9997 291.47 84.0484C302.906 85.5246 300.653 107.757 288.084 103.86C287.028 103.201 286.12 103.402 285.711 104.359C282.715 107.109 280.739 112.014 275.762 116.738C274.006 118.51 272.408 119.992 270.432 121.414C269.272 122.59 265.771 123.789 266.881 125.801C268.979 130.38 281.356 115.997 283.544 112.019C290.4 114.732 297.998 113.811 305.103 113.148C342.586 111.195 337.582 71.5982 306.858 46.599C301.075 42.3322 294.694 38.8515 288.062 36.1729C287.156 35.8072 287.552 34.3172 288.47 34.6881C292.859 36.4606 297.137 38.5704 301.215 41.0123L301.222 39.5524C301.228 37.0935 301.189 34.5336 300.763 32.287C300.55 30.7302 300.192 29.0675 299.64 27.8166C298.958 23.9817 288.276 10.8183 270.136 8.31663ZM291.97 89.1526C291.392 88.6016 290.311 89.2586 289.796 89.2421C288.478 89.4228 287.227 89.9805 286.25 90.6688C285.606 91.0306 285.154 91.3704 284.777 91.683L284.766 91.6802C284.769 91.6802 284.773 91.683 284.776 91.6838L284.74 91.7078C284.191 92.0992 282.179 94.3035 283.45 93.7107C283.545 93.5872 283.642 93.4687 283.74 93.3524C283.75 93.3683 283.765 93.384 283.782 93.3991L283.711 93.5053C282.63 95.134 284.496 93.4181 284.783 92.9623C284.796 92.9734 284.811 92.9808 284.827 92.9888L284.453 93.4446C284.401 93.5093 284.36 93.561 284.325 93.6047L284.247 93.6809C282.997 94.9114 282.958 96.0188 284.41 94.1996C284.353 94.2853 284.307 94.3761 284.3 94.4567L284.214 94.5666C283.075 96.0381 284.002 95.5155 284.568 94.887L284.615 94.833L284.606 94.8476C284.079 95.6609 285.124 95.0903 285.309 94.6553L285.316 94.6356C285.518 94.471 285.642 94.2864 285.684 94.2397L285.692 94.2319C286.672 93.2259 288.092 92.3746 289.298 91.9879C289.473 91.9545 289.65 91.9278 289.829 91.9088C290.554 91.7466 291.288 91.6355 292.029 91.5755C292.12 91.5647 292.211 91.498 292.28 91.4117C293.401 91.3739 293.055 90.9135 292.59 90.828L292.582 90.8266L292.674 90.8188C293.393 90.7485 293.884 90.4899 293.157 90.3312L293.065 90.3128C293.076 90.2951 293.086 90.2774 293.096 90.2597C293.719 90.1912 293.312 89.5845 292.967 89.7313C293.112 89.2547 292.447 89.4926 292.364 89.4218C292.301 89.3515 292.222 89.2894 292.177 89.286C291.977 89.1443 292.074 89.1572 291.97 89.1526ZM288.16 81.4366L288.306 81.5221C288.424 81.5911 288.545 81.6371 288.667 81.664C288.495 81.7374 288.325 81.8167 288.157 81.9014C288.159 81.7979 288.161 81.6945 288.161 81.5913L288.16 81.4366Z" fill="black"/>
<path fill-rule="evenodd" clip-rule="evenodd" d="M242.476 101.616C241.039 99.254 237.978 105.039 237.652 106.034C237.364 106.915 237.174 107.818 237.078 108.731C235.964 108.981 234.808 108.981 233.667 108.763C231.971 108.437 230.934 107.526 229.461 106.744C228.443 106.203 227.16 106.837 226.63 107.734C226.008 108.789 226.404 109.885 227.223 110.672C228.776 112.164 231.832 112.506 233.86 112.11C235.021 111.883 236.086 111.448 237.026 110.815C237.032 110.933 237.036 111.051 237.045 111.169L237.063 111.374C237.219 113.029 237.674 115.109 238.96 116.186C241.069 117.953 243.672 114.556 241.623 112.791L241.559 112.738C240.285 111.709 240.007 108.949 240.076 107.429C240.121 106.437 240.302 105.432 240.615 104.486L240.68 104.298C240.774 104.031 241.803 101.499 242.174 101.821L242.192 101.84C242.345 102.022 242.593 101.809 242.476 101.616ZM231.008 88.2892C229.069 89.4672 226.115 92.2141 228.201 95.1346C230.656 97.7097 234.191 94.7572 235.932 93.4219C237.548 92.387 239.362 95.0486 237.864 96.257C225.277 105.572 220.169 88.5972 230.027 86.9041C231.113 86.7175 231.516 87.9247 231.008 88.2892ZM251.711 77.4004C249.816 77.0644 247.875 77.5354 246.307 78.6436L246.188 78.729C244.678 79.8333 242.988 81.7724 243.855 83.676C244.202 84.4403 245.244 84.5601 245.905 84.2136C247.006 83.6367 247.206 82.2172 248.188 81.4316C248.993 80.7876 250.078 80.397 251.115 80.4912C253.552 80.7124 255.051 83.1149 255.808 85.1853C255.904 85.4502 256.293 85.5531 256.445 85.2687C258.23 81.9343 255.071 77.9963 251.711 77.4004ZM221.361 76.142C217.731 75.843 213.482 79.6045 214.438 83.4342C214.896 85.2718 217.623 85.2192 218.108 83.4342C218.375 82.452 218.348 81.583 219.055 80.7673C219.639 80.0939 220.469 79.7028 221.361 79.7628C222.343 79.829 223.25 80.32 223.939 81.0101C224.561 81.6333 224.933 82.5452 225.577 83.0967C225.736 83.2322 225.948 83.2409 226.105 83.0967C227.214 82.0745 226.548 79.9463 225.845 78.8792C224.839 77.3521 223.2 76.2937 221.361 76.142ZM258.623 70.6081C256.295 68.5477 252.064 66.5579 248.924 67.5719C247.119 68.1548 246.332 71.0624 248.347 71.984C250.68 73.0511 253.371 72.6169 255.746 73.7231C256.744 74.1878 257.682 74.7686 258.376 75.6205C258.923 76.2919 259.48 77.1752 260.271 77.5623C260.479 77.6642 260.761 77.6667 260.928 77.4778C262.662 75.5165 260.138 71.9481 258.623 70.6081ZM225.363 67.4697C223.924 67.066 222.327 67.0742 220.865 67.3277C219.404 67.5813 217.92 68.1868 216.727 69.0699L216.588 69.1733C215.286 70.1544 213.731 71.5819 213.815 73.32C213.884 74.7713 215.412 75.753 216.73 74.9923C217.805 74.372 218.311 73.1293 219.221 72.3019C219.972 71.6189 220.855 71.0805 221.796 70.7032C222.841 70.2841 223.889 70.0878 225.011 70.069C225.875 70.0546 226.744 70.338 227.591 70.4286C227.522 70.5718 228.192 70.5051 228.576 70.378C228.86 70.2569 228.862 69.8973 228.763 69.664C228.274 68.5083 226.495 67.7869 225.363 67.4697Z" fill="black"/>
<path fill-rule="evenodd" clip-rule="evenodd" d="M16.8986 200.453C17.7255 198.187 16.5181 195.928 15.8483 193.736C13.469 186.136 19.9769 166.966 24.5284 166.686C26.1929 162.389 30.6355 160.606 34.132 158.131C38.0998 155.66 41.9594 152.822 46.0859 150.655C46.3154 148.608 48.8029 148.101 50.324 149.565C54.5018 146.972 59.5117 147.454 63.9901 145.755C67.393 140.266 67.6483 134.494 68.5493 129.199C68.942 126.891 68.5248 124.664 70.1053 122.606C75.4148 115.155 96.3936 111.924 104.128 116.34C108.292 113.748 108.392 118.441 109.054 121.338C109.789 122.787 110.186 124.428 110.063 126.157C112.035 130.265 113.706 135.404 117.848 138.472C123.104 142.365 131.191 143.845 136.316 145.755C137.082 145.019 137.583 144.119 137.817 143.055C145.759 144.778 153.468 147.807 160.122 152.536C167.683 154.742 173.007 160.878 176.857 167.457C177.281 168.151 177.381 168.858 177.258 169.507C189.097 186.826 194.748 207.558 195.542 228.498C203.155 233.058 191.923 274.02 189.308 282.523C189.305 282.522 189.303 282.521 189.3 282.52C187.604 285.517 185.678 294.068 181.432 293.407C178.52 296.693 173.879 296.047 169.927 296.299C170.571 298.763 170.254 301.582 169.488 304.017C168.582 306.915 164.136 307.013 163.505 303.853C124.15 311.483 83.7693 305.395 43.9716 306.541C32.4648 306.622 20.959 306.977 9.47987 307.795C7.86349 307.91 6.22472 306.262 6.33473 304.656C8.80272 278.455 11.1205 243.987 13.8803 218.043C14.5348 212.126 15.0525 206.144 16.8986 200.453Z" fill="#EDB98A"/>
<path fill-rule="evenodd" clip-rule="evenodd" d="M137.817 143.055C137.804 143.113 137.79 143.171 137.776 143.229L137.926 143.57C138.88 145.764 139.356 147.581 139.356 149.021C139.356 152.303 124.718 184.78 92.2428 181.795C70.5927 179.806 57.3962 169.991 52.6533 152.351L52.3756 148.54C51.6743 148.818 50.9886 149.153 50.324 149.565C48.8029 148.101 46.3154 148.608 46.0859 150.655C41.9594 152.822 38.0998 155.66 34.132 158.131L33.8894 158.301C30.4327 160.689 26.1547 162.488 24.5284 166.686L23.8773 166.728C19.531 167.012 13.469 186.136 15.8483 193.736C16.5181 195.928 17.7255 198.187 16.8986 200.452C15.0525 206.144 14.5349 212.126 13.8804 218.043C11.1205 243.987 8.80276 278.455 6.33476 304.656C6.22476 306.262 7.86713 307.648 9.4799 307.795C42.8764 310.851 168.582 308.49 169.488 305.592C170.254 303.158 170.571 298.763 169.927 296.299C173.879 296.047 178.52 296.693 181.432 293.407C185.678 294.068 187.604 285.517 189.3 282.52L189.308 282.523C191.923 274.019 203.155 233.058 195.542 228.498C194.748 207.558 189.097 186.826 177.257 169.507C177.376 168.885 177.289 168.21 176.909 167.544L176.857 167.457C173.007 160.878 167.683 154.742 160.122 152.536C153.468 147.807 145.759 144.778 137.817 143.055ZM41.6384 197.881C43.3379 196.566 56.6918 199.197 66.3961 201.561C72.8656 203.137 77.3723 205.268 79.9161 207.954L91.3041 220.426L94.1858 222.285C94.1858 226.168 93.9636 230.251 93.5191 234.535C93.0745 238.819 91.1155 243.352 87.6421 248.134C77.4071 245.328 71.2871 243.736 69.2821 243.357C66.2745 242.789 63.8921 237.862 62.4786 236.168C61.065 234.475 55.6436 234.286 51.5129 232.982C48.7591 232.112 46.8438 229.89 45.7671 226.316C39.748 225.019 35.7691 224.155 33.8302 223.722C31.8913 223.289 31.8913 222.191 33.8302 220.426L56.3718 219.639C47.3748 217.721 41.9128 216.629 39.9857 216.365C37.095 215.969 29.3299 213.563 29.3299 211.699C29.3299 209.872 41.1509 209.905 47.452 209.908L47.9592 209.908C52.096 209.916 58.6909 210.302 67.7439 211.068L62.4786 208.552C50.5994 206.257 43.8678 205.109 42.2838 205.109C40.6999 205.109 39.5777 203.926 38.9174 201.561C39.5983 199.985 40.5053 198.758 41.6384 197.881Z" fill="#FFCF77"/>
<path fill-rule="evenodd" clip-rule="evenodd" d="M56.2218 198.318L44.6545 172.172C43.4893 169.211 41.9174 167.73 39.9388 167.73C37.9602 167.73 28.0002 168.01 10.0588 168.571C6.38706 169.038 5.14398 170.239 6.32956 172.172C7.51514 174.106 16.9226 193.062 34.5518 229.042H45.7671V226.316L33.2811 222.832C31.766 221.228 32.1896 220.426 34.5518 220.426C36.914 220.426 44.9666 220.164 58.7095 219.639L39.0532 216.761L29.33 213.03L30.7602 211.068L39.0532 209.886L66.0601 211.068L58.7095 208.588L42.2839 205.109C40.1301 203.596 39.0532 202.097 39.0532 200.612C39.0532 199.128 41.938 198.101 47.7075 197.53L56.2218 198.318Z" fill="white"/>
<path fill-rule="evenodd" clip-rule="evenodd" d="M108.405 117.957C108.292 117.65 107.832 117.69 107.823 118.035C107.642 125.402 109.48 134.405 115.387 139.381C118.42 141.935 122.429 143.104 126.111 144.448L126.526 144.601L133.031 147.019C134.757 147.66 136.618 148.647 138.142 147.741C136.909 150.792 135.873 153.928 134.371 156.869C132.502 160.53 130.241 163.879 127.475 166.926C116.515 178.995 99.1696 182.677 83.604 179.14C75.5886 177.319 67.7891 173.868 62.3207 167.573C58.1647 162.788 55.777 156.367 55.2143 150.032C55.3788 150.058 55.5512 150.057 55.7283 150.019C57.6978 149.59 59.686 148.536 61.419 147.503L61.5859 147.403C63.2534 146.402 64.9913 145.254 66.188 143.698C66.9803 142.668 67.7921 140.472 68.6236 137.111C68.9634 135.216 69.2821 131.442 69.2276 129.527C69.2226 129.346 68.4191 129.239 68.3333 129.427C67.5909 131.053 67.3509 134.625 66.7778 136.318L66.6622 136.655C66.0503 138.422 65.5256 140.574 64.2568 142.003C61.8749 144.685 58.2811 145.821 55.0733 147.166C54.843 144.134 49.9902 144.205 50.0518 147.367C50.0552 147.538 50.0628 147.709 50.0689 147.88C49.6862 148.09 49.3181 148.33 48.974 148.562L48.6383 148.789C47.3677 149.652 46.0874 150.471 44.7344 151.203C42.1151 152.62 39.3421 153.743 36.6583 155.029C33.9432 156.33 31.4039 157.88 29.033 159.736C27.9194 160.607 26.8516 161.535 25.839 162.521L25.5641 162.791C24.6002 163.749 23.3459 164.82 22.7967 166.079C22.6756 166.357 22.0692 167.002 21.7401 167.024C16.6409 167.358 11.5526 167.829 6.48544 168.535C5.17354 168.718 4.65498 169.392 5.13989 170.483C6.80629 174.233 13.3299 189.207 15.0647 193.226C14.8621 196.178 15.1358 199.654 14.9532 202.607C14.6861 206.916 14.3363 211.224 13.9171 215.522C12.417 230.894 10.143 246.191 8.08813 261.497C7.05966 269.156 6.12201 276.828 5.19644 284.5C4.72905 288.378 4.33246 292.259 4.02718 296.153C3.90002 297.775 3.78464 299.399 3.68294 301.023L3.59531 302.464C3.47464 304.277 3.1962 306.009 4.32062 307.565C4.83037 308.271 5.99463 308.669 6.66493 307.867C7.5076 306.859 7.82077 306.105 7.90129 304.781C7.96288 303.767 7.97762 302.749 8.02393 301.734C8.12393 299.535 8.24973 297.336 8.39709 295.139C8.69106 290.746 9.0266 286.355 9.4153 281.97C10.7777 266.593 13.3671 251.332 15.09 235.994C15.9585 228.261 16.5753 220.513 16.9019 212.738C17.0654 208.855 17.1246 204.972 17.0862 201.086C17.0717 199.634 17.0027 198.189 16.903 196.748C19.4841 202.599 22.1977 208.394 25.0347 214.111L25.7071 215.465C27.5049 219.079 29.3512 222.707 31.5119 226.114L31.8832 226.695C32.7587 228.079 33.9546 230.261 35.5509 230.698C36.6628 231.002 38.0215 230.788 39.1616 230.766C40.2929 230.744 41.4256 230.74 42.5562 230.694C43.8244 230.643 45.0344 230.477 46.26 230.147C46.4637 230.092 46.6564 230.033 46.8319 229.957C48.0667 231.974 50.1647 233.509 52.3098 234.404C54.028 235.121 55.8287 235.612 57.6326 236.067L58.2692 236.226C60.203 236.707 62.4152 236.935 63.5058 238.799L63.7591 239.231C64.5699 240.605 65.3478 241.813 66.6898 242.798C68.1344 243.859 69.8458 244.527 71.5506 245.046C73.2962 245.577 75.0825 245.985 76.8549 246.421L77.3379 246.54C78.508 246.833 79.6885 247.101 80.8518 247.419C81.3478 247.554 81.8528 247.694 82.3397 247.861C82.9097 248.056 83.324 248.361 83.7737 248.693C84.1779 250.103 85.9056 250.868 87.3262 250.77C88.0723 250.718 88.7416 250.465 89.3505 250.095C90.4135 250.998 91.5838 251.807 92.6673 252.643C94.1844 253.815 95.7076 254.978 97.2393 256.13C100.397 258.505 103.579 260.849 106.794 263.147C112.501 267.225 118.331 271.117 124.261 274.864C126.734 276.427 129.223 277.986 131.737 279.509L131.468 279.608L130.936 279.809C129.679 280.277 128.277 281.035 128.033 282.499C127.84 283.66 128.49 284.46 129.639 284.602C131.005 284.77 132.068 283.808 132.918 282.889C133.293 282.483 133.713 282.107 134.073 281.689C134.219 281.519 134.332 281.323 134.431 281.117C136.912 282.575 139.419 283.985 141.965 285.303L142.603 285.63C148.918 288.853 155.065 292.383 161.434 295.514C163.095 296.331 165.121 297.214 167.232 297.817C166.672 299.984 166.681 302.364 166.666 304.563C166.653 306.706 170.067 306.696 169.994 304.563L169.96 303.533C169.898 301.801 169.796 300.002 169.384 298.317C175.605 299.346 181.82 297.109 182.977 296.437C184.254 295.696 185.413 294.51 186.378 293.41C188.443 291.055 189.875 288.233 191.146 285.393C193.869 279.312 195.798 272.812 197.209 266.311C202.408 242.344 200.172 216.692 191.728 193.717C189.618 187.977 187.128 182.363 184.274 176.952L183.919 176.283C181.071 170.933 177.906 165.603 173.885 161.049C169.697 156.307 164.531 152.619 158.906 149.756C156.16 148.359 153.336 147.148 150.449 146.075C149.985 145.902 149.518 145.747 149.05 145.6C146.042 143.686 142.391 141.855 138.738 141.927C138.49 141.932 138.289 142.026 138.139 142.167C137.963 142.198 137.787 142.235 137.61 142.287C137.221 142.399 136.81 142.825 136.866 143.262L136.885 143.408C136.895 143.479 136.908 143.547 136.93 143.614C136.8 143.634 136.672 143.665 136.546 143.708C133.052 142.723 129.613 141.217 126.203 140.002L125.427 139.728C122.57 138.729 119.64 137.75 117.297 135.774C114.966 133.807 113.214 131.26 111.946 128.507C110.385 125.114 109.686 121.44 108.405 117.957ZM38.4386 296.878C37.7467 296.365 36.9285 296.961 36.6696 297.596C35.8195 299.683 36.2395 302.925 37.4377 304.77C38.6794 306.681 41.6514 305.927 41.7232 303.611C41.7982 301.197 40.3918 298.329 38.4386 296.878ZM31.2914 239.265C31.2293 238.994 30.8072 238.996 30.744 239.265C30.1679 241.713 30.1814 244.35 30.0122 246.86L29.9926 247.138C29.7897 249.906 29.6192 252.682 29.4976 255.455C29.2589 260.911 28.9736 266.367 28.6539 271.818C28.4952 274.522 28.3252 277.225 28.1439 279.927C27.576 279.611 26.9909 279.334 26.3846 279.089C25.4761 278.723 24.5916 278.681 23.6155 278.691C22.4268 278.703 21.5318 279.746 21.6891 280.908C21.8607 282.174 22.9773 282.716 24.1369 282.535C25.4211 282.335 26.7109 282.024 28.0076 281.895C27.8631 283.985 27.7139 286.073 27.5557 288.161C27.346 290.925 27.0725 293.685 26.8804 296.45C26.862 296.714 26.8422 296.978 26.822 297.243C26.0488 296.842 25.2277 296.637 24.2971 296.384L24.055 296.316C22.704 295.929 21.2586 295.393 20.008 296.3C19.1674 296.909 18.9995 297.913 19.6959 298.716C20.7517 299.936 22.3139 299.7 23.7723 299.637L24.5569 299.609C25.2964 299.58 25.9785 299.533 26.662 299.346C26.5365 301.148 26.4704 302.956 26.6917 304.731C26.8115 305.69 28.077 305.942 28.412 304.963C29.2871 302.405 29.4679 299.647 29.7882 296.968C30.0872 294.466 30.269 291.946 30.4649 289.433L30.5242 288.679C30.9648 283.15 31.3172 277.618 31.5746 272.078C31.8322 266.539 31.9869 261 32.0485 255.455C32.0765 252.937 32.0347 250.411 31.9359 247.893L31.9046 247.138C31.7909 244.549 31.8704 241.802 31.2914 239.265ZM146.934 297.286C146.9 296.933 146.616 296.493 146.194 296.548C145.805 296.598 145.404 296.574 145.019 296.638C144.511 296.722 144.102 297.022 143.629 297.21C142.861 297.517 142.023 297.675 141.235 297.926C139.756 298.397 138.951 299.95 139.563 301.401C140.207 302.926 141.825 303.272 143.223 302.632C144.326 302.128 145.147 301.322 145.888 300.389L146.098 300.123C146.417 299.722 146.78 299.274 146.914 298.789C147.044 298.316 146.98 297.768 146.934 297.286ZM75.0896 290.117C73.2478 289.858 71.6746 290.487 69.9703 291.079L69.8318 291.127C68.0972 291.724 65.5663 292.138 64.6774 293.91C64.141 294.978 64.5576 296.396 65.8198 296.713C67.8187 297.213 69.6111 295.755 71.2639 294.774L71.3508 294.722C72.9461 293.79 74.5928 293.006 75.6115 291.397C75.8834 290.968 75.6476 290.196 75.0896 290.117ZM139.387 143.95C140.125 144.115 140.863 144.261 141.6 144.401C144.404 145.901 147.126 147.457 150.021 148.793C153.092 150.211 156.153 151.676 159.071 153.391C164.965 156.856 169.825 161.361 173.84 166.884C180.776 176.423 185.936 187.424 189.628 198.586C190.577 201.454 191.426 204.354 192.177 207.278C190.849 206.053 189.277 205.299 187.514 204.654C186.767 204.381 185.837 204.843 185.458 205.489C185.288 205.779 185.192 206.066 185.209 206.406C185.249 207.156 185.738 208.009 186.546 208.157C188.429 208.504 190.261 209.178 192.077 209.772C192.352 209.862 192.589 209.828 192.778 209.722C194.581 217.342 195.709 225.12 196.108 232.944C196.446 239.568 196.238 246.244 195.502 252.859C194.937 252.606 194.385 252.368 193.765 252.224C192.962 252.038 192.171 251.811 191.388 251.554C189.126 250.814 188.094 254.54 190.406 255.108C191.266 255.319 192.132 255.495 193.009 255.623C193.773 255.735 194.448 255.686 195.169 255.568C194.618 259.695 193.867 263.792 192.909 267.831L192.698 268.715C191.454 273.873 190.005 279.08 187.909 283.954C186.881 286.346 185.519 288.617 183.838 290.61C183.013 291.591 182.096 292.431 181.097 293.227C180.264 293.89 177.436 295.328 174.086 295.328C170.736 295.328 169.829 295.012 168.139 294.431C164.796 293.283 161.623 291.451 158.488 289.818L158.164 289.65C156.778 288.934 155.397 288.209 154.02 287.476C154.194 286.075 153.889 284.898 153.157 283.604C152.367 282.204 150.407 282.901 150.261 284.333L150.257 284.388C150.235 284.711 150.18 285.04 150.113 285.368C140.905 280.334 131.891 274.948 123.021 269.336C117.307 265.72 111.654 261.997 106.084 258.164C103.3 256.249 100.539 254.299 97.8062 252.31C96.3745 251.268 94.9495 250.218 93.531 249.159C92.9402 248.718 92.3607 248.255 91.7685 247.811C91.9125 247.632 92.0527 247.452 92.1885 247.275C94.3997 244.386 95.8342 240.943 96.549 237.39C96.9806 235.247 97.189 233.022 97.2524 230.836L97.2803 229.886C97.324 228.285 97.3354 226.61 97.0398 225.058C97.4422 225.279 97.8533 225.495 98.263 225.727C99.7333 226.558 101.205 227.388 102.679 228.213C105.631 229.865 108.591 231.498 111.589 233.065C116.944 235.865 122.352 238.528 127.905 240.915L130.608 242.077C135.298 244.09 140.026 246.067 144.902 247.563C147.652 248.407 151.776 249.451 154.566 250.095C152.325 252.203 152.015 253.619 153.637 254.344C156.071 255.431 158.086 251.26 158.167 250.882C159.023 251.061 160.675 251.367 163.122 251.799C166.609 252.471 169.991 253.801 173.108 255.503C174.192 256.095 174.494 254.945 173.346 254.144C169.988 251.802 166.072 250.477 162.031 249.364L161.833 249.31C160.35 248.905 158.871 248.482 157.394 248.045C157.556 247.459 157.65 246.851 157.631 246.18C157.59 244.686 157.457 243.187 157.378 241.694C157.211 238.56 156.998 235.437 156.749 232.309C156.653 231.104 156.545 229.896 156.423 228.689C157.214 228.265 157.897 227.703 158.78 227.426L158.929 227.383C159.874 227.129 159.555 225.915 158.716 225.811C157.956 225.717 157.2 225.76 156.451 225.921C156.335 225.946 156.225 225.974 156.121 226.006C155.983 224.888 155.83 223.772 155.657 222.663C155.198 219.733 154.874 216.646 153.919 213.83C153.848 213.622 153.538 213.547 153.423 213.766C152.034 216.402 151.986 219.637 151.829 222.573L151.81 222.924C151.625 226.127 151.615 229.362 151.674 232.57C151.735 235.875 151.849 239.173 151.997 242.476C152.057 243.805 152.055 245.185 152.282 246.457C144.016 243.776 135.897 240.566 128.114 236.766C122.624 234.086 117.181 231.298 111.801 228.405C109.105 226.956 106.397 225.53 103.704 224.076C102.76 223.566 101.817 223.055 100.875 222.542L99.4612 221.773C98.1385 221.053 97.0345 220.336 95.4939 220.286C95.0347 220.271 94.6229 220.485 94.3305 220.81C93.5026 220.224 92.5457 219.865 91.5414 219.873C90.0298 217.789 88.495 215.723 86.8991 213.701L85.7201 212.205C83.6795 209.622 81.518 207.001 78.9159 205.036C77.7545 204.159 76.4771 203.501 75.1449 202.957C75.4584 202.881 75.7652 202.727 76.0387 202.474C77.3111 201.297 77.4863 199.11 77.7448 197.467C78.0129 195.764 77.9093 194.239 77.6445 192.541C77.5416 191.881 76.4463 191.744 76.1789 192.35C75.6155 193.628 75.0188 194.852 74.5061 196.145L74.3549 196.535C73.8046 197.989 72.6324 199.52 72.7098 201.098C72.7309 201.531 72.8761 201.908 73.1004 202.211C71.9822 201.84 70.8479 201.51 69.731 201.165C66.2159 200.081 62.6873 199.028 59.1045 198.187C58.1508 197.963 57.1923 197.756 56.2299 197.565C55.7257 195.176 54.9909 192.832 54.1246 190.53C54.9449 190.11 55.4759 189.407 56.1823 188.782C56.8434 188.196 57.2976 187.483 57.8616 186.811C58.375 186.199 58.0866 185.094 57.1639 185.13L56.9025 185.141C55.9466 185.185 55.0208 185.284 54.154 185.729L53.8453 185.888C53.4217 186.107 52.9581 186.359 52.5453 186.656C52.0056 185.416 51.4443 184.189 50.877 182.974L50.1409 181.403C48.2323 177.314 46.329 173.069 43.9328 169.261C42.8675 167.568 41.4498 166.511 39.415 166.347C37.3197 166.179 35.1411 166.396 33.0429 166.471C30.6104 166.558 28.1787 166.661 25.7486 166.789C26.3715 166.138 26.94 165.413 27.5656 164.788C28.604 163.752 29.7012 162.77 30.8544 161.862C33.1368 160.065 35.6464 158.585 38.2531 157.31C40.8603 156.035 43.5441 154.924 45.9916 153.349C47.5403 152.352 48.9246 151.098 50.1875 149.741C50.9826 158.299 55.1241 166.25 61.3459 172.224C67.8083 178.428 76.7387 181.837 85.4748 183.287C94.3857 184.766 103.686 184.223 112.21 181.133C116.605 179.539 120.821 177.262 124.58 174.406C124.622 174.654 124.671 174.9 124.769 175.131C124.9 175.441 125.06 175.705 125.244 175.978L125.572 176.456C125.778 176.756 125.989 177.054 126.224 177.333C126.792 178.009 127.597 178.304 128.464 178.301C130.124 178.296 131.382 176.671 130.935 175.064C130.654 174.055 130.053 173.447 129.115 173.052C128.819 172.927 128.517 172.822 128.213 172.719L127.985 172.642C127.678 172.537 127.373 172.437 127.057 172.379C128.837 170.811 130.489 169.106 131.968 167.266C136.606 161.497 141.182 153.416 139.631 145.753C139.604 145.622 139.486 145.539 139.358 145.518C139.268 144.98 138.981 144.46 138.588 144.11C138.852 144.041 139.119 143.987 139.387 143.95ZM91.2167 276.436C90.298 275.926 89.349 277.137 90.0956 277.886L91.2103 278.998C92.2449 280.036 93.2518 281.084 94.1374 282.267L94.3518 282.556C95.5471 284.178 96.8218 286.059 98.7805 286.665C101.15 287.399 103.426 284.519 102.054 282.416C100.856 280.577 98.5481 279.884 96.5585 279.124C94.6763 278.405 92.9763 277.412 91.2167 276.436ZM167.641 267.953C167.101 267.248 165.694 267.619 166.063 268.617C167.26 271.857 167.749 276.275 170.773 278.428C171.749 279.122 173.282 278.803 174.086 278.001C174.999 277.09 175.035 275.807 174.513 274.696C173.876 273.34 172.31 272.357 171.212 271.325L171.114 271.231C169.933 270.086 168.655 269.277 167.641 267.953ZM41.2182 271.682C40.2548 271.267 37.7438 270.462 36.9997 271.415C36.9649 271.45 36.9352 271.488 36.9112 271.53C36.7289 271.847 36.7018 272.293 36.9112 272.607C37.7784 273.908 38.6815 274.878 39.9143 275.804L40.0527 275.906C41.3949 276.891 42.6557 278.048 44.291 278.492C46.5577 279.107 48.1409 276.275 46.549 274.622C45.2665 273.289 43.3086 272.598 41.6092 271.855L41.2182 271.682ZM132.244 253.168C132.623 252.484 131.849 251.645 131.147 252.073C129.146 253.294 126.814 254.209 124.566 254.867C123.656 255.134 122.836 256.054 122.903 257.047L122.914 257.197C122.941 257.548 122.989 257.896 123.212 258.188C123.995 259.21 125.115 259.603 126.312 258.998C128.977 257.651 130.802 255.769 132.244 253.168ZM73.7476 251.097C73.7963 250.81 73.5855 250.588 73.2926 250.643C71.6012 250.963 70.0391 251.778 68.5866 252.715C67.8076 253.218 67.0563 253.77 66.2792 254.277C65.3191 254.904 64.9596 255.422 64.8178 256.572C64.7241 257.331 65.4344 258.024 66.0857 258.234C67.861 258.805 69.895 256.93 71.0976 255.712L71.1517 255.658C72.4107 254.377 73.4492 252.863 73.7476 251.097ZM22.9478 249.108C23.3334 248.069 22.0046 247.208 21.1356 247.718C20.3174 248.198 19.4298 248.596 18.6579 249.147C17.9486 249.653 17.3019 250.252 16.6217 250.801L16.2856 251.067C15.0382 252.067 12.9792 254.542 14.7627 255.978C16.4603 257.344 18.711 255.599 19.8503 254.323L19.9298 254.233C20.5853 253.477 21.3935 252.656 21.8691 251.774C22.3167 250.943 22.6204 249.99 22.9478 249.108ZM39.6882 168.684C41.8143 169.096 42.6809 171.715 43.5762 173.422C45.6892 177.45 47.6324 181.552 49.5841 185.66C50.1849 186.923 50.7699 188.196 51.3602 189.467C51.3963 189.567 51.4426 189.665 51.4971 189.762C52.7063 192.36 53.9517 194.941 55.4072 197.407C54.0751 197.158 52.7361 196.946 51.3921 196.779C51.4599 195.516 50.5934 193.826 50.1648 192.763L50.1291 192.673C49.5946 191.311 49.0343 189.165 47.6585 188.458C47.2001 188.222 46.7098 188.517 46.6745 189.021C46.5703 190.521 48.0401 192.237 48.7585 193.509C49.193 194.279 49.6165 195.053 50.0291 195.834C50.1839 196.127 50.3131 196.415 50.4718 196.672C49.7786 196.598 49.0846 196.531 48.3888 196.482L47.9353 196.451C45.3557 196.282 42.6159 196.233 40.2853 197.503C38.1228 198.68 37.0175 201.193 38.2055 203.482C39.6855 206.333 42.9446 206.711 45.8105 206.942C49.3902 207.23 52.9779 207.75 56.5323 208.258C60.2088 208.782 63.6708 210.135 67.2925 210.83C67.6293 210.895 67.8391 210.455 67.5301 210.267C64.6733 208.532 61.2001 207.577 58.0062 206.605L57.7479 206.526C56.0154 205.995 54.3222 205.388 52.53 205.087C50.7902 204.794 49.0396 204.558 47.2848 204.377L47.1144 204.362C45.1823 204.2 40.2533 204.255 40.4616 201.401C40.5995 199.512 43.677 199.185 45.0818 199.163C51.5226 199.06 58.0097 200.766 64.1308 202.594L65.4973 203.002C68.0037 203.755 70.5137 204.529 72.973 205.411C75.7599 206.411 77.9556 207.969 79.9854 210.103C82.236 212.468 84.4158 214.887 86.7507 217.172C88.2226 218.613 89.7134 220.028 91.2164 221.432C91.5559 221.87 91.8275 222.348 92.0156 222.967C92.3335 224.012 92.2604 224.984 92.1404 226.058C91.8377 228.771 91.7709 231.511 91.3917 234.215C91.0401 236.72 90.5485 239.317 89.5061 241.641C89.0933 242.562 88.5561 243.465 87.9443 244.274L87.4505 244.914C87.2353 245.193 86.9945 245.497 86.7417 245.783C86.3707 245.332 85.8338 245.038 85.2098 245.111C83.8837 245.267 82.8413 245.23 81.5405 244.926C80.5336 244.691 79.5346 244.415 78.5322 244.16C76.5639 243.659 74.5773 243.203 72.629 242.628L72.2941 242.527C70.8422 242.083 69.3899 241.526 68.1815 240.591C66.7775 239.504 66.3456 237.936 65.3056 236.58C63.0849 233.685 58.2863 233.745 55.0372 232.952C52.276 232.278 49.6188 231.215 47.7079 229.216L47.5964 229.097C47.6811 228.74 47.5438 228.338 47.2116 228.153L47.1393 228.113C47.0098 228.04 46.8703 228.01 46.7335 228.013C46.5561 227.753 46.385 227.485 46.2295 227.199C46.1016 226.964 45.7818 227.137 45.8237 227.37C45.8487 227.509 45.8834 227.644 45.9163 227.78C44.0653 227.305 42.0325 227.396 40.1532 227.397L37.7143 227.388C37.2923 227.383 36.6632 227.362 36.6073 227.337L36.5499 227.311C36.3978 227.245 36.6137 227.354 36.5075 227.213C36.3904 227.058 36.2757 226.901 36.1625 226.743C35.7583 226.179 35.3759 225.597 35.0011 225.01C39.0852 226.049 43.3159 226.695 47.4861 227.233C51.96 227.812 56.4928 228.213 61.0067 228.217C62.251 228.218 62.2397 226.344 61.0067 226.297C56.227 226.115 51.4724 225.862 46.7248 225.251C44.2697 224.935 41.8248 224.538 39.3937 224.074C38.4551 223.895 37.5187 223.705 36.5847 223.504L35.8846 223.352C35.4453 223.255 34.2042 223.115 33.599 222.71C33.48 222.506 33.3611 222.302 33.2431 222.099C33.3011 221.383 35.1243 221.479 35.5517 221.478C36.7636 221.475 37.9757 221.485 39.1879 221.488C41.6119 221.495 44.0357 221.474 46.46 221.455C51.3034 221.416 56.1652 221.247 61.0046 221.453C62.1794 221.503 62.7965 219.623 61.6354 219.129C56.5094 216.945 50.8192 216.47 45.3458 215.799C42.4675 215.446 39.5876 215.039 36.7738 214.324L36.0781 214.148C34.3105 213.696 32.3586 213.144 30.8701 212.067C33.1074 211.164 35.8882 211.267 38.2072 211.139L38.3847 211.129C41.6319 210.93 44.885 210.828 48.1383 210.823C54.7949 210.814 61.4536 211.049 68.1028 211.364C68.2696 211.372 68.3041 211.109 68.142 211.074C61.3078 209.586 54.3619 208.869 47.368 208.759C44.1107 208.707 40.8519 208.753 37.5974 208.897L36.4033 208.952C33.6285 209.071 30.5495 209.104 28.2279 210.776C27.874 211.03 27.6874 211.356 27.6582 211.7C24.5446 205.507 21.669 199.184 18.7818 192.904C16.5372 188.02 14.3763 183.096 12.0499 178.25L11.2968 176.683C10.2883 174.591 9.25508 172.499 8.10788 170.483C12.3978 169.911 16.7117 169.514 21.0282 169.21C24.9613 168.932 37.7947 168.318 39.6882 168.684ZM41.5878 235.806C41.0986 235.535 40.3491 235.756 40.2285 236.358C40.1388 236.806 39.9856 237.304 39.9856 237.762C39.9856 238.312 40.1825 238.908 40.2875 239.446C40.5288 240.682 40.8259 241.686 41.4557 242.787C41.8497 243.476 42.6452 243.943 43.4447 243.925C44.0779 243.91 44.639 243.741 45.0735 243.252C45.594 242.666 45.9514 241.804 45.6659 241.015C44.9179 238.949 43.5432 236.89 41.5878 235.806ZM145.355 233.744C144.21 231.743 141.496 229.955 139.128 230.132C135.573 230.398 134.847 235.175 138.29 236.315C140.347 236.997 143.178 236.297 144.978 235.176C145.464 234.874 145.641 234.245 145.355 233.744ZM181.898 226.909C182.158 226.532 181.728 226.101 181.341 226.185C180.482 226.374 179.555 226.456 178.714 226.712C177.852 226.973 177.018 227.407 176.164 227.706C174.375 228.331 172.465 228.644 170.734 229.399C170.042 229.701 169.498 230.701 169.562 231.438L169.578 231.61C169.617 231.976 169.68 232.295 169.885 232.63C170.436 233.527 171.527 233.991 172.557 233.715C174.468 233.203 176.335 231.887 177.965 230.793L178.266 230.594C178.978 230.126 179.743 229.636 180.317 229.034C180.915 228.405 181.407 227.621 181.898 226.909ZM116.212 219.632C116.432 218.841 115.446 218.319 114.872 218.853C113.724 219.92 112.523 220.91 111.399 222.004L111.324 222.079C110.518 222.886 109.347 224.442 110.394 225.486C111.736 226.825 113.604 224.839 114.324 223.804C115.237 222.491 115.785 221.167 116.212 219.632ZM28.3645 213.096C30.0675 214.896 32.6913 215.724 35.0014 216.409C37.7405 217.222 40.5627 217.707 43.3878 218.106C46.1176 218.492 48.8264 218.836 51.5129 219.279C49.4807 219.304 47.4488 219.319 45.4213 219.355C43.0831 219.398 40.7461 219.448 38.4086 219.516C36.7062 219.565 34.7087 219.332 33.091 219.964C32.7995 220.077 32.5271 220.235 32.2892 220.426C30.9291 218.013 29.6256 215.567 28.3645 213.096ZM133.406 196.265C131.629 195.701 129.957 194.954 128.073 195.148C127.572 195.199 127.213 195.686 127.487 196.166C128.38 197.734 129.832 198.619 131.261 199.668L131.387 199.761C132.952 200.923 134.632 201.981 136.333 202.934C139.262 204.574 141.887 199.879 138.929 198.502C137.149 197.673 135.279 196.859 133.406 196.265ZM101.405 192.189C98.6854 192.367 95.9677 192.489 93.2449 192.598C90.0911 192.726 91.1514 197.569 93.786 196.589C96.3887 195.62 98.9918 194.664 101.618 193.761C102.417 193.486 102.353 192.175 101.455 192.187L101.405 192.189ZM171.152 183.573C170.447 183.524 169.736 183.678 169.03 183.746L168.279 183.818C166.731 183.972 165.279 184.162 163.803 184.79C161.078 185.951 162.542 190.321 165.277 190.22C167.298 190.146 169.026 189.28 170.733 188.272C172.226 187.39 173.14 186.287 174.148 184.903C174.482 184.444 174.017 183.93 173.562 183.884C172.762 183.803 171.952 183.629 171.152 183.573ZM34.5885 174.649C35.0393 177.456 36.1583 180.087 37.8444 182.377C38.6918 183.528 40.1795 183.572 41.0193 182.377C42.2073 180.687 41.4748 178.751 40.5798 177.128L40.315 176.653C39.9143 175.94 39.2988 174.901 38.5955 174.183L38.5837 174.109C38.2068 171.17 34.124 171.757 34.5885 174.649ZM144.576 156.634C143.898 156.025 142.65 156.208 142.43 157.2C142.122 158.588 141.934 160.153 142.136 161.563C142.245 162.327 142.286 163.185 142.587 163.897C142.911 164.662 143.534 165.251 144.12 165.826C145.291 166.976 147.76 166.596 148.074 164.785L148.114 164.563C148.271 163.706 148.473 162.79 148.24 161.941C148.063 161.3 147.669 160.647 147.343 160.053L147.274 159.926C146.621 158.712 145.603 157.557 144.576 156.634ZM49.2847 159.589L49.0395 159.591C47.1472 159.629 43.6879 160.088 43.6694 162.422C43.665 162.971 44.0732 163.541 44.6203 163.668C45.7514 163.929 46.4825 163.263 47.2886 162.589C47.9478 162.038 48.7163 161.598 49.5145 161.281C50.3766 160.939 50.3203 159.587 49.2847 159.589Z" fill="black"/>
<path fill-rule="evenodd" clip-rule="evenodd" d="M52.194 47.9534C53.208 41.8191 49.8801 40.5463 52.194 34.7151C57.3365 23.9104 71.3509 24.3759 81.6349 23.5452C93.1053 23.1056 104.715 24.6198 115.289 29.2171C117.815 30.3151 120.245 31.6064 122.573 33.0735C124.587 34.3423 124.31 36.7546 123.041 38.0706C132.197 51.0361 126.96 68.4397 134.266 82.0874C135.615 84.527 137.4 86.7146 138.573 89.2529C140.356 93.1114 140.471 98.64 136.427 101.202C130.732 104.259 127.553 98.207 124.755 106.981C110.779 137.572 82.6798 139.295 56.0045 123.346C53.6967 122.062 51.3413 120.611 49.5986 118.594C45.6428 114.143 46.1087 107.883 46.0213 102.324C45.9724 99.0657 45.9643 95.8075 45.9961 92.5492C46.1205 79.351 50.4949 61.0429 52.194 47.9534Z" fill="#EDB98A"/>
<path fill-rule="evenodd" clip-rule="evenodd" d="M109.01 11.2632C92.9039 3.95742 74.6363 1.18689 57.0674 3.00415C48.3957 3.8997 39.8382 5.82104 31.6943 8.94207L30.9805 9.21794C28.9701 9.99167 26.8031 10.7597 25.2754 12.3347C23.4972 14.1651 22.9985 16.933 24.2696 19.194C25.257 20.9509 27.0323 22.2112 28.9257 22.8837C28.2587 23.4299 27.6258 24.0392 27.0323 24.7193C26.0317 25.8591 25.9555 27.4844 27.0323 28.6086C29.1069 30.7751 31.7987 32.3426 34.698 33.094C34.3723 34.667 34.5483 36.4081 35.2468 37.9759C37.2513 42.4762 42.8979 43.0125 47.243 42.7453L47.3743 42.737L47.6159 45.5023C47.7446 46.9755 48.627 48.1179 50.1239 48.3437C50.1764 48.3516 50.2292 48.3568 50.2814 48.3618C47.9127 56.9284 46.4814 65.7597 45.1605 74.539C44.4703 79.1218 43.8525 83.7153 43.2611 88.3117L43.0648 89.8439C42.4345 94.7994 41.6467 99.8047 41.3736 104.797C41.1294 109.327 41.9934 113.652 44.785 117.308C47.2903 120.585 50.7069 123.04 54.3809 124.863C62.6821 128.983 71.4192 132.051 80.6002 133.474L81.2125 133.568C84.7564 134.109 88.4078 134.565 91.9136 133.584C94.9938 132.723 98.2242 130.501 97.5283 126.932C97.2946 125.727 95.6086 125.674 95.0308 126.607L94.8975 126.82C94.2047 127.919 93.4454 128.941 92.2364 129.508C90.8211 130.176 89.1798 130.362 87.633 130.38C83.313 130.43 78.8144 129.354 74.6546 128.274C66.8865 126.258 58.9083 122.97 52.5452 117.988C49.8376 115.871 47.6632 113.224 46.8964 109.818C45.9483 105.619 46.8202 101.028 47.2509 96.8083C48.1372 88.1004 49.192 79.4085 50.305 70.7264L50.5283 68.9901C51.4656 61.7316 52.4504 54.4704 52.9181 47.1698C53.1124 46.9046 53.2437 46.6026 53.2963 46.2717L53.3695 45.7964C53.4328 45.3894 53.4433 45.0164 53.3987 44.6724C53.396 43.3541 53.3593 42.0437 53.2831 40.7251C53.2703 40.4891 53.2595 40.2527 53.2516 40.019C54.6225 40.321 56.0038 40.5652 57.3904 40.7727C67.1386 42.2407 77.0392 42.6083 86.8662 41.8783C91.7692 41.513 96.6351 40.8856 101.486 40.1004C103.955 39.7012 106.415 39.26 108.868 38.7663C110.641 38.4118 112.376 37.9312 114.12 37.4795C115.919 40.0978 116.891 43.32 116.702 46.4844C116.489 50.0953 114.083 53.3701 114.758 57.0597C115.392 60.5128 118.35 61.5834 121.271 62.4386L122.513 62.7975C123.469 63.0766 124.163 63.3458 124.336 64.4942C124.633 66.4664 124.268 68.6855 124.191 70.6682C124.1 73.0133 123.979 75.3584 123.924 77.7035C123.895 78.9167 123.848 80.1352 123.85 81.3485C123.853 82.2099 123.981 82.7981 124.315 83.3546C124.058 83.6778 123.827 84.0271 123.622 84.3974C123.556 84.5182 123.719 84.6466 123.816 84.5471C124.076 84.2766 124.352 84.0324 124.643 83.8141C124.79 83.9956 124.961 84.1794 125.161 84.3764L125.176 84.3554C125.801 84.9778 126.794 85.0382 127.569 84.3764L127.772 84.2002C128.34 83.703 128.729 83.2889 128.887 82.4672C128.895 82.4252 128.903 82.3832 128.908 82.3412C130.35 82.2913 131.815 82.6324 133.112 83.3496C135.169 84.4867 136.616 86.107 137.472 88.1081C137.13 88.5072 136.731 88.8644 136.266 89.1638C136.201 89.2084 136.259 89.3056 136.329 89.2714C136.805 89.0482 137.23 88.7725 137.611 88.4495C137.918 89.2373 138.134 90.0829 138.265 90.9784C138.727 94.1402 137.903 98.0032 135.045 99.8047C133.808 100.585 132.396 101.007 130.93 101.013C130.216 101.015 129.599 100.895 128.905 100.724C128.435 100.608 127.968 100.44 127.477 100.44C127.057 100.44 126.668 100.545 126.308 100.755L126.408 100.764C126.65 100.787 126.604 100.797 126.266 100.797C125.216 100.842 124.615 101.908 125.097 102.835L125.161 102.978C125.174 103.007 125.185 103.031 125.194 103.05L125.233 103.296C125.236 103.32 125.24 103.344 125.245 103.368L125.259 103.418C125.262 103.426 125.265 103.434 125.268 103.442L123.693 105.844C121.761 108.783 119.786 111.711 117.539 114.395C115.964 116.278 114.294 118.124 112.529 119.834C110.943 121.37 109.041 122.111 107.245 123.319C106.286 123.96 106.005 125.301 106.877 126.165C109.435 128.705 113.057 126.688 115.155 124.624C117.14 122.668 118.855 120.315 120.334 117.959C122.957 113.77 125.045 109.316 125.959 104.482C126.34 104.831 126.825 105.049 127.317 105.22C128.301 105.561 129.386 105.703 130.426 105.74C132.419 105.805 134.415 105.322 136.209 104.466C143.507 100.986 144.578 90.5661 140.116 84.421C140.718 82.6764 141.054 80.7833 141.419 79.169L141.585 78.4474C143.43 70.3872 144.669 61.901 141.398 54.0029C140.978 52.984 140.505 51.9914 139.946 51.0407C139.497 50.2765 138.725 49.4624 138.512 48.5932C138.039 46.684 140.957 44.6777 141.808 43.1624C142.808 41.3846 142.95 39.2863 141.587 37.6605C141.414 37.4559 141.225 37.2666 141.02 37.1014C142.312 34.7589 142.372 31.8124 140.67 29.5015C139.552 27.9783 137.845 26.9121 135.98 26.5891C134.84 26.3922 133.47 26.4657 132.217 26.8176C125.358 20.4493 117.532 15.1288 109.01 11.2632ZM135.35 90.9469C133.519 89.3319 131.497 88.4863 129.002 88.699C126.494 88.914 123.474 89.9516 122.001 92.1024C120.838 93.8015 123.209 96.2936 124.916 95.0174C126.471 93.854 127.508 92.541 129.438 91.9159C131.172 91.3566 133.317 90.9968 135.132 91.3172C135.332 91.3513 135.531 91.1045 135.35 90.9469Z" fill="black"/>
<path fill-rule="evenodd" clip-rule="evenodd" d="M78.3666 102.857C76.8944 100.441 73.7565 106.361 73.423 107.379C73.1278 108.28 72.9328 109.204 72.8337 110.138C71.6924 110.394 70.5072 110.394 69.3377 110.17C67.5996 109.838 66.5371 108.905 65.0264 108.104C63.983 107.551 62.668 108.2 62.1254 109.118C61.4872 110.198 61.8938 111.318 62.7332 112.124C64.3251 113.65 67.4573 114.001 69.5353 113.596C70.7258 113.363 71.817 112.918 72.7806 112.27C72.787 112.391 72.7912 112.512 72.8008 112.633L72.8192 112.842C72.9788 114.535 73.4452 116.665 74.7633 117.766C76.925 119.574 79.5929 116.098 77.4924 114.292L77.4273 114.238C76.1217 113.186 75.8368 110.361 75.9071 108.806C75.9532 107.79 76.1386 106.762 76.4598 105.795L76.5259 105.602C76.6226 105.329 77.677 102.738 78.0581 103.068L78.0763 103.086C78.2334 103.274 78.4873 103.056 78.3666 102.857ZM66.6123 89.2214C64.625 90.4268 61.597 93.2376 63.7349 96.2259C66.2514 98.8608 69.8745 95.8397 71.6599 94.4734C73.3155 93.4144 75.1756 96.1379 73.6396 97.3743C60.738 106.906 55.5023 89.5366 65.6072 87.8042C66.7198 87.6133 67.133 88.8485 66.6123 89.2214ZM87.8331 78.0797C85.8909 77.736 83.9014 78.2179 82.2942 79.3518L82.1724 79.4392C80.624 80.5692 78.8917 82.5533 79.7802 84.5011C80.1367 85.2831 81.2047 85.4058 81.8823 85.0512C83.0106 84.4609 83.215 83.0084 84.2217 82.2045C85.0472 81.5457 86.1588 81.146 87.222 81.2423C89.7198 81.4687 91.2562 83.927 92.032 86.0455C92.1312 86.3165 92.5299 86.4218 92.6857 86.1308C94.515 82.719 91.277 78.6895 87.8331 78.0797ZM56.7238 76.7922C53.0033 76.4862 48.6487 80.335 49.6282 84.2537C50.098 86.134 52.8931 86.0801 53.3899 84.2537C53.6634 83.2487 53.636 82.3595 54.361 81.5249C54.9595 80.8358 55.8098 80.4356 56.7238 80.4971C57.7312 80.5648 58.6604 81.0672 59.3665 81.7733C60.0042 82.4109 60.3855 83.344 61.0461 83.9083C61.2087 84.047 61.4263 84.0559 61.5869 83.9083C62.7238 82.8624 62.0414 80.6848 61.3205 79.5929C60.2889 78.0304 58.6091 76.9474 56.7238 76.7922ZM94.9179 71.1297C92.5312 69.0215 88.1944 66.9855 84.9761 68.023C83.1258 68.6194 82.3192 71.5945 84.3848 72.5376C86.7767 73.6295 89.5345 73.1852 91.9691 74.317C92.9915 74.7926 93.9531 75.3869 94.665 76.2585C95.2258 76.9455 95.7963 77.8494 96.6074 78.2454C96.8206 78.3496 97.1093 78.3523 97.2801 78.159C99.058 76.1521 96.4703 72.5008 94.9179 71.1297ZM60.826 67.9184C59.3509 67.5053 57.7145 67.5137 56.216 67.7732C54.7181 68.0326 53.1972 68.6521 51.9743 69.5558L51.8323 69.6616C50.4972 70.6655 48.904 72.1261 48.9894 73.9046C49.0607 75.3896 50.6263 76.3941 51.978 75.6157C53.0798 74.981 53.5983 73.7095 54.5312 72.8628C55.301 72.164 56.2052 71.613 57.17 71.227C58.2416 70.7982 59.3151 70.5973 60.4652 70.5781C61.3507 70.5634 62.2415 70.8533 63.1105 70.946C63.0389 71.0926 63.7258 71.0243 64.1195 70.8943C64.4111 70.7703 64.4127 70.4024 64.3116 70.1637C63.8103 68.9812 61.9863 68.243 60.826 67.9184Z" fill="black"/>
<defs>
<clipPath id="clip0_1_172">
<rect width="202" height="288" fill="white" transform="matrix(-1 0 0 1 533.828 12.4844)"/>
</clipPath>
</defs>
</svg>
