<svg width="606" height="292" viewBox="0 0 606 292" fill="none" xmlns="http://www.w3.org/2000/svg">
<path fill-rule="evenodd" clip-rule="evenodd" d="M343.993 249.351C344.98 243.795 345.885 238.223 346.707 232.64C347.097 229.989 347.478 227.336 347.82 224.678C348.059 222.816 348.424 220.687 347.154 219.308C345.366 217.367 343.742 215.706 343.523 212.925C343.317 210.309 344.204 207.458 344.759 204.918C345.923 199.593 347.371 194.334 348.971 189.125C350.597 183.832 352.38 178.589 354.188 173.356C355.879 168.464 357.504 163.527 359.706 158.833C363.885 149.925 370.955 143.328 379.693 138.923C381.866 137.827 386.298 133.916 388.569 133.041C390.656 132.236 390.648 134.587 392.703 133.701C394.345 132.993 395.874 132.049 396.793 130.468C397.792 128.752 400.295 126.351 400.676 124.353C401.484 120.117 400.609 116.512 403.641 113.325C406.332 110.494 409.95 108.555 413.693 107.514C421.927 105.224 432.909 106.825 437.877 114.454C440.25 118.097 441.079 122.501 444.281 125.474C447.077 128.071 446.451 129.846 450.073 131.184C450.278 131.26 455.837 130.071 456.042 130.147C460.003 129.302 463.79 131.668 467.424 133.041C472.842 135.087 478.001 137.751 482.847 140.917C492.62 147.302 500.99 155.592 507.89 164.973C514.848 174.431 520.246 185.033 524.09 196.113C525.023 198.805 525.862 201.529 526.601 204.279C527.015 205.819 527.458 207.416 526.954 208.992C526.541 210.281 525.624 211.241 524.547 212.015C523.088 213.063 520.159 213.745 520.216 215.855C520.26 217.458 520.806 219.146 521.072 220.731C521.389 222.618 521.65 224.517 521.91 226.413C523.095 235.041 524.017 243.719 524.425 252.421C524.826 260.989 525.16 269.732 524.564 278.297C524.524 278.862 524.355 279.381 524.083 279.819C524.337 279.916 524.357 280.389 524.04 280.456C523.818 280.503 523.597 280.549 523.375 280.596C522.915 280.944 522.34 281.157 521.679 281.178C521.23 281.192 520.782 281.212 520.335 281.235C515.61 282.22 510.885 283.15 506.099 283.854C500.28 284.711 494.444 285.409 488.59 285.976C476.562 287.142 464.628 286.755 452.583 286.127C440.557 285.499 428.538 285.353 416.5 285.665C404.451 285.977 392.406 286.5 380.355 286.714C366.891 286.952 353.447 286.586 340.022 285.519C338.181 285.372 337.042 283.912 337.405 282.089C339.58 271.168 342.045 260.32 343.993 249.351Z" fill="#FFDBB4"/>
<path fill-rule="evenodd" clip-rule="evenodd" d="M467.424 133.041L467.161 132.94C463.607 131.555 459.908 129.322 456.042 130.147C455.905 130.096 453.389 130.607 451.666 130.931L453.302 132.634L456.188 133.187C446.231 149.573 434.454 157.765 420.859 157.765C407.263 157.765 396.946 149.573 389.909 133.187L388.949 132.922C388.83 132.95 388.704 132.989 388.569 133.041C386.298 133.916 381.866 137.827 379.693 138.922C370.955 143.327 363.885 149.924 359.706 158.833C357.577 163.37 355.987 168.135 354.357 172.867L354.188 173.356C352.379 178.589 350.597 183.832 348.971 189.125C347.44 194.108 346.049 199.136 344.912 204.224L344.759 204.918C344.204 207.458 343.317 210.309 343.523 212.925C343.601 213.916 343.857 214.764 344.236 215.534L363.93 222.6L354.547 286.404C363.142 286.771 371.744 286.866 380.355 286.714C392.406 286.5 404.451 285.977 416.5 285.665C428.174 285.362 439.829 285.491 451.49 286.071L454.451 286.222C465.863 286.791 477.184 287.082 488.59 285.976L489.368 285.9L489.368 276.567L485.361 224.597L505.666 220.786L525.599 211.133C526.201 210.533 526.685 209.832 526.953 208.992C527.42 207.532 527.075 206.054 526.693 204.621L526.601 204.279C525.862 201.529 525.023 198.805 524.09 196.113C520.246 185.033 514.848 174.431 507.89 164.973C500.99 155.592 492.62 147.302 482.847 140.917C478.001 137.751 472.842 135.087 467.424 133.041Z" fill="#EC7495"/>
<path fill-rule="evenodd" clip-rule="evenodd" d="M459.799 129.878C458.554 129.824 457.284 130.025 456.042 130.147C455.934 130.157 455.892 130.324 456.014 130.349C458.237 130.812 460.436 131.446 462.619 132.089L463.554 132.365C466.016 133.091 468.406 133.84 470.79 134.809C475.54 136.739 480.051 139.344 484.204 142.338C500.193 153.864 511.765 171.315 519.067 189.383C521.05 194.29 522.731 199.319 524.092 204.432C524.423 205.676 524.734 206.925 525.03 208.178C525.116 208.546 525.494 209.486 525.287 209.862C525.104 210.194 524.392 210.4 524.061 210.573L522.944 211.15C520.766 212.269 517.138 214.109 516.775 214.288L516.207 214.567C506.926 219.103 497.01 222.95 486.566 223.216L486.484 222.327C486.019 217.411 485.408 212.468 484.074 207.703C484.002 207.447 483.675 207.534 483.645 207.761C482.902 213.402 483.14 219.087 483.399 224.755C483.858 234.792 484.468 244.824 485.009 254.858C485.281 259.877 485.631 264.893 485.948 269.91C486.265 274.936 486.367 280.084 487.091 285.069C487.253 286.18 488.558 286.784 489.547 286.667C490.64 286.537 491.482 285.577 491.487 284.476C491.5 281.571 491.134 278.633 490.931 275.736C490.738 272.984 490.53 270.233 490.318 267.482C489.541 257.442 488.648 247.414 487.822 237.379C487.529 233.819 487.213 230.263 486.887 226.707C497.951 226.352 508.287 222.266 518.147 217.492C518.29 220.723 518.634 223.948 518.968 227.166C519.9 236.145 520.721 245.121 521.336 254.128C521.646 258.677 521.872 263.232 522.069 267.787C522.166 270.026 522.244 272.265 522.305 274.505C522.325 275.252 522.343 275.998 522.36 276.745L522.393 278.456C522.421 279.54 522.531 280.544 523.446 281.333C524.375 282.134 525.63 282.177 526.549 281.333C527.78 280.203 527.563 278.663 527.526 277.145C527.496 275.865 527.459 274.585 527.417 273.305C527.332 270.745 527.224 268.186 527.092 265.628C526.63 256.686 525.707 247.779 524.502 238.908L524.031 235.484C523.152 229.118 522.187 222.607 520.222 216.474C520.987 216.095 521.75 215.713 522.51 215.329C523.858 214.649 525.252 214.01 526.562 213.259C527.601 212.663 528.498 211.846 528.787 210.64C529.11 209.296 528.616 207.827 528.289 206.516L528.26 206.401C527.939 205.081 527.592 203.766 527.227 202.458C525.746 197.152 523.915 191.949 521.771 186.873C517.48 176.711 511.941 167.057 505.174 158.328C499.084 150.47 491.889 143.345 483.456 138.001C479.334 135.388 474.94 133.243 470.294 131.726C468.122 131.017 465.759 130.4 463.486 130.147C462.259 130.01 461.031 129.931 459.799 129.878ZM437.738 113.775C436.258 112.191 433.319 113.83 434.029 115.928C435.7 120.864 438.361 125.365 442.514 128.608C446.418 131.657 451.073 133.637 456.086 133.214C456.125 133.211 456.158 133.201 456.188 133.187L455.756 133.772C452.364 138.346 448.786 142.857 444.473 146.596C435.687 154.215 423.723 158.324 412.17 155.401C403.081 153.101 395.073 145.935 392.718 136.802C393.056 136.953 393.457 137.004 393.898 136.909C395.782 136.501 397.647 134.525 398.862 133.108C400.177 131.576 401.204 129.921 401.956 128.05C403.334 124.626 403.775 120.218 401.895 116.902C401.663 116.493 401.127 116.722 401.082 117.121L401.01 117.744C400.648 120.852 400.196 123.859 398.726 126.692C398.007 128.079 397.145 129.432 396.095 130.593C395.534 131.215 394.925 131.808 394.268 132.329C393.627 132.837 392.852 133.203 392.278 133.786L392.173 133.898L392.17 133.878C392.025 132.647 391.159 132.105 390.312 132.139C389.493 132.172 388.53 132.531 388.158 132.704L388.122 132.72C382.405 135.456 377.14 139.023 372.185 142.98C361.939 151.163 354.261 161.86 350.541 174.457C348.716 180.64 347.668 187.01 346.562 193.351L345.881 197.236C344.849 203.09 343.696 209.059 341.366 214.504C340.763 215.913 341.228 217.234 342.706 217.788C344.551 218.479 346.403 219.149 348.259 219.811C347.348 223.707 346.792 227.739 346.11 231.654C344.659 239.978 342.881 248.248 341.357 256.56C340.578 260.81 339.875 265.075 339.096 269.325C338.722 271.372 338.33 273.416 337.95 275.462C337.745 276.565 337.559 277.672 337.364 278.777L337.33 278.96C337.218 279.543 337.077 280.146 337.238 280.729C337.421 281.394 337.942 281.864 338.407 282.341C338.789 282.734 339.342 282.736 339.811 282.522L339.965 282.451C340.803 282.06 341.458 281.671 341.756 280.729C341.944 280.133 342.011 279.461 342.134 278.847C342.37 277.669 342.594 276.49 342.805 275.307C343.227 272.941 343.639 270.573 344.041 268.204L344.417 265.985C345.707 258.338 346.933 250.644 347.552 242.916C347.827 239.488 348.118 236.062 348.412 232.636L348.633 230.066C348.912 226.814 349.253 223.479 349.301 220.182L350.41 220.575L355.823 222.483C357.165 222.956 358.874 223.925 360.318 223.749C361.025 223.662 361.564 223.44 361.981 223.037C361.482 230.051 360.807 237.052 359.908 244.018C359.09 250.356 358.183 256.685 357.112 262.986C356.581 266.106 356.036 269.223 355.444 272.332C355.148 273.886 354.842 275.439 354.528 276.99C354.371 277.764 354.184 278.538 354.062 279.318C353.922 280.212 354.168 280.761 354.669 281.496C355.08 282.1 355.902 282.41 356.569 281.993C357.452 281.441 357.912 280.962 358.172 279.957C358.408 279.043 358.551 278.089 358.734 277.164C359.071 275.456 359.397 273.745 359.712 272.033C360.369 268.452 360.976 264.861 361.517 261.261C363.425 248.575 364.636 235.784 365.248 222.972C365.55 216.65 365.643 210.324 365.589 203.996C365.562 200.752 365.456 197.499 365.226 194.264C364.993 190.989 364.508 187.779 364.075 184.536C364.06 184.422 363.898 184.415 363.891 184.536C363.686 188.172 363.365 191.805 363.208 195.451C363.058 198.93 362.992 202.414 362.872 205.895C362.715 210.469 362.498 215.047 362.21 219.621C361.688 219.052 360.902 218.724 360.115 218.852C358.975 218.614 357.748 218.017 356.661 217.655L352.565 216.291C350.411 215.574 348.257 214.862 346.096 214.171C348.028 207.689 349.352 201.111 350.482 194.437L350.986 191.436C351.984 185.528 353.06 179.617 354.867 173.896C356.767 167.881 359.61 162.289 363.382 157.224C367.1 152.234 371.623 147.839 376.281 143.728C380.268 140.21 384.533 137.032 388.6 133.61C388.557 133.837 388.548 134.087 388.586 134.361C389.45 140.671 392.752 146.547 397.352 150.917C406.595 159.698 420.277 161.519 432.106 157.402C443.549 153.419 453.667 143.987 457.241 132.315C457.302 132.116 457.034 132.036 456.926 132.183C456.728 132.454 456.529 132.725 456.329 132.996C456.343 132.888 456.286 132.771 456.153 132.72C451.983 131.114 447.887 128.837 444.761 125.616C443.237 124.046 441.908 122.267 440.858 120.348C440.355 119.429 439.903 118.477 439.543 117.494L439.451 117.239C439.015 116.007 438.65 114.751 437.738 113.775Z" fill="black"/>
<path fill-rule="evenodd" clip-rule="evenodd" d="M384.308 44.6063C385.251 38.9046 382.156 37.7215 384.308 32.3015C389.092 22.2587 402.128 22.6914 411.695 21.9192C422.365 21.5106 433.165 22.9181 443.001 27.1912C445.351 28.2118 447.611 29.412 449.777 30.7757C451.651 31.955 451.393 34.1972 450.212 35.4204C458.729 47.4717 453.858 63.6481 460.654 76.3335C461.909 78.601 463.57 80.6343 464.661 82.9937C466.32 86.5801 466.426 91.7189 462.664 94.1007C457.366 96.9419 454.41 91.3164 451.807 99.4713C438.806 127.906 412.667 129.507 387.853 114.682C385.706 113.489 383.515 112.141 381.894 110.266C378.214 106.128 378.647 100.31 378.566 95.1427C378.52 92.1146 378.513 89.0861 378.542 86.0575C378.658 73.79 382.727 56.7728 384.308 44.6063Z" fill="#FFDBB4"/>
<path fill-rule="evenodd" clip-rule="evenodd" d="M437.16 10.5032C422.178 3.71258 405.185 1.13741 388.841 2.82653C380.775 3.65893 372.814 5.44479 365.239 8.34575L364.574 8.60216C362.704 9.32134 360.688 10.0352 359.267 11.4991C357.613 13.2004 357.149 15.7732 358.332 17.8748C359.25 19.5078 360.902 20.6792 362.663 21.3043C362.043 21.812 361.454 22.3783 360.902 23.0105C359.971 24.0699 359.9 25.5806 360.902 26.6255C362.832 28.6393 365.336 30.0963 368.033 30.7946C367.73 32.2567 367.893 33.8751 368.543 35.3323C370.408 39.5153 375.66 40.0138 379.702 39.7654L379.825 39.7577L380.049 42.328C380.169 43.6973 380.99 44.7591 382.382 44.9691C382.431 44.9764 382.48 44.9813 382.529 44.9859C380.325 52.9484 378.994 61.157 377.765 69.3173C377.123 73.5769 376.548 77.8465 375.998 82.1188L375.816 83.543C375.229 88.149 374.497 92.8014 374.242 97.4416C374.015 101.652 374.819 105.672 377.416 109.07C379.746 112.116 382.925 114.399 386.342 116.093C394.064 119.922 402.192 122.773 410.732 124.096L411.302 124.184C414.599 124.687 417.995 125.111 421.256 124.199C424.122 123.398 427.127 121.333 426.479 118.016C426.262 116.896 424.694 116.847 424.156 117.713L424.032 117.912C423.388 118.934 422.681 119.883 421.557 120.41C420.24 121.031 418.713 121.204 417.275 121.221C413.256 121.267 409.071 120.267 405.202 119.263C397.975 117.389 390.554 114.333 384.635 109.702C382.116 107.735 380.093 105.275 379.38 102.109C378.498 98.2056 379.309 93.9389 379.71 90.0163C380.534 81.9224 381.515 73.8434 382.551 65.7735L382.759 64.1596C383.63 57.4129 384.546 50.6637 384.982 43.878C385.162 43.6314 385.284 43.3507 385.333 43.0432L385.402 42.6014C385.46 42.223 385.47 41.8764 385.429 41.5567C385.426 40.3313 385.392 39.1133 385.321 37.8877C385.309 37.6683 385.299 37.4486 385.292 37.2313C386.567 37.512 387.852 37.739 389.142 37.9319C398.21 39.2964 407.42 39.6381 416.561 38.9595C421.122 38.62 425.649 38.0368 430.161 37.307C432.457 36.936 434.746 36.5259 437.028 36.067C438.677 35.7375 440.292 35.2908 441.914 34.871C443.587 37.3046 444.491 40.2996 444.315 43.2409C444.117 46.5972 441.88 49.641 442.507 53.0705C443.097 56.2801 445.849 57.2752 448.566 58.0701L449.721 58.4037C450.61 58.6631 451.256 58.9133 451.417 59.9807C451.693 61.8139 451.353 63.8765 451.282 65.7194C451.197 67.8991 451.085 70.0788 451.033 72.2586C451.006 73.3863 450.963 74.5189 450.965 75.6466C450.967 76.4472 451.087 76.994 451.397 77.5112C451.158 77.8117 450.943 78.1363 450.752 78.4805C450.691 78.5928 450.843 78.7121 450.933 78.6196C451.175 78.3682 451.432 78.1412 451.703 77.9384C451.839 78.107 451.998 78.2779 452.184 78.461L452.198 78.4414C452.78 79.0199 453.703 79.0761 454.424 78.461L454.613 78.2972C455.141 77.8351 455.504 77.4502 455.65 76.6864C455.658 76.6474 455.665 76.6083 455.67 76.5693C457.011 76.5229 458.374 76.84 459.581 77.5066C461.494 78.5635 462.84 80.0695 463.636 81.9295C463.319 82.3005 462.947 82.6325 462.515 82.9108C462.454 82.9523 462.508 83.0426 462.574 83.0109C463.016 82.8034 463.411 82.5471 463.766 82.2468C464.052 82.9791 464.252 83.7651 464.374 84.5975C464.804 87.5363 464.037 91.1269 461.379 92.8014C460.228 93.5264 458.914 93.9193 457.551 93.9242C456.887 93.9264 456.312 93.8144 455.667 93.6557C455.23 93.5483 454.795 93.3921 454.338 93.3921C453.948 93.3921 453.586 93.4897 453.251 93.685L453.344 93.6931C453.57 93.7143 453.526 93.7238 453.212 93.7238C452.235 93.7656 451.676 94.7566 452.125 95.6182L452.184 95.7513C452.197 95.7782 452.207 95.8005 452.215 95.8181L452.251 96.0467C452.254 96.0684 452.258 96.0908 452.262 96.1137L452.276 96.16C452.278 96.1674 452.281 96.1748 452.284 96.1821L450.818 98.4151C449.022 101.147 447.185 103.868 445.094 106.363C443.629 108.113 442.075 109.829 440.433 111.418C438.958 112.846 437.189 113.535 435.518 114.657C434.626 115.253 434.365 116.5 435.176 117.303C437.556 119.664 440.924 117.789 442.876 115.871C444.723 114.052 446.318 111.865 447.694 109.675C450.134 105.782 452.076 101.642 452.926 97.1487C453.281 97.4733 453.733 97.6759 454.189 97.8346C455.106 98.1519 456.114 98.2837 457.082 98.3179C458.936 98.3789 460.793 97.9298 462.461 97.134C469.25 93.8998 470.247 84.2142 466.096 78.5025C466.656 76.8808 466.968 75.1213 467.308 73.6208L467.463 72.9501C469.179 65.4582 470.331 57.5704 467.288 50.2293C466.898 49.2822 466.458 48.3595 465.937 47.4759C465.52 46.7656 464.802 46.0089 464.604 45.201C464.164 43.4264 466.878 41.5615 467.669 40.1531C468.6 38.5006 468.732 36.5503 467.464 35.0391C467.303 34.849 467.127 34.673 466.937 34.5195C468.139 32.3422 468.195 29.6035 466.612 27.4554C465.571 26.0397 463.983 25.0487 462.249 24.7485C461.188 24.5654 459.913 24.6337 458.748 24.9608C452.367 19.0416 445.087 14.0963 437.16 10.5032ZM461.662 84.5682C459.96 83.067 458.078 82.281 455.758 82.4788C453.425 82.6787 450.615 83.6431 449.245 85.6422C448.163 87.2215 450.369 89.5379 451.957 88.3516C453.403 87.2703 454.368 86.0498 456.163 85.4689C457.776 84.949 459.772 84.6146 461.46 84.9124C461.645 84.9441 461.831 84.7146 461.662 84.5682Z" fill="black"/>
<path fill-rule="evenodd" clip-rule="evenodd" d="M398.668 101.756C398.292 101.105 397.428 100.502 396.637 100.594C393.092 101.009 393.098 105.293 394.467 107.795C395.68 110.013 398.192 111.315 400.706 111.125C403.346 110.925 405.596 109.377 406.587 106.914C407.241 105.284 407.544 102.276 405.802 101.182C405.77 101.161 405.716 101.166 405.691 101.196C404.855 102.165 404.822 103.619 404.091 104.698C403.411 105.701 402.355 106.529 401.117 106.657C400.192 106.753 399.257 106.421 398.896 105.593C398.7 105.145 398.722 104.902 398.796 104.594L398.863 104.327C399.094 103.389 399.198 102.675 398.668 101.756ZM397.72 82.9643C395.872 84.0847 393.055 86.6972 395.044 89.4748C397.385 91.9239 400.755 89.1159 402.416 87.8459C403.956 86.8617 405.686 89.393 404.257 90.5423C392.256 99.4017 387.386 83.2573 396.785 81.647C397.82 81.4695 398.205 82.6177 397.72 82.9643ZM417.242 75.2816C416.107 73.5842 413.517 73.8341 412.892 75.8484C412.554 76.9395 413.021 77.9202 412.997 79.0099C412.977 79.9303 413.037 80.956 413.32 81.8474C413.966 83.8802 415.799 85.316 417.968 85.2564C420.131 85.1971 422.035 83.8326 422.941 81.9109C423.849 79.9818 423.657 77.9854 422.993 76.0239C422.962 75.9297 422.838 75.884 422.763 75.9633C421.979 76.7943 421.405 77.6715 420.811 78.602L420.202 79.5557C419.737 80.2738 419.061 81.1912 418.192 81.1336L418.062 81.1208C417.82 81.1001 417.857 81.1479 417.671 80.8198C417.585 80.668 417.601 80.3858 417.559 80.2066L417.544 80.1461L417.552 80.1135C417.571 80.0267 417.589 79.8632 417.604 79.5795L417.607 79.5168C417.67 78.1897 418.046 76.4842 417.242 75.2816ZM388.479 76.4116C388.683 74.2407 385.622 73.7586 384.604 75.365C384.073 76.2027 383.919 77.255 383.801 78.2519L383.746 78.7251C383.626 79.7491 383.578 80.8143 384.024 81.7695C384.726 83.2738 386.253 84.069 387.9 83.9431C389.473 83.8225 390.908 82.9133 391.664 81.5329C392.339 80.3012 393.009 77.8964 392.19 76.6118C392.141 76.5339 392.042 76.5239 391.974 76.584C391.2 77.2691 391.074 78.5189 390.614 79.4115C390.139 80.3322 389.419 81.2295 388.328 81.3694C387.284 81.5031 386.885 80.9347 387.152 79.9424C387.495 78.6614 388.35 77.79 388.479 76.4116ZM416.415 62.3748L415.915 62.1836C414.2 61.5376 411.845 60.7909 410.45 62.1815C409.59 63.039 409.426 64.3022 410.04 65.3486C410.784 66.6162 412.119 66.6474 413.407 66.8341C414.873 67.0465 416.364 67.4502 417.728 68.0258C419.265 68.6743 420.692 69.4828 422.09 70.3857C423.418 71.2437 424.742 72.646 426.332 72.9103C426.396 72.9211 426.47 72.8932 426.487 72.8222C426.848 71.2722 425.845 69.7469 424.949 68.5377C423.866 67.0736 422.553 65.8719 421.085 64.7945C419.669 63.7544 418.051 63.0029 416.415 62.3748ZM385.259 67.8856L385.106 67.8589C384.066 67.6862 383.124 67.726 382.34 68.5473C381.742 69.1739 381.511 69.986 381.796 70.8144C382.059 71.5787 382.648 72.3552 383.502 72.5153C386.386 73.0562 389.58 72.9668 392.478 72.5573C393.804 72.3698 395.141 72.1404 396.433 71.7786L397.027 71.6069C398.105 71.2998 399.34 70.979 400.123 70.1883C400.404 69.9042 400.242 69.4976 399.905 69.366C398.539 68.8324 396.666 69.1163 395.208 69.0746C393.513 69.0262 391.816 68.8995 390.129 68.725C388.48 68.5542 386.885 68.1829 385.259 67.8856Z" fill="black"/>
<g clip-path="url(#clip0_1_234)">
<path d="M200.407 181.508H257.803V252.097H200.407V181.508Z" fill="#FDEA6B"/>
<path fill-rule="evenodd" clip-rule="evenodd" d="M274.543 112.466C268.356 107.76 252.824 105.645 246.22 110.175C239.698 114.724 238.987 122.081 235.948 128.849C233.081 127.499 228.345 129.433 227.514 132.09C226.483 133.344 226.436 136.865 225.725 138.55C194.786 143.468 190.089 167.558 186.365 194.906C181.438 222.658 170.255 250.35 175.11 278.907C174.477 279.821 173.979 280.71 173.517 281.765C172.412 283.643 173.836 286.301 176.065 286.198C178.95 285.945 181.806 285.599 184.705 285.491C192.74 285.213 200.783 285.246 208.821 285.348L209.917 285.362C250.429 285.866 290.938 286.858 331.451 287.122C332.92 287.124 333.64 285.807 333.444 284.509C333.048 281.894 332.682 279.278 332.299 276.663C341.881 279.19 352.068 279.826 361.624 276.929C362.292 276.248 360.066 276.617 359.713 276.514C368.507 270.513 365.881 257.87 365.102 248.764C360.258 217.562 358.55 183.04 339.835 156.415C331.739 145.549 319.869 136.947 306.23 135.011L305.851 134.959C301.863 134.428 297.418 134.257 293.931 132.09C290.01 128.964 288.338 123.186 284.213 123.132C282.85 123.114 280.997 124.836 279.002 126.004C278.854 123.433 277.466 121.264 277.16 119.27L277.135 119.1C276.816 116.776 277.253 114.685 274.543 112.466ZM208.052 195.731C216.747 189.698 239.207 192.729 239.722 193.067C240.854 193.811 241.341 193.877 241.954 194.842C242.558 194.922 243.162 195.006 243.766 195.091C244.977 195.486 244.079 196.974 242.681 196.443C243.522 200.066 241.046 202.643 240.061 206.224C239.741 207.387 240.049 209.479 240.061 210.667C239.965 212.182 238.288 213.972 238.567 215.492C239.561 220.896 244.954 226.168 242.681 231.409C241.174 234.368 236.644 235.878 233.632 236.884C227.391 239.276 216.517 236.794 212.891 231.409C210.957 228.536 208.717 221.29 207.563 219.042L207.308 215.477C206.678 206.614 206.117 197.074 208.052 195.731Z" fill="#D08B5B"/>
<path fill-rule="evenodd" clip-rule="evenodd" d="M284.534 123.148L282.046 124.673L267.595 131.808C264.793 132.591 263.392 133.53 263.392 134.624V145.768C263.392 147.259 260.763 150.639 255.505 155.907L250.647 151.071L250.756 150.438C251.218 147.709 251.449 145.884 251.449 144.962C251.449 143.971 246.697 140.207 237.192 133.672L233.034 129.762L233.477 128.415C230.913 128.536 228.132 130.113 227.514 132.09C226.483 133.344 226.436 136.865 225.725 138.55C194.786 143.468 190.089 167.558 186.365 194.907C181.438 222.658 170.255 250.35 175.11 278.907C174.477 279.821 173.979 280.71 173.517 281.765C172.412 283.643 173.836 286.301 176.065 286.198C178.95 285.945 181.806 285.599 184.705 285.492C192.74 285.213 200.783 285.246 208.821 285.348L209.917 285.362C250.429 285.866 290.938 286.858 331.451 287.122C332.92 287.124 333.64 285.807 333.444 284.509C333.048 281.894 332.682 279.279 332.299 276.663C341.881 279.19 352.068 279.826 361.624 276.929C362.292 276.249 360.066 276.617 359.713 276.514C368.507 270.513 365.881 257.87 365.102 248.764C360.258 217.563 358.55 183.04 339.835 156.415C331.739 145.549 319.869 136.947 306.23 135.011L305.851 134.959L305.47 134.91C301.582 134.415 297.308 134.188 293.931 132.09C290.113 129.046 288.428 123.489 284.534 123.148ZM249.907 188.556C251.324 188.556 254.227 190.755 258.615 195.151L259.002 195.33C264.307 197.79 267.821 199.925 269.545 201.733L269.606 201.799C271.348 203.664 274.796 208.626 279.951 216.682L287.417 221.091H290.242L292.253 235.661L287.417 246.063L276.463 242.378L258.615 237.68L248.374 227.303L242.597 225.366C243.298 227.389 243.552 229.401 242.681 231.409C241.174 234.369 236.644 235.878 233.632 236.884C227.391 239.276 216.517 236.794 212.891 231.409C210.957 228.536 208.717 221.29 207.563 219.043L207.233 214.411C206.637 205.864 206.194 197.02 208.052 195.731C216.747 189.698 239.207 192.729 239.722 193.067C240.854 193.811 241.341 193.877 241.954 194.842L242.271 194.885L240.488 192.471L241.119 192.134C245.623 189.749 248.552 188.556 249.907 188.556ZM242.681 196.443C243.486 199.912 241.251 202.421 240.195 205.772L242.895 200.609L242.895 196.51C242.825 196.493 242.753 196.471 242.681 196.443Z" fill="#9DDADB"/>
<path fill-rule="evenodd" clip-rule="evenodd" d="M285.727 122.61C285.127 122.079 284.239 122.746 284.62 123.463C285.478 125.075 286.357 126.602 287.507 128.027C288.205 128.89 288.952 129.707 289.709 130.515C287.766 132.194 286.099 134.279 284.526 136.232C282.513 138.73 280.611 141.335 278.352 143.621C276.124 145.875 273.66 147.451 270.682 148.502L270.08 148.711C267.088 149.76 263.89 151.177 262.204 154.006C261.871 154.564 262.541 155.254 263.104 154.905C266.034 153.093 269.478 152.729 272.668 151.531C275.75 150.374 278.436 148.594 280.809 146.322C283.179 144.054 285.169 141.473 287.244 138.947C289.296 136.449 291.506 134.316 293.933 132.202C297.679 134.719 301.955 135.814 306.303 136.89L306.777 137.007C311.13 138.083 315.46 139.333 319.544 141.208C323.145 142.86 326.686 144.833 329.619 147.522C332.732 150.376 335.156 154.02 337.374 157.584C342.335 165.558 345.822 174.294 348.893 183.136C352.087 192.333 354.758 201.714 356.914 211.207C358.011 216.036 358.902 220.898 359.634 225.795C359.987 228.154 360.3 230.517 360.574 232.886C360.868 235.415 360.935 238.018 361.712 240.45C362.045 241.492 362.832 241.924 363.619 241.888L363.779 243.885C363.991 246.548 364.189 249.211 364.256 251.891C364.366 256.346 364.316 260.788 363.995 265.233L363.95 265.84C363.698 269.084 363.134 272.73 360.691 275.106C358.161 277.566 354.271 278.34 350.861 278.384C342.919 278.488 335.274 274.74 328.246 271.452C321.008 268.066 313.968 264.308 307.097 260.231C303.597 258.156 300.136 256.011 296.718 253.803C295.041 252.72 293.376 251.618 291.723 250.498C290.777 249.857 289.88 249.154 288.916 248.585C289.388 248.146 289.599 247.455 289.203 246.853C291.989 244.438 293.149 240.128 293.284 236.641C293.394 233.826 292.979 231.019 292.652 228.231C292.486 226.825 292.282 225.422 292.071 224.022C291.987 223.469 291.923 222.877 291.825 222.294C299.348 226.422 307.081 230.099 315.019 233.365C319.088 235.039 323.209 236.545 327.386 237.924L328.233 238.202C332.192 239.496 336.245 240.719 340.337 241.459C340.556 241.498 340.734 241.176 340.5 241.073C336.512 239.315 332.386 237.833 328.338 236.215L327.673 235.944C327.749 235.94 327.828 235.929 327.911 235.909C330.285 235.337 332.64 234.455 334.969 233.713C337.13 233.024 339.558 232.591 341.578 231.551C341.733 231.471 341.646 231.255 341.495 231.245C339.224 231.087 336.76 231.748 334.534 232.137L333.698 232.283C332.297 232.53 330.865 232.795 329.471 233.141C329.421 232.675 329.16 232.206 328.789 231.932C324.704 228.911 325.119 222.809 324.682 218.31L324.358 214.969C323.788 209.123 323.185 203.278 322.27 197.475C322.221 197.166 321.741 197.254 321.739 197.547C321.692 204.74 322.235 211.899 322.508 219.081L322.55 220.259C322.701 224.69 322.819 229.291 325.613 232.701C325.222 232.473 324.694 232.473 324.377 232.849C323.988 233.311 323.764 233.83 323.771 234.34C321.246 233.282 318.732 232.198 316.23 231.091C308.186 227.532 300.311 223.549 292.644 219.24C291.819 218.776 291.035 219.14 290.627 219.752L290.568 219.743C290.558 219.742 290.548 219.741 290.538 219.741L290.48 219.738C290.477 219.738 290.475 219.738 290.473 219.738C289.394 219.146 287.924 219.568 286.997 220.432C286.97 220.458 286.947 220.486 286.923 220.513C285.75 219.988 284.655 219.278 283.662 218.379C281.629 216.538 279.906 214.263 278.405 211.981C275.64 207.778 273.292 203.105 269.557 199.645C266.523 196.834 262.761 195.084 258.814 193.986C258.83 193.871 258.786 193.748 258.707 193.666C258.504 193.459 258.359 193.387 258.097 193.513C258.076 193.523 258.064 193.537 258.055 193.552L257.67 192.895C257.46 192.539 257.244 192.179 257.169 192.085C256.721 191.522 256.26 190.962 255.792 190.415C254.998 189.488 254.094 188.573 253.046 187.931C250.753 186.524 248.342 187.32 245.984 188.089C244.56 188.554 243.14 189.033 241.718 189.505L241.571 189.553C240.51 189.893 239.27 190.191 238.795 191.313C238.608 191.757 238.579 192.218 238.666 192.665C228.594 190.107 217.408 191.282 207.58 194.285C207.203 194.4 206.826 194.71 206.746 195.117C205.62 200.884 205.119 206.799 205.628 212.665C206.068 217.728 207.191 222.69 209.308 227.326L209.429 227.587C211.418 231.883 214.571 237.179 219.387 238.526C222.294 239.339 225.51 238.859 228.476 238.71C231.358 238.565 234.304 238.544 237.158 238.092C239.701 237.689 241.929 236.551 243.5 234.486C244.855 232.705 245.569 230.552 246.154 228.411C246.422 228.496 246.687 228.586 246.949 228.689C248.054 229.119 248.99 229.815 249.836 230.633C251.623 232.361 253.009 234.46 254.878 236.109C256.57 237.602 258.499 238.763 260.567 239.656C264.853 241.505 269.452 242.244 273.985 243.225L274.302 243.293C277.715 244.041 281.199 244.96 284.211 246.734C284.27 247.257 284.509 247.748 284.891 248.07C284.359 248.569 284.134 249.358 284.601 250.098C285.905 252.166 288.152 253.342 290.169 254.664L290.3 254.75C292.284 256.064 294.285 257.351 296.303 258.613C300.405 261.177 304.592 263.601 308.839 265.918C315.669 269.644 322.646 273.159 329.749 276.348C329.322 278.443 329.478 280.603 329.158 282.711L329.109 283.012C328.972 283.795 329.157 284.449 329.696 284.961L329.753 285.013L329.752 285.006L329.803 285.052L329.82 285.067L329.814 285.062C329.877 285.119 329.941 285.172 330.006 285.217L330.089 285.271C330.609 285.586 331.279 285.583 331.811 285.304L331.872 285.271L331.974 285.212C332.677 284.808 333.162 283.807 332.871 283.012C332.153 281.058 331.883 278.972 331.22 277.004L331.746 277.239L332.438 277.54C339.927 280.774 348.245 283.498 356.404 281.293C360.009 280.319 363.379 278.257 365.183 274.898C366.958 271.592 367.209 267.754 367.303 264.077C367.419 259.539 367.176 254.931 366.576 250.432C366.174 247.411 365.687 244.334 364.937 241.345C365.323 241.005 365.607 240.517 365.682 239.913C366.036 237.058 365.416 234.09 365.037 231.25C364.666 228.477 364.256 225.709 363.793 222.95C362.858 217.379 361.772 211.819 360.507 206.312C358.255 196.512 355.283 186.887 351.703 177.491L351.39 176.673C348.083 168.085 344.253 159.68 338.921 152.135C336.37 148.526 333.674 145.253 330.07 142.652C326.693 140.215 322.885 138.461 318.954 137.119C315.019 135.777 310.975 134.878 306.859 134.318C302.68 133.75 298.268 133.402 294.368 131.69C294.862 130.807 294.438 129.614 293.608 129.067C290.815 127.223 288.231 124.825 285.727 122.61ZM196.299 202.765C196.182 202.587 195.904 202.7 195.955 202.91C197.314 208.469 198.589 214.039 199.422 219.704C200.926 229.93 200.649 240.288 200.526 250.589L200.52 251.122C200.457 256.67 200.369 262.219 200.185 267.765C200.093 270.568 199.909 273.399 200.009 276.203C200.063 277.725 200.469 279.164 200.613 280.667C200.739 281.981 200.627 283.316 200.564 284.632C200.522 285.507 201.815 285.47 201.903 284.632L202.016 283.549C202.162 282.177 202.342 280.814 202.792 279.502C203.334 277.923 203.593 276.372 203.781 274.715C204.069 272.175 204.196 269.609 204.307 267.052L204.383 265.282C204.847 254.593 204.83 243.853 204.08 233.175L204.025 232.413C203.282 222.319 201.993 211.413 196.299 202.765ZM225.261 139.149C225.616 139.003 225.492 138.467 225.099 138.561L224.384 138.731C219.147 139.984 214.005 141.341 209.117 143.672C204.226 146.004 200.085 149.486 196.794 153.768C190.398 162.091 187.74 172.207 185.642 182.312C183.31 193.541 181.187 204.812 178.835 216.037L178.398 218.129C176.221 228.584 174.166 239.045 172.652 249.625L172.543 250.392C171.016 261.271 170.098 272.527 171.764 283.434C172.094 285.592 175.689 285.054 175.549 282.922C175.143 276.759 174.852 270.628 175.133 264.451C175.414 258.272 175.994 252.121 176.859 245.996C177.587 240.842 178.672 235.753 179.632 230.639L179.783 229.832C180.587 225.483 181.416 221.139 182.243 216.794L183.479 210.289C185.331 200.548 187.22 190.799 189.354 181.12L189.481 180.551C191.569 171.238 194.649 161.484 200.913 154.089C207.271 146.585 216.371 142.805 225.261 139.149ZM248.362 237.921C248.209 237.581 247.674 237.619 247.509 237.921C246.865 239.109 246.794 240.624 246.672 241.964L246.659 242.102C246.504 243.737 246.367 245.378 246.283 247.019C246.124 250.132 246.048 253.242 246.057 256.359C246.067 259.554 246.132 262.746 246.304 265.936L246.351 266.791C246.509 269.563 246.773 272.655 248.092 275.079C248.571 275.96 249.875 275.701 250.153 274.81C251.063 271.893 250.595 268.433 250.362 265.445L250.181 263.113C250.001 260.781 249.83 258.449 249.695 256.114C249.509 252.92 249.355 249.723 249.208 246.527C249.16 245.489 249.108 244.451 249.053 243.413L248.969 241.856C248.897 240.554 248.903 239.125 248.362 237.921ZM350.659 242.057L350.256 241.668C349.019 240.46 347.457 238.599 345.629 238.714C344.9 238.76 344.436 239.364 344.587 240.08C344.91 241.611 346.474 242.406 347.599 243.34C348.832 244.364 349.995 245.458 351.154 246.563C352.184 247.542 353.173 248.549 354.139 249.588L354.5 249.979C354.846 250.357 357.312 252.584 357.045 253.162L357.031 253.188C356.957 253.298 357.08 253.45 357.203 253.412C358.268 253.076 358.202 252.164 357.799 251.241C357.026 249.467 355.671 247.825 354.488 246.31C353.309 244.799 352.032 243.391 350.659 242.057ZM244.503 197.563C245.327 195.619 248.36 195.66 250.082 195.776C254.418 196.069 259.109 197.165 262.967 199.189C266.967 201.287 269.661 204.649 272.072 208.367L272.185 208.542C274.535 212.189 276.798 216.507 280.477 219.016C282.351 220.293 284.539 221.46 286.813 221.965C286.969 222.24 287.222 222.457 287.554 222.535L287.708 222.571C288.355 222.713 289.361 222.872 290.23 222.777C290.225 223.202 290.229 223.623 290.218 224.025C290.188 225.178 290.175 226.335 290.175 227.489C290.174 229.906 290.304 232.327 290.203 234.744C290.114 236.881 289.812 239.114 288.784 241.025C288.03 242.427 287.036 243.354 285.835 244.24C282.881 242.442 279.54 241.346 276.15 240.522C272.05 239.526 267.853 238.861 263.846 237.509C261.917 236.859 260.063 236.008 258.384 234.851C256.601 233.624 255.239 231.962 253.838 230.338L253.619 230.085C252.189 228.448 250.629 226.88 248.608 225.993C246.868 225.228 244.575 225.091 243.053 223.908C242.257 223.289 242.191 222.39 242.107 221.47C243.082 221.609 244.113 221.386 245.084 221.272L245.588 221.213C246.506 221.104 247.403 220.985 248.307 220.751C248.475 220.708 248.475 220.455 248.307 220.412C247.239 220.136 246.18 220.019 245.084 219.891L244.827 219.859C243.836 219.729 242.794 219.533 241.822 219.751C241.648 219.088 241.396 218.455 241.042 217.821C240.546 216.931 239.608 215.921 239.481 214.881C239.443 214.571 239.515 214.205 239.662 213.93L239.713 213.836C239.774 213.726 239.847 213.615 239.954 213.546C239.966 213.56 239.991 213.575 240.045 213.592C240.793 213.828 241.446 213.462 241.793 212.898C243.263 213.08 244.868 213.019 246.247 213.08L247.641 213.147C249.131 213.215 250.688 213.245 252.088 212.945C252.284 212.903 252.343 212.578 252.147 212.494C250.426 211.759 248.338 211.525 246.496 211.242C245.467 211.084 244.43 210.964 243.398 210.825C242.711 210.733 241.981 210.58 241.269 210.543C239.484 208.323 240.446 204.822 242.93 203.866C243.835 204.264 244.649 204.033 245.638 203.948C246.625 203.863 247.615 203.806 248.606 203.81C250.591 203.819 252.696 204.341 254.662 204.116C254.982 204.079 255.279 203.654 254.961 203.395C253.456 202.168 251.299 201.768 249.388 201.507L248.992 201.454C248.351 201.37 247.572 201.247 246.764 201.175C246.581 200.819 246.254 200.55 245.761 200.483C245.615 200.463 245.468 200.451 245.321 200.438L245.323 200.424C244.122 200.366 244.174 198.34 244.503 197.563ZM326.73 235.466C326.751 235.499 326.774 235.53 326.799 235.56L326.837 235.604L326.639 235.524L326.73 235.466ZM223.545 193.22C228.6 192.678 233.663 192.792 238.733 192.938C239.139 194.262 240.55 195.391 241.918 195.434C240.847 197.062 240.736 199.266 241.487 200.993C239.892 201.627 238.518 202.766 237.684 204.388C236.528 206.636 236.679 209.138 237.822 211.217C236.846 212.099 236.271 213.531 236.328 214.881C236.393 216.387 237.291 217.673 238.038 218.92C238.845 220.268 238.872 221.455 239.12 222.965C239.482 225.175 240.975 226.515 242.895 227.352L242.793 227.753C242.298 229.677 241.682 231.708 240.267 233.115C238.447 234.925 235.623 234.908 233.218 235.023L233.102 235.029C230.9 235.139 228.699 235.268 226.498 235.392L224.847 235.484C222.313 235.624 219.879 235.64 217.81 233.967C214.432 231.236 212.116 226.715 210.651 222.713C207.574 214.314 207.537 205.096 208.95 196.348C213.685 194.824 218.599 193.751 223.545 193.22ZM265.586 207.155L265.549 207.158C264.508 207.277 263.793 208.119 263.538 209.117C263.168 210.568 263.35 211.88 262.46 213.191C261.544 214.538 260.981 215.616 260.848 217.281C260.794 217.966 260.819 218.649 260.666 219.319L260.555 219.789C260.438 220.289 260.342 220.772 260.4 221.309C260.454 221.8 260.693 222.182 261.185 222.339C262.79 222.852 264.029 221.671 264.444 220.177C264.802 218.887 264.324 217.35 264.829 216.138C265.109 215.466 265.625 214.905 265.917 214.229C266.206 213.559 266.351 212.858 266.397 212.13C266.485 210.752 265.265 209.097 265.946 207.849C266.091 207.582 265.927 207.147 265.586 207.155ZM286.904 192.938C285.817 192.718 284.584 192.212 283.512 192.632C282.961 192.848 282.689 193.519 283.155 193.986C283.963 194.795 285.137 194.84 286.226 195.031L286.321 195.048C287.608 195.286 288.898 195.511 290.189 195.725C292.618 196.127 295.052 196.482 297.496 196.784C300.005 197.094 302.521 197.37 305.041 197.578L306.017 197.658C308.145 197.828 310.36 197.956 312.449 197.63C312.752 197.583 312.703 197.142 312.449 197.064C310.161 196.373 307.651 196.187 305.285 195.895C302.77 195.583 300.26 195.254 297.756 194.863C295.256 194.473 292.759 194.055 290.271 193.592C289.147 193.383 288.024 193.165 286.904 192.938ZM247.69 190.718C248.644 190.38 249.693 189.881 250.726 190.048C252.509 190.336 254.095 192.07 255.505 193.212L254.797 193.075C251.173 192.379 246.374 191.63 243.331 193.931C243.324 193.918 243.318 193.904 243.309 193.891C243.063 193.519 242.779 193.228 242.468 192.909C242.439 192.881 242.41 192.852 242.382 192.823L242.214 192.645L242.597 192.512C243.418 192.223 244.39 191.848 244.544 191.794L244.555 191.79C245.601 191.436 246.649 191.086 247.69 190.718ZM277.466 114.854C277.616 112.939 274.63 112.954 274.482 114.854C274.16 119.002 275.094 123.11 277.106 126.747C277.121 126.773 277.137 126.797 277.153 126.822C275.894 127.476 274.622 128.103 273.321 128.664C271.657 129.381 269.962 130.034 268.236 130.588C266.675 131.09 264.752 131.288 263.44 132.332C260.672 134.533 261.712 139.1 262.244 142.06L262.327 142.528C262.593 144.051 262.784 145.614 262.141 147.076C261.454 148.638 260.066 149.796 258.827 150.914L258.577 151.14C257.479 152.139 256.225 153.352 255.42 154.706C254.685 153.188 253.683 151.948 252.624 150.552C251.868 149.556 252.406 149.228 252.949 148.254C253.472 147.318 253.727 146.319 253.563 145.251C253.262 143.277 251.683 141.852 250.111 140.781C248.254 139.516 246.182 138.58 244.263 137.403C240.319 134.987 236.479 132.224 233.019 129.155C232.923 129.071 232.758 129.182 232.834 129.298C235.568 133.449 238.773 137.037 242.711 140.083C244.308 141.317 245.986 142.342 247.675 143.418L248.161 143.73C248.839 144.168 249.685 144.755 249.991 145.502C250.3 146.253 249.642 146.82 249.288 147.442C248.163 149.418 248.706 151.262 250.039 152.938L250.101 153.015C251.426 154.646 252.43 156.162 252.91 158.245C253.942 162.72 252.505 167.381 251 171.582L250.941 171.748C250.127 174.012 249.262 176.26 248.555 178.56L248.361 179.196C247.72 181.313 247.195 183.401 247.914 185.577C248.158 186.317 249.169 186.492 249.589 185.796C251.07 183.339 251.439 180.383 252.368 177.682C253.272 175.05 254.311 172.465 255.185 169.822C256.311 166.419 257.064 162.756 256.655 159.186C256.667 159.166 256.68 159.146 256.69 159.124L256.977 158.498C257.758 156.804 258.512 155.324 259.933 153.973C261.415 152.564 263.023 151.317 264.189 149.611C266.722 145.906 265.155 141.785 264.85 137.734L264.815 137.237C264.759 136.396 264.729 135.253 265.279 134.671C265.897 134.015 267.349 133.848 268.17 133.558C270.292 132.808 272.383 131.934 274.374 130.885C276.27 129.886 278.107 128.783 279.816 127.49L280.683 126.839C282.05 125.809 283.468 124.684 284.385 123.281C284.491 123.12 284.311 122.859 284.119 122.936C282.589 123.556 281.192 124.543 279.76 125.401C279.738 125.348 279.712 125.296 279.683 125.242C277.912 122.042 277.183 118.495 277.466 114.854ZM228.596 136.785C227.987 135.116 225.209 135.245 225.319 137.228C225.404 138.752 226.052 140.128 226.645 141.511L226.708 141.66C227.319 143.101 228.026 144.455 228.871 145.776C230.486 148.301 232.377 150.645 234.398 152.857C236.229 154.863 238.633 156.089 241.404 155.885C242.571 155.799 243.749 155.503 244.772 154.921C245.987 154.229 247.306 152.151 248.856 152.654C249.006 152.703 249.146 152.484 249.016 152.38C247.227 150.941 245.196 153.172 243.483 153.71C240.902 154.52 238.253 153.624 236.591 151.54C234.856 149.364 233.26 146.928 231.802 144.559C231.062 143.356 230.386 142.107 229.803 140.82C229.214 139.521 229.08 138.11 228.596 136.785ZM232.757 126.512C232.832 126.281 232.546 126.062 232.343 126.194C231.167 126.958 230.148 127.968 229.064 128.854C227.861 129.836 226.648 130.798 225.418 131.746C223.623 133.127 225.704 135.67 227.284 134.161C229.445 132.097 231.813 129.397 232.757 126.512ZM239.212 118.432C238.735 116.593 235.91 117.351 236.321 119.169L236.335 119.225C237.115 122.227 236.004 125.285 233.633 127.231L233.546 127.302C232.046 128.501 234.171 130.597 235.656 129.409C238.898 126.818 240.247 122.416 239.212 118.432Z" fill="black"/>
<path fill-rule="evenodd" clip-rule="evenodd" d="M214.942 32.9388C215.497 31.5358 216.48 29.7724 218.122 29.702C219.392 25.8159 222.55 21.8582 226.942 21.9634C239.835 8.76841 256.066 9.39044 273.035 12.1837C281.988 13.8455 291.079 17.0996 297.756 23.5211C305.754 31.081 308.868 44.2722 302.605 53.8319C308.018 56.7348 308.123 63.6234 305.808 68.5943C308.591 70.52 308.76 75.1938 305.627 76.6626C305.793 77.3455 305.675 78.0514 305.358 78.6581C306.911 79.9522 308.933 80.9082 310.605 81.7299C311.343 82.0932 311.77 82.6864 311.947 83.355C317.435 86.9585 331.12 95.765 330.957 102.774C331.038 106.431 328.328 108.837 325.034 109.795C326.994 113.716 328.481 118.295 326.605 122.525C326.087 123.802 322.202 127.558 322.007 127.627C321.665 127.921 316.092 125.36 313.383 124.054C312.858 127.473 309.204 129.265 306.055 128.093C303.069 127.192 301.234 124.662 299.35 122.361C296.851 127.818 289.496 127.881 284.742 125.528C280.473 123.554 277.228 119.937 275.42 115.578C265.82 120.281 254.589 121.652 244.159 119.773C243.49 120.959 242.009 121.755 240.689 121.296C235.143 119.628 229.011 119.534 224.31 115.711C214.511 108.672 213.686 95.6949 214.369 84.6328C214.975 73.6033 214.445 62.4819 216.448 51.5716C215.579 48.3593 214.132 45.5195 212.794 42.5018C211.341 39.3373 211.371 34.6332 214.942 32.9388Z" fill="#D08B5B"/>
<path fill-rule="evenodd" clip-rule="evenodd" d="M259.428 11.0457L259.047 11.0472C258.418 11.0513 257.789 11.0638 257.162 11.0844C253.848 11.1936 250.392 11.6239 246.5 12.3603L245.909 12.4741C244.941 12.6637 244.074 12.854 242.691 13.1773L239.947 13.8246C238.549 14.1505 237.521 14.3759 236.572 14.5573L236.448 14.5808C231.572 16.9197 228.347 18.8585 226.772 20.3973L226.536 20.6294L226.436 20.7297L225.409 20.7622L225.399 20.8919L225.39 20.8933C224.371 21.052 223.448 21.5806 222.591 22.4034L222.499 22.4927L222.411 22.5811C221.742 23.2614 221.209 23.9863 220.475 25.1353L220.309 25.3977L220.01 25.8717L219.768 26.2523C219.611 26.5012 219.46 26.7475 219.316 26.9915L219.173 27.2347L219.07 27.4136L216.418 28.9615C216.036 29.1845 215.689 29.4732 215.371 29.8189L215.285 29.9145L215.2 30.013L214.478 30.8734L214.623 31.0251L214.553 31.1178L214.427 31.2907L214.304 31.4659L214.184 31.6435L214.132 31.7215L214.054 31.89L214.016 31.9741L213.986 32.0434L213.896 32.09L213.711 32.4226C212.756 34.1486 212.241 36.1089 212.206 38.1232C212.182 39.5126 212.353 40.7744 212.76 41.9917C213.041 42.8334 213.418 43.4948 214.07 44.4053L214.585 45.1124L214.69 45.2583L214.816 45.4358C214.836 45.4643 214.855 45.4923 214.874 45.5201C215.712 46.7342 222.871 49.0323 227.271 49.1434L227.403 49.1461L227.572 49.1478C227.992 49.1496 228.398 49.1345 228.789 49.1018C230.482 48.9601 232.064 48.6037 233.902 48.0208L234.284 47.8975L236.309 47.2165C236.374 47.1951 236.426 47.1781 236.462 47.1666L236.647 47.1087C237.093 46.9718 237.417 46.8931 237.638 46.8645L237.683 46.8591L237.687 46.9429L237.689 47.022L237.689 47.0862C237.676 48.0192 238.242 48.6993 239.12 49.1327C239.679 49.4087 240.4 49.6058 241.305 49.7538L241.449 49.7767C242.927 50.0053 244.69 50.1029 247.64 50.1698C247.752 50.1724 247.865 50.1709 247.979 50.1657C248.613 50.1367 249.11 50.0287 250.035 49.7628L250.473 49.6372L250.71 49.5717C251.15 49.4527 251.395 49.4052 251.627 49.3922L251.694 49.3894L251.761 49.3883C252.039 49.3879 252.239 49.4498 252.437 49.6008L252.538 49.6818L253.898 50.8218C254.075 50.9693 254.234 51.1002 254.35 51.1929L254.397 51.2303C256.264 52.6947 258.043 53.5313 260.139 53.6108L260.28 53.615L260.426 53.6167C260.532 53.6169 260.639 53.6149 260.746 53.6109C261.629 53.5772 262.545 53.2498 263.797 52.6183L264.056 52.4855L264.237 52.3908C264.33 52.342 264.427 52.2907 264.531 52.2346L265.465 51.7347L265.942 51.4852C266.512 51.1919 266.83 51.0503 267.044 50.992L267.079 50.9827L267.099 51.0021C267.594 51.4859 268.018 52.0946 268.476 52.9351L268.545 53.063L268.645 53.2534L269.294 54.5471L269.417 54.7877C269.899 55.7215 270.28 56.3184 270.779 56.842C271.503 57.6019 272.38 58.0428 273.455 58.1136L273.563 58.1194L273.691 58.1226C274.197 58.1275 274.733 58.0498 275.315 57.8881L275.45 57.8493L275.582 57.809C276.448 57.5352 277.817 57.7056 278.905 58.2833C280.086 58.9108 280.737 59.8681 280.708 61.0915C280.693 61.6992 280.623 62.3507 280.501 63.0568L280.466 63.2508C280.305 64.1237 280.086 64.9995 279.749 66.1678L279.026 68.6115L278.944 68.8967L278.862 69.1901C278.745 69.6174 278.651 69.9897 278.574 70.3403C278.278 71.6808 278.229 72.6873 278.525 73.5449C279.831 77.3262 282.096 79.3348 284.676 79.4196L284.765 79.4218L284.875 79.4219C286.857 79.4005 288.652 78.1084 288.63 76.4343C288.628 76.259 288.595 76.0957 288.537 75.9478L288.51 75.8854L288.498 75.8588L288.518 75.8087C289.127 74.3497 290.536 73.2847 292.189 73.0758L292.283 73.0649L292.376 73.056C292.467 73.0481 292.557 73.0427 292.643 73.0397L292.727 73.0375L292.828 73.0367C295.032 73.0401 297.213 74.5086 298.929 76.9107C299.286 77.4116 299.618 77.9585 299.917 78.5364L300.015 78.7301L300.492 79.7068L300.814 80.6514C302.59 85.8526 301.691 91.2952 298.226 94.1091L298.12 94.1936C296.871 95.1733 295.403 95.7688 293.836 95.9291C293.655 95.9476 293.474 95.9593 293.299 95.9639L293.169 95.9661L293.021 95.9657C292.51 95.959 292.021 95.8955 291.582 95.7769C291.225 95.6802 290.975 95.563 290.802 95.4132C290.757 95.3739 290.72 95.3383 290.688 95.3028L290.662 95.271L290.652 95.2575L288.283 95.6089C287.88 98.1681 286.717 100.82 284.824 103.861L284.704 104.052L284.496 104.379L284.285 104.708C282.057 108.137 279.573 111.024 276.842 113.239L276.651 113.393L276.395 113.596L276.161 113.78C275.704 114.134 275.324 114.41 274.944 114.657L274.848 114.718L273.95 115.287L274.367 116.266C275.34 118.549 276.682 120.625 278.337 122.392L278.493 122.557L279.643 123.744L280.527 122.617C280.534 122.609 280.554 122.598 280.577 122.593L280.593 122.592H280.602L280.614 122.593L280.628 122.597L280.643 122.603C281.305 122.962 281.669 123.237 282.191 123.774L282.267 123.853L282.355 123.946L282.477 124.073C283.019 124.629 283.599 125.103 284.232 125.498C285.692 126.409 287.313 126.915 288.991 126.96L289.149 126.963L289.307 126.963C289.364 126.963 289.421 126.962 289.478 126.96C292.98 126.863 296.118 124.618 297.66 121.327C297.722 121.196 297.778 121.154 297.882 121.145L297.911 121.144L297.948 121.143C298.206 121.145 298.521 121.298 298.697 121.504L298.728 121.543L299.318 122.337L299.545 122.637C301.65 125.404 303.379 126.917 305.702 127.377C305.885 127.413 306.078 127.435 306.283 127.444L306.408 127.449H306.481C307.48 127.452 308.631 127.162 309.528 126.652C310.714 125.978 311.448 124.94 311.355 123.655L311.348 123.573L311.332 123.435C311.254 122.749 311.803 122.376 312.223 122.713L312.251 122.737L312.286 122.768C314.016 124.392 316.006 125.638 318.15 126.407L318.339 126.474L318.621 126.57C319.973 127.026 320.926 127.253 321.93 127.271C322.798 127.285 323.52 126.972 324.043 126.369C324.391 125.967 324.604 125.52 324.817 124.868L324.852 124.758L324.93 124.504L324.978 124.339C325.6 122.149 325.613 119.808 325.125 117.224C324.76 115.294 324.18 113.43 323.203 110.817L323.014 110.313L322.623 109.285C322.584 109.182 322.818 108.822 322.964 108.782L322.981 108.779L323.114 108.793C323.207 108.802 323.3 108.808 323.396 108.811L323.543 108.815H323.638C326.81 108.783 329.232 105.67 329.21 102.373C329.185 99.2848 327.633 96.6292 324.67 93.477L324.412 93.2056L324.134 92.9168L323.859 92.6349C321.226 89.9519 318.534 87.6098 315.731 85.6011L315.499 85.4354L315.24 85.253C314.296 84.5903 313.379 83.9893 312.109 83.1994L311.361 82.7374L308.331 79.1589C308.258 79.1177 308.187 79.0765 308.116 79.0354L308.078 77.794L305.158 77.8542C305.899 77.4739 306.513 77.0123 307.011 76.4209C308.668 74.4545 308.46 71.7226 306.446 70.3803L306.375 70.334L305.525 69.8092L304.83 70.4194C304.225 70.9509 303.583 71.3033 302.913 71.466L302.807 71.4901L302.283 71.6012L302.181 71.7664L302.122 71.6808C302.123 71.6723 302.124 71.6638 302.127 71.6556L302.132 71.6434L302.143 71.6263L302.209 71.5451L302.282 71.458C302.515 71.1838 302.777 70.9175 303.252 70.4597L303.585 70.1391L303.845 69.8865C304.526 69.2172 304.888 68.8028 305.274 68.227C306.233 66.7945 306.775 65.1795 306.797 63.539C306.845 60.1278 304.725 56.9028 301.583 55.4308C301.473 55.3793 301.392 55.0129 301.524 54.7707C304.566 49.1852 305.41 42.4897 303.882 36.2614C302.456 30.4503 298.909 25.3211 293.831 21.392C285.114 14.6465 273.021 11.1681 260.19 11.0483L259.801 11.0457H259.428Z" fill="#ECDCBF"/>
<path fill-rule="evenodd" clip-rule="evenodd" d="M306.046 79.7554C305.468 79.6102 305.158 80.3869 305.649 80.699C308.761 82.6803 311.976 84.4497 314.983 86.6054C317.842 88.6547 320.483 90.989 322.946 93.4988L323.219 93.7784C325.446 96.071 327.912 98.9876 327.937 102.37C327.956 104.998 325.931 107.868 323.106 107.522C322.041 107.392 321.063 108.744 321.434 109.718L321.825 110.745C323.397 114.902 324.997 119.611 323.755 123.984L323.709 124.14C323.409 125.141 323.092 126.026 321.931 126.006C320.853 125.987 319.732 125.623 318.723 125.276C316.629 124.556 314.732 123.354 313.121 121.842C311.697 120.506 309.877 121.864 310.069 123.563L310.076 123.617C310.338 125.523 307.303 126.408 305.924 126.136C303.2 125.597 301.258 122.865 299.711 120.783C298.967 119.782 297.161 119.388 296.508 120.783C295.213 123.545 292.545 125.61 289.423 125.696C287.802 125.741 286.246 125.279 284.873 124.423C284.312 124.073 283.811 123.657 283.351 123.185L283.237 123.066C282.557 122.345 282.088 121.961 281.219 121.49C280.363 121.025 279.255 121.601 279.26 122.614C279.267 123.926 279.651 124.799 280.556 125.75C281.304 126.538 282.193 127.23 283.127 127.783C285.005 128.894 287.237 129.518 289.423 129.446C292.869 129.332 296.159 127.613 298.291 124.94C300.468 127.545 303.168 129.938 306.677 129.874C309.305 129.826 311.753 128.457 312.926 126.336C314.582 127.479 316.399 128.373 318.344 128.956L318.517 129.007C321.269 129.809 324.436 130.127 326.208 127.393C327.871 124.826 327.995 121.271 327.614 118.336C327.274 115.715 326.468 113.226 325.542 110.77C328.177 109.983 330.221 107.507 330.923 104.837C331.986 100.801 329.925 96.8862 327.377 93.887C324.609 90.6289 321.125 87.8732 317.615 85.4612C314.115 83.056 310.193 80.7957 306.046 79.7554ZM216.039 48.1829C216.033 48.0708 215.849 48.0315 215.832 48.1546C214.623 56.9351 213.923 65.6978 213.344 74.5385C213.05 79.0174 212.716 83.4917 212.351 87.965C212.001 92.2546 211.417 96.6584 211.549 100.966C211.756 107.71 215.028 113.194 220.394 117.14C225.535 120.922 231.914 122.792 238.172 123.582C241.806 124.041 245.491 124.063 249.129 123.632C251.019 123.408 252.906 123.11 254.757 122.662L255.557 122.462C257.014 122.09 258.642 121.584 258.85 119.856C258.951 119.019 258.506 118.402 257.789 117.982C256.854 117.434 255.782 117.757 254.818 118.006C253.194 118.427 251.553 118.788 249.893 119.037C246.328 119.574 242.664 119.606 239.081 119.234C233.054 118.609 226.696 116.653 222.049 112.612C220.029 110.856 218.273 108.717 217.35 106.175C216.162 102.908 216.338 99.343 216.378 95.9212C216.47 87.965 216.389 80.0089 216.499 72.0519C216.61 64.0707 216.513 56.1523 216.039 48.1829ZM276.649 11.0003C269.607 9.18258 262.459 8.71024 255.225 9.25742C248.403 9.77307 240.631 11.3007 235.059 15.5002C234.789 15.704 234.951 16.0897 235.286 16.0364C239.011 15.4421 242.642 14.3613 246.351 13.6461C249.918 12.9583 253.55 12.4419 257.183 12.3222C269.469 11.917 283.139 14.7032 293.046 22.369C297.691 25.9633 301.236 30.7963 302.647 36.5467C304.094 42.4448 303.311 48.8233 300.406 54.1587C299.987 54.9269 300.16 56.1422 301.033 56.5512C303.681 57.7922 305.568 60.5417 305.527 63.5086C305.507 64.9477 305.011 66.3276 304.215 67.5171C303.373 68.7749 302.09 69.655 301.148 70.8298C300.777 71.2923 300.763 71.9294 301.057 72.3554C300.506 72.597 299.912 72.7266 299.369 73.012C298.91 73.254 298.897 74.0097 299.369 74.248C300.565 74.8505 301.857 74.211 302.664 73.2395C302.808 73.066 302.933 72.8856 303.046 72.7013C304.013 72.4963 304.879 72.011 305.635 71.3471C307.075 72.2105 307.273 74.1324 306.035 75.601C305.403 76.3507 304.505 76.8135 303.598 77.1461L303.489 77.1854C302.606 77.4993 301.797 77.6745 301.223 78.3817C300.845 77.5922 300.41 76.848 299.926 76.1699C298.166 73.7051 295.459 71.5184 292.248 71.796C289.733 72.013 287.554 73.8152 287.038 76.3018C287 76.4858 287.277 76.6295 287.36 76.4375C288.567 73.6212 292.385 73.5179 294.66 74.9854C297.334 76.7116 298.796 79.9644 299.383 82.9939C299.96 85.9781 299.626 89.6077 297.395 91.8775C296.482 92.8064 295.239 93.4487 293.943 93.6179C293.309 93.701 292.75 93.6193 292.144 93.4972L291.742 93.4132C291.463 93.3555 291.186 93.3089 290.894 93.3348L290.459 93.3934L290.211 93.5092C289.997 93.6057 290.016 93.5793 290.269 93.4297C289.53 93.3691 289.147 93.9163 289.107 94.5163C289.083 94.5313 289.06 94.5476 289.041 94.5709C286.234 98.0097 284.149 101.962 281.169 105.288L280.297 106.263C278.055 108.759 275.495 111.466 272.449 112.761L272.086 112.911C271.2 113.285 270.31 113.798 270.197 114.867C270.096 115.825 270.85 116.546 271.72 116.769C273.7 117.277 275.958 115.516 277.408 114.36C280.527 111.876 283.148 108.709 285.313 105.377L285.527 105.045C287.306 102.264 288.979 99.0916 289.499 95.7906L289.592 95.9427C289.599 95.9536 289.605 95.9617 289.608 95.9666C289.714 96.1108 289.831 96.2325 289.967 96.3491C290.331 96.6637 290.775 96.8475 291.237 96.9721C292.103 97.2062 293.052 97.2522 293.943 97.1611C295.751 96.9761 297.442 96.2873 298.871 95.1654C303.224 91.7489 303.738 85.3914 301.978 80.2337C303.422 80.5789 305.068 79.6059 306.196 78.7722C307.489 77.8155 308.556 76.4345 308.811 74.81C309.064 73.198 308.037 71.0633 306.514 70.4413C308.094 68.5421 309.014 65.847 309.11 63.6891C309.275 59.9354 307.282 56.3875 304.223 54.3394C307.1 48.169 307.654 41.0103 305.717 34.4586C301.873 21.4576 288.996 14.1873 276.649 11.0003ZM287.609 109.779L287.573 109.665C287.267 108.66 286.871 106.66 285.37 107.421C283.936 108.148 284.852 110.301 285.353 111.349C285.953 112.603 286.989 113.608 288.381 113.877C289.513 114.096 290.756 113.815 291.548 112.939C291.779 112.684 291.909 112.405 292.046 112.096C292.099 111.975 292.123 111.893 292.133 111.84C292.146 111.898 292.183 111.986 292.278 112.089C292.909 112.78 293.506 113.584 293.965 114.401C294.073 114.595 294.415 114.459 294.329 114.248C293.795 112.941 293.885 110.919 292.694 109.974C291.645 109.141 290.659 109.796 290.105 110.767L290.076 110.818C289.265 112.291 287.973 110.892 287.609 109.779ZM299.021 105.057L298.912 104.904C297.79 103.37 295.898 101.524 294.005 102.951C293.403 103.405 293.381 104.162 294.005 104.613L294.241 104.782C295.068 105.368 295.892 105.922 296.499 106.764C297.159 107.679 297.752 108.648 298.639 109.365C300.209 110.634 302.745 110.885 304.107 109.174L304.241 109.004C304.355 108.857 304.486 108.68 304.592 108.504L304.674 108.618C304.683 108.63 304.69 108.641 304.697 108.651L304.716 108.68C305.276 109.575 305.983 110.313 306.864 110.894C308.537 111.999 310.423 112.153 312.317 111.568C312.502 111.511 312.452 111.262 312.273 111.246C310.029 111.036 307.843 109.441 306.931 107.386L306.827 107.156C306.458 106.338 306.044 105.562 305.132 105.241C304.244 104.929 303.311 105.259 302.702 105.931C302.193 106.493 302.062 107.61 301.144 107.364C300.138 107.094 299.571 105.833 299.021 105.057ZM305.448 91.4087C304.951 91.0307 304.173 91.4362 304.036 91.9839C303.416 94.4635 305.991 97.3854 308.465 97.4623C309.102 97.4818 309.715 97.3276 310.28 97.0325C310.717 96.8037 311.235 96.219 311.716 96.1221C312.336 95.9972 312.886 96.8242 313.323 97.2487C313.865 97.7756 314.401 98.2648 315.008 98.7138C315.251 98.8933 315.627 98.5919 315.525 98.3163L315.319 97.7684C314.576 95.818 313.295 92.9708 310.899 93.7802C309.724 94.1767 308.84 95.5138 307.604 94.455C306.614 93.6072 306.521 92.225 305.448 91.4087ZM294.874 81.4265C292.639 78.8597 287.387 80.2154 286.391 83.3381C286.171 84.0277 286.401 84.9241 286.939 85.4122C287.648 86.0552 288.66 86.25 289.521 85.7456C290.261 85.3118 290.566 84.6019 291.11 83.9929C291.909 83.1005 292.995 82.6052 294.114 82.2502C294.394 82.3974 294.654 82.5909 294.888 82.8242C295.007 82.9436 295.233 82.7799 295.127 82.6392C294.983 82.448 294.807 82.268 294.607 82.102L294.703 82.0738C294.998 81.9917 295.061 81.6427 294.874 81.4265ZM280.353 53.0875C279.852 53.0883 279.269 53.5589 279.333 54.1083L279.352 54.2608C279.497 55.3069 279.832 55.8991 280.879 56.3851C281.766 56.7969 282.699 57.0244 283.671 57.1145C284.04 57.1486 284.429 57.1506 284.824 57.1213L284.907 57.6015C285.073 58.5618 285.225 59.5227 285.254 60.5015C285.308 62.316 284.631 63.8114 283.906 65.4314C282.513 68.5433 282.356 71.6497 283.873 74.757C284.094 75.2114 284.722 75.5818 285.229 75.5358C285.886 75.4762 286.204 75.286 286.586 74.757C286.907 74.3129 286.833 73.6852 286.611 73.2207L286.586 73.1698C285.822 71.6882 285.581 70.0144 285.971 68.3859C286.338 66.8552 287.168 65.4795 287.539 63.9536C288.143 61.468 287.5 59.0024 286.242 56.87C287.191 56.5964 288.069 56.1088 288.655 55.3651L288.653 55.3641C288.876 55.1251 288.754 54.6257 288.362 54.6557L287.918 54.6916C286.648 54.7978 285.48 54.9082 284.196 54.5541C283.538 54.3723 282.97 54.0693 282.405 53.7025L282.284 53.6229C281.577 53.1528 281.185 53.0865 280.353 53.0875ZM277.315 34.7164C274.132 34.5354 271.416 36.6373 270.095 39.4353C268.66 42.4729 269.262 45.9584 270.528 48.9471L270.888 49.7836C271.518 51.2328 272.345 52.9562 273.634 53.7339C275.083 54.6075 276.335 53.5944 275.908 51.9842C275.653 51.0252 274.964 50.2856 274.407 49.4941C273.887 48.7549 273.401 47.99 272.975 47.192C272.142 45.627 271.519 43.8833 271.526 42.0903C271.538 38.8178 273.698 35.0673 277.315 35.1154C277.573 35.1184 277.569 34.7307 277.315 34.7164ZM261.22 29.4359C261.418 29.2852 261.241 28.95 261.019 29.0915C257.328 31.4404 254.573 35.8527 254.018 40.1873C253.71 42.5923 253.946 45.1625 254.969 47.382C255.556 48.6556 256.563 49.8714 257.972 50.2206C259.267 50.5412 260.602 49.8011 261.004 48.536C261.16 48.0451 260.892 47.5317 260.487 47.2636C259.174 46.3948 258.116 45.2984 257.498 43.8236C256.854 42.2902 256.598 40.6629 256.59 39.0088C256.571 35.1353 258.116 31.7968 261.22 29.4359ZM216.14 31.1148C216.311 30.9253 216.096 30.6459 215.87 30.7646C213.202 32.1688 211.507 34.8587 211.021 37.8046C210.545 40.6887 211.185 44.6151 213.416 46.701C214.675 47.8784 216.93 46.3125 215.883 44.7958C215.146 43.7263 214.348 42.8454 213.926 41.5816C213.549 40.4539 213.416 39.3168 213.436 38.1318C213.481 35.5465 214.404 33.0422 216.14 31.1148ZM248.759 27.5032C244.2 27.2859 241.438 32.4937 240.805 36.3753C240.414 38.7735 240.708 41.2436 242.031 43.3237L242.109 43.4448C243.201 45.1065 245.186 47.0196 247.324 46.2328C248.23 45.9002 248.47 44.9297 247.862 44.1935C246.932 43.0666 245.494 42.6073 244.619 41.4041C243.638 40.0546 243.316 38.364 243.373 36.723L243.38 36.5417C243.532 33.5231 244.971 27.7293 248.759 27.8319C248.971 27.8374 248.968 27.513 248.759 27.5032ZM234.501 26.6379C230.092 26.074 227.407 31.265 226.579 34.8409C226.061 37.0765 225.948 39.5703 226.61 41.7891L226.659 41.9471C227.198 43.6031 228.787 46.4403 230.861 45.5941C231.429 45.3623 232.009 44.7308 231.737 44.0499C231.389 43.1796 230.888 42.9538 230.22 42.3969C229.705 41.9681 229.345 41.3525 229.081 40.7463C228.376 39.1305 228.219 37.2429 228.315 35.5017L228.328 35.2957C228.578 31.8947 230.42 26.8263 234.501 26.9195C234.687 26.9238 234.674 26.66 234.501 26.6379ZM226.429 21.7578C223.975 20.8226 221.965 23.1708 220.554 24.8467C218.787 26.9465 217.184 29.2086 216.278 31.8226C215.471 34.1518 215.329 36.7415 216.056 39.1124C216.416 40.2864 216.977 41.375 217.742 42.3332L217.84 42.4541C218.636 43.4261 219.405 44.0234 220.71 43.6754C221.241 43.5335 221.465 43.0081 221.373 42.5059C221.177 41.4331 220.624 41.1545 219.909 40.4056C219.278 39.745 218.81 38.9315 218.495 38.0762C217.845 36.3117 217.812 34.4001 218.248 32.5823C218.735 30.5473 219.695 28.6682 220.806 26.9072L221.045 26.5301C222.222 24.6684 223.9 21.8014 226.382 22.1035C226.595 22.1295 226.597 21.8219 226.429 21.7578Z" fill="black"/>
<path fill-rule="evenodd" clip-rule="evenodd" d="M235.259 98.7431C234.875 98.0755 233.99 97.457 233.18 97.5518C229.551 97.9769 229.557 102.371 230.958 104.936C232.201 107.211 234.772 108.546 237.345 108.351C240.049 108.146 242.353 106.558 243.366 104.032C244.037 102.362 244.347 99.277 242.563 98.1543C242.53 98.1333 242.475 98.1386 242.449 98.1688C241.594 99.1623 241.56 100.654 240.812 101.76C240.115 102.789 239.034 103.638 237.766 103.77C236.82 103.868 235.863 103.527 235.492 102.678C235.292 102.219 235.315 101.97 235.39 101.654L235.459 101.38C235.696 100.418 235.802 99.6859 235.259 98.7431ZM234.289 79.4728C232.397 80.6218 229.513 83.3009 231.549 86.1492C233.945 88.6607 237.396 85.7811 239.096 84.4788C240.673 83.4695 242.445 86.0654 240.982 87.2439C228.695 96.3291 223.708 79.7732 233.332 78.1219C234.392 77.94 234.785 79.1174 234.289 79.4728ZM254.276 71.5943C253.114 69.8537 250.462 70.11 249.822 72.1756C249.476 73.2945 249.954 74.3002 249.93 75.4176C249.909 76.3615 249.971 77.4134 250.261 78.3275C250.921 80.4121 252.798 81.8844 255.019 81.8234C257.233 81.7625 259.183 80.3633 260.11 78.3926C261.04 76.4144 260.843 74.3671 260.164 72.3555C260.131 72.2589 260.005 72.2121 259.928 72.2935C259.125 73.1456 258.537 74.0451 257.929 74.9994L257.306 75.9774C256.83 76.7138 256.138 77.6545 255.248 77.5954L255.115 77.5823C254.868 77.5611 254.905 77.6101 254.715 77.2737C254.627 77.118 254.643 76.8286 254.6 76.6449L254.585 76.5828L254.593 76.5494C254.612 76.4604 254.631 76.2927 254.646 76.0018L254.649 75.9375C254.714 74.5766 255.099 72.8276 254.276 71.5943ZM224.828 72.7532C225.036 70.5269 221.902 70.0325 220.86 71.6798C220.317 72.5389 220.159 73.618 220.039 74.6404L219.982 75.1256C219.859 76.1757 219.81 77.268 220.267 78.2475C220.985 79.7902 222.549 80.6057 224.235 80.4766C225.845 80.3529 227.314 79.4205 228.089 78.005C228.779 76.7419 229.466 74.2758 228.627 72.9584C228.577 72.8786 228.475 72.8683 228.406 72.9299C227.614 73.6325 227.484 74.9141 227.013 75.8295C226.527 76.7737 225.79 77.6938 224.673 77.8373C223.604 77.9744 223.196 77.3915 223.469 76.3739C223.82 75.0603 224.696 74.1667 224.828 72.7532ZM253.429 58.3587L252.917 58.1626C251.161 57.5001 248.75 56.7344 247.322 58.1604C246.441 59.0398 246.274 60.3351 246.902 61.4082C247.664 62.7081 249.03 62.7401 250.35 62.9316C251.85 63.1494 253.376 63.5634 254.773 64.1536C256.347 64.8187 257.808 65.6477 259.238 66.5737C260.598 67.4535 261.954 68.8915 263.582 69.1626C263.648 69.1736 263.723 69.1451 263.741 69.0723C264.11 67.4828 263.083 65.9186 262.166 64.6785C261.057 63.1772 259.713 61.9449 258.21 60.84C256.76 59.7734 255.104 59.0027 253.429 58.3587ZM221.531 64.0099L221.375 63.9825C220.31 63.8054 219.345 63.8462 218.542 64.6884C217.93 65.331 217.694 66.1638 217.986 67.0134C218.255 67.7971 218.858 68.5933 219.732 68.7575C222.684 69.3122 225.955 69.2206 228.922 68.8006C230.279 68.6083 231.649 68.3731 232.971 68.0021L233.579 67.826C234.683 67.5111 235.947 67.1821 236.749 66.3713C237.037 66.0799 236.871 65.6629 236.526 65.528C235.127 64.9808 233.209 65.2719 231.717 65.2291C229.982 65.1796 228.244 65.0497 226.517 64.8707C224.829 64.6955 223.196 64.3147 221.531 64.0099Z" fill="black"/>
<path fill-rule="evenodd" clip-rule="evenodd" d="M212.37 80.6529C214.671 83.5237 223.678 86.7103 228.472 83.251C233.266 79.7918 235.16 77.381 235.801 73.0585C235.869 72.5976 236.704 72.2911 237.056 72.6183C239.032 74.4506 240.31 76.7844 241.577 79.1241C243.006 81.763 244.413 84.418 247.009 86.2044C251.608 88.6663 259.928 89.0169 262.386 87.931C267.094 85.8507 270.819 81.4016 271.666 75.279C272.24 73.4685 272.779 72.3727 273.282 71.9917C273.998 71.45 277.946 70.9674 278.378 70.8873C286.173 69.4429 296.031 68.5222 302.973 73.6038C303.913 74.1709 307.129 76.3018 307.178 75.7778C307.21 73.7255 304.882 69.0803 299.585 66.87C293.036 64.1367 283.3 63.9768 277.659 64.58C277.376 64.6104 276.409 64.3731 276.34 64.3435C267.795 60.6487 257.963 61.63 248.82 63.1829C247.51 63.4369 235.781 66.3373 231.115 64.58C223.402 61.4351 215.177 59.1567 206.847 60.0531C206.778 60.0606 205.726 66.4351 206.545 66.87C207.197 67.2161 208.307 68.1029 208.701 68.5882C209.053 69.022 209.275 69.5614 209.255 70.3087C209.097 74.6314 210.332 78.1095 212.37 80.6529ZM244.086 76.7958C243.107 75.3827 242.799 72.2085 243.208 69.8928C243.416 68.7203 243.818 67.787 244.323 67.3225C244.659 67.0137 245.042 66.8683 245.46 66.8899C245.689 66.9017 245.938 66.9668 246.2 67.1083C249.758 65.1865 254.067 64.4945 258.152 64.6935C261.404 64.6929 263.725 65.4595 265.298 66.6528C267.191 68.0887 268.044 70.1528 268.094 72.3913C268.152 75.0475 267.059 77.9534 265.267 80.2528C263.552 82.4536 261.205 84.0851 258.659 84.4616C255.769 85.0345 252.824 84.4802 250.264 83.1243C247.637 81.7337 245.419 79.5002 244.086 76.7958ZM215.568 78.2942C213.92 76.3489 212.824 73.8182 212.657 71.3107C212.505 69.0288 213.117 66.7683 214.809 64.9003C216.342 63.5856 219.053 63.5638 221.903 64.296C225.59 65.2426 229.403 67.3582 230.675 68.7246C230.974 68.8814 231.252 69.1544 231.494 69.7402L231.496 69.949C231.881 71.7228 231.653 73.5229 230.986 75.1835C230.263 76.9873 229.022 78.6248 227.508 79.8742C225.498 81.5283 223.399 82.0346 221.435 81.7675C219.21 81.465 217.14 80.1497 215.568 78.2942Z" fill="white"/>
<path fill-rule="evenodd" clip-rule="evenodd" d="M231.38 63.8775C223.569 60.6925 215.22 58.3969 206.767 59.3065C206.068 59.0409 205.2 59.2647 204.89 60.2519C201.879 69.4121 208.594 66.8647 208.504 70.289C207.8 89.4887 233.639 92.7675 236.545 73.1686L236.598 73.2001C240.778 77.0957 241.659 83.4349 246.583 86.8229C256.516 94.0782 270.598 88.3297 272.406 75.4136L272.446 75.2389C273.053 72.6029 273.779 71.9493 276.773 71.9623L277.246 71.8684C285.025 70.3377 295.385 68.9621 302.55 74.2264C304.109 75.1315 304.182 77.4584 305.499 78.4694C306.942 78.7493 307.83 77.0164 307.928 75.8171C308.157 63.8614 286.735 63.0014 277.141 64.0274C276.958 63.8379 276.566 63.8614 276.435 64.0975C267.758 60.3458 257.983 60.865 248.693 62.4427C242.938 63.5553 237.254 66.0897 231.38 63.8775ZM207.545 61.5138C212.232 61.2797 216.567 61.5358 221.168 62.6609C223.593 63.2452 225.453 63.9838 227.774 64.8722C242.251 71.2775 243.92 59.892 276.37 64.3551C275.95 66.1508 275.873 67.9288 275.85 69.6159C269.225 69.3492 270.785 75.6675 268.302 80.1055L268.226 80.2394C264.608 86.7145 256.072 89.7347 249.185 85.4399C243.44 82.0957 242.88 73.6139 237.16 70.2477C232.201 70.0529 234.182 76.7363 231.483 79.4832C227.685 84.5448 219.612 85.2524 214.849 80.4915C212.615 78.2006 211.428 75.292 211.362 72.1671C211.237 70.1706 211.58 68.1418 210.069 66.7375C209.009 65.6627 207.127 66.0214 206.911 64.3966C206.774 63.4359 207.174 62.3939 207.545 61.5138ZM258.484 64.1306C253.828 63.9016 248.902 64.7091 244.904 66.9897C241.944 64.6377 241.219 73.9849 243.184 76.6885C246.014 82.4712 252.602 86.2732 258.946 85.0107C268.843 83.5784 275.738 64.1133 258.484 64.1306ZM245.188 67.6165L245.441 67.5795C249.73 66.9259 261.409 63.898 265.913 68.677C270.284 76.6042 259.194 89.9193 247.654 79.3136C244.442 76.0477 243.197 72.0875 245.188 67.6165ZM231.596 68.6296C229.375 66.0031 218.055 60.6829 214.109 64.0969C206.908 72.1573 218.328 88.4608 227.894 80.5177C231.08 77.8626 233.176 73.6323 232.259 69.536L232.258 69.3643C232.256 69.302 232.244 69.3162 232.177 69.2386C232.059 68.929 231.847 68.7312 231.596 68.6296ZM214.21 73.5149C211.781 60.3593 221.931 65.3605 230.268 68.8719C229.82 69.2802 229.822 69.8376 229.951 70.2957C230.83 80.0569 218.951 85.5883 214.21 73.5149ZM277.309 64.6667C280.786 65.8427 303.785 63.7395 305.91 74.5065C303.667 70.8777 299.022 69.4377 294.847 68.6562C289.167 67.5931 283.518 68.2086 277.918 69.3273L277.803 68.1698C277.678 66.9421 277.548 65.7936 277.309 64.6667Z" fill="black"/>
</g>
<path fill-rule="evenodd" clip-rule="evenodd" d="M27.1713 168.688C30.5695 152.598 42.6211 140.113 58.8293 133.893C61.9449 132.132 64.965 124.575 69.1521 123.191C69.8233 122.969 68.7639 124.735 69.1521 124.84C70.5368 125.216 72.0884 125.255 73.6173 123.897C76.3498 121.47 77.207 114.379 78.8684 111.173C87.6303 94.2701 109.507 100.884 112.438 119.57C114.481 120.901 117.37 122.074 119.595 123.147C121.885 124.252 123.9 126.927 126.261 127.884C128.367 128.737 131.838 128.133 133.96 128.877C143.721 132.299 151.989 136.617 158.471 145.366C159.837 147.212 161.376 149.48 162.619 151.345C169.027 158.717 173.477 166.98 177.576 175.845C189.045 201.866 192.164 230.677 194.963 258.713C194.899 263.619 198.156 277.221 193.339 279.573C193.627 279.871 193.523 280.47 192.988 280.465C180.774 280.342 168.588 281.434 156.564 283.558C150.762 284.583 144.991 285.988 139.082 286.219C126.814 286.135 114.59 284.08 102.339 286.024C87.6108 286.024 69.7115 285.595 53.3265 284.966C38.0132 284.378 22.6178 285.706 7.49413 283.104C6.29701 282.914 5.7124 281.455 5.96333 280.409C7.7377 273.948 8.60875 267.297 9.60439 260.683C9.40608 256.441 9.7608 252.013 11.331 248.061C15.4335 221.388 20.6942 194.888 27.1713 168.688Z" fill="#FFDBB4"/>
<path fill-rule="evenodd" clip-rule="evenodd" d="M69.1521 124.938C68.7639 124.832 69.8233 123.067 69.1521 123.289C64.965 124.673 61.9449 132.23 58.8293 133.991C42.621 140.21 30.5695 152.696 27.1713 168.786C20.6942 194.986 15.4335 221.486 11.331 248.159C9.76079 252.11 9.40607 256.539 9.60435 260.781L9.44803 261.826C8.51453 268.094 7.6443 274.386 5.96332 280.507C5.7124 281.553 6.297 283.012 7.49411 283.202C22.4459 285.775 37.6633 284.505 52.8044 285.045L55.9603 285.163C71.6117 285.738 88.3963 286.122 102.339 286.122C114.59 284.178 126.814 286.233 139.082 286.317C144.991 286.086 150.762 284.681 156.564 283.656C168.588 281.532 180.774 280.44 192.988 280.563C193.523 280.568 193.627 279.969 193.339 279.671C198.156 277.319 194.899 263.716 194.963 258.811L194.71 256.286C191.969 229.049 188.701 201.183 177.576 175.943L177.243 175.225C173.235 166.632 168.854 158.615 162.619 151.442L162.238 150.872C161.07 149.129 159.7 147.125 158.471 145.464C151.989 136.715 143.721 132.397 133.96 128.974C131.837 128.23 128.367 128.835 126.261 127.981C124.053 127.087 122.148 124.688 120.036 123.478L120.036 132.506L89.4837 162.586L72.1553 136.03L70.3931 125.154C69.9685 125.127 69.5533 125.047 69.1521 124.938Z" fill="#8FA7DF"/>
<path fill-rule="evenodd" clip-rule="evenodd" d="M32.1133 203.749C32.4365 205.317 32.8894 206.886 33.4916 208.371C34.0718 209.805 34.9458 211.089 35.5478 212.506C35.6286 212.697 35.7608 212.841 35.9201 212.951L35.8705 213.336L35.8246 213.722C35.5244 216.322 35.1867 218.916 34.8942 221.516L34.7521 222.817C34.1771 228.246 33.2688 233.648 32.5638 239.062C31.8734 244.365 31.1706 249.667 30.4193 254.961C29.6432 260.42 28.8525 265.871 27.9296 271.308C27.5399 273.604 27.1333 275.898 26.7096 278.19L26.3824 279.945C23.0138 280.755 22.0933 285.447 25.5231 287.18C27.0798 287.963 29.0799 287.774 30.363 286.544C31.6963 285.261 31.7516 282.949 32.061 281.212L32.3591 279.598C34.5896 267.461 36.5255 255.185 37.4306 242.877C37.6631 239.699 37.859 236.518 37.9863 233.335C38.1073 230.341 38.0495 227.347 38.0957 224.352L38.1111 223.536C38.1819 220.343 38.1234 217.155 38.0402 213.962C38.0304 213.573 38.0132 213.184 37.9936 212.792C38.106 212.66 38.187 212.503 38.2211 212.352L38.2654 212.151C38.3755 211.635 38.2507 211.03 37.8539 210.661C37.6827 208.486 37.4575 206.313 37.3963 204.14C37.3914 203.962 37.1344 203.967 37.1194 204.14C36.975 205.99 36.6864 207.845 36.3975 209.697C34.5394 208.204 33.166 205.743 32.3557 203.683C32.297 203.534 32.0788 203.588 32.1133 203.749ZM76.0761 117.277C75.7676 118.686 75.1581 119.951 74.3404 121.128C73.9509 121.691 73.508 122.215 72.9768 122.653C72.5212 123.027 72.0022 123.271 71.5177 123.597C70.8127 123.487 70.0758 123.754 69.5813 124.272L69.6594 123.514C69.6841 123.269 69.2775 123.22 69.231 123.457C67.0892 134.253 65.1359 145.055 63.4451 155.928L62.704 160.73L62.0067 165.238C60.8488 172.75 59.7288 180.259 58.8854 187.826C57.7617 197.923 56.817 208.048 56.1266 218.187C55.4338 228.397 55.0076 238.615 54.7041 248.845C54.6284 251.423 54.5474 254 54.4693 256.578L53.9464 253.495C53.4245 250.412 52.9128 247.325 52.4741 244.228C50.9 233.142 49.6414 221.977 49.0272 210.796C48.4639 200.563 48.6524 190.128 51.2572 180.16C51.9135 177.652 52.7165 175.183 53.6857 172.778C54.626 170.439 55.9085 168.271 56.9198 165.967C58.0949 163.285 58.4474 160.755 57.8425 157.868C57.3137 155.353 56.3859 152.987 56.2197 150.398C55.9085 145.593 57.4731 140.939 59.6835 136.733C60.2664 135.625 60.8808 134.531 61.5222 133.447C63.4633 130.171 65.6521 127.015 67.9237 123.989C68.0461 123.827 67.7869 123.648 67.6544 123.781C65.5836 125.826 63.3191 127.837 61.4559 130.071C60.5503 131.157 59.6666 132.266 58.8293 133.404C49.6439 134.938 41.7513 140.655 36.3559 148.206C30.2333 156.775 27.1364 167.087 24.8448 177.244C22.2963 188.531 20.1469 199.92 17.858 211.263C15.4884 223 13.131 234.737 10.7465 246.471C9.56165 252.297 8.37653 258.123 7.19434 263.951C6.59456 266.901 5.96516 269.845 5.30688 272.786C4.9688 274.293 4.60649 275.798 4.29314 277.31C3.94086 279.015 4.26889 280.106 5.42415 281.359C5.85036 281.824 6.52357 281.817 7.05237 281.569L7.21767 281.492L7.37743 281.415C8.03174 281.093 8.54472 280.76 8.95183 280.045C9.40007 279.26 9.47107 278.389 9.62505 277.515C9.90927 275.907 10.1906 274.3 10.4745 272.69C10.8988 270.283 11.3602 267.882 11.8298 265.482L14.1858 253.487C14.814 250.289 15.4432 247.091 16.076 243.895C18.3356 232.464 20.5976 221.035 22.8594 209.607C25.0311 198.633 26.9528 187.584 29.4252 176.673L29.5657 176.059L29.7087 175.445C31.9194 166.04 35.0083 156.942 40.6131 148.972C44.9267 142.843 50.9169 137.37 57.9725 134.6C57.4753 135.314 56.9979 136.044 56.5426 136.787C53.6832 141.456 51.5952 146.997 52.0849 152.556C52.3245 155.272 53.3576 157.942 53.2599 160.68C53.1694 163.112 51.6636 165.248 50.6231 167.364C48.261 172.16 46.552 177.256 45.4503 182.484C43.2397 192.983 43.247 203.786 44.0086 214.443C44.8361 226.029 46.4075 237.612 48.1971 249.084C49.1151 254.968 50.3367 260.804 51.2721 266.679C51.7345 269.575 52.3639 272.465 52.9148 275.347L53.1773 276.724C53.3242 277.489 53.4767 278.25 53.6529 279.004L53.7616 279.455V279.536C53.7664 280.092 53.9185 280.552 54.1633 280.919C54.4984 281.992 54.9146 283.04 55.4679 284.046C55.7518 284.559 56.1634 284.848 56.6114 284.953C57.0618 285.983 58.0827 286.776 59.3016 286.771L75.3343 286.71C84.6468 286.673 93.9593 286.612 103.272 286.56C105.622 286.548 107.969 286.504 110.317 286.443C112.518 286.382 114.628 286.118 116.805 285.844C119.263 285.536 120.594 283.796 120.227 281.342C120.146 280.801 120.058 280.263 119.975 279.725C120.465 279.886 121.047 279.81 121.441 279.426L121.811 279.065C122.323 278.558 122.781 278.061 123.106 277.385C123.441 276.691 123.713 275.957 124.01 275.247C124.649 273.72 125.27 272.189 125.875 270.65C127.087 267.572 128.298 264.482 129.425 261.372C131.655 255.213 133.628 248.962 135.344 242.64C138.404 231.36 140.617 219.863 142.013 208.263L142.346 205.499L142.443 204.682C142.973 200.186 143.418 195.62 143.207 191.134C143.077 188.325 142.642 185.494 141.591 182.871C140.622 180.451 139.126 178.382 137.704 176.219L137.541 175.969L137.378 175.713C136.134 173.749 135.144 171.695 135.094 169.309C135.044 166.888 135.75 164.532 136.539 162.265L136.736 161.706L136.868 161.336C138.546 156.652 140.457 152.034 139.827 146.936C138.896 139.43 134.343 133.379 128.614 128.713C133.709 129.721 138.752 131.713 143.202 134.238C148.459 137.223 153.191 141.162 157.272 145.608C164.983 154.01 170.489 164.09 174.996 174.499C179.713 185.391 183.212 196.805 185.848 208.369C188.499 219.998 190.274 231.813 191.486 243.675C192.091 249.579 192.566 255.497 192.96 261.418C193.16 264.452 193.312 267.491 193.547 270.52C193.782 273.547 193.888 276.619 194.627 279.566C194.972 280.938 197.3 281.078 197.55 279.566C198.103 276.189 197.949 272.697 197.794 269.277L197.78 268.966C197.628 265.561 197.43 262.157 197.195 258.754C196.715 251.798 196.074 244.852 195.237 237.927C192.301 213.622 186.888 189.443 176.271 167.256C171.272 156.806 164.856 146.652 155.93 139.107C151.68 135.517 146.889 132.652 141.726 130.578C137.109 128.72 132.418 127.842 127.513 127.845C125.052 125.961 122.411 124.319 119.772 122.917C119.613 122.831 119.446 123.037 119.578 123.169C119.647 123.235 119.713 123.303 119.781 123.367C119.483 123.387 119.175 123.526 118.898 123.817C117.928 124.832 117.111 126.103 116.379 127.421C115.265 128.811 114.203 130.247 113.091 131.622C111.311 133.824 109.49 135.994 107.646 138.147C104.55 141.766 101.353 145.316 98.0192 148.723L97.4623 149.29C95.7342 151.039 93.9836 153.134 91.9397 154.518L91.8305 154.591C90.9682 155.152 90.3567 155.254 89.6213 154.416C88.9528 153.653 88.3963 152.767 87.8243 151.925L87.692 151.732C84.7714 147.492 82.0639 143.095 79.6133 138.569C78.4963 136.509 77.4338 134.419 76.4256 132.306L76.1248 131.671C75.5764 130.507 74.9816 129.364 74.5289 128.165C74.4236 127.884 74.3208 127.602 74.2204 127.323C75.7627 126.313 76.9571 124.126 77.3905 122.413C77.8409 120.634 77.6132 118.809 76.8105 117.182C76.6587 116.876 76.1495 116.952 76.0761 117.277ZM152.16 189.56C152.373 196.323 152.503 203.093 152.821 209.851L152.931 212.158C152.434 212.711 152.143 213.35 152.375 214.226C152.466 214.561 152.733 214.865 153.066 214.977L153.17 217.122C153.642 226.773 154.196 236.404 155.208 246.031C156.474 258.079 157.938 270.106 159.399 282.132C159.607 283.835 160.792 285.185 162.635 284.936C164.501 284.684 165.257 283.062 165.012 281.371C164.05 274.738 163.125 268.1 162.314 261.445L161.392 253.863C160.234 244.385 159.05 234.909 157.685 225.461C157.115 221.512 156.522 217.566 155.928 213.619L156.136 213.35C156.985 212.247 157.864 211.168 158.733 210.081C160.403 207.987 162.05 205.909 163.58 203.717C163.656 203.607 163.502 203.446 163.392 203.529C161.247 205.112 159.218 206.805 157.176 208.525L155.389 210.037C154.361 203.218 153.342 196.397 152.434 189.56C152.412 189.389 152.155 189.377 152.16 189.56ZM121.312 124.84C122.602 126.056 123.921 127.245 125.221 128.454L125.698 128.899L126.172 129.346C128.457 131.511 130.646 133.765 132.47 136.354C135.819 141.108 137.814 146.904 136.421 152.708C135.266 157.516 132.614 161.874 131.902 166.801C131.545 169.27 131.718 171.751 132.649 174.082C133.599 176.461 135.117 178.499 136.48 180.645C139.442 185.308 139.846 190.427 139.552 195.829C139.244 201.471 138.595 207.116 137.794 212.707C136.174 224.035 133.731 235.246 130.497 246.224C128.879 251.722 126.967 257.102 125.064 262.505C124.117 265.194 123.013 267.819 121.875 270.432C121.275 271.807 120.66 273.174 120.036 274.54C120.266 272.612 120.266 270.633 120.379 268.717C120.541 265.972 120.746 263.231 120.935 260.489C121.319 254.922 121.662 249.351 121.968 243.78C123.052 223.913 123.85 204.028 123.792 184.129C123.762 174.178 123.559 164.227 123.13 154.286C122.93 149.605 122.541 144.928 122.189 140.253L122.115 139.251C121.804 135.055 121.431 130.849 120.793 126.69C120.982 126.263 121.146 125.831 121.268 125.388L121.312 125.222L121.28 125.227C121.309 125.097 121.319 124.967 121.312 124.84ZM110.153 107.742C110.126 107.627 109.962 107.637 109.933 107.742C109.206 110.189 109.463 112.88 110.089 115.342C110.427 116.675 110.907 117.97 111.487 119.217L111.69 119.654C112.187 120.717 112.747 121.812 113.715 122.474C114.119 122.75 114.841 122.768 115.245 122.474L115.451 122.318C115.485 122.291 115.519 122.264 115.551 122.237C115.928 121.921 116.114 121.224 115.941 120.764C115.493 119.577 114.476 118.706 113.774 117.649C113.152 116.71 112.601 115.719 112.144 114.689C111.157 112.46 110.714 110.094 110.153 107.742Z" fill="black"/>
<path fill-rule="evenodd" clip-rule="evenodd" d="M114.536 15.1582L112.426 17.6714C113.594 18.496 114.697 19.3245 115.734 20.1571L115.735 20.1546C110.93 17.0144 105.608 15.1582 99.8585 15.1582C88.7851 15.1582 66.2927 24.685 61.2081 31.5566C58.6848 34.9668 53.9957 45.4358 51.5634 56.8174C49.609 65.9623 46.7023 91.7981 49.609 101.506C53.3292 113.931 65.5685 125.414 78.1887 125.414C90.8089 125.414 110.402 116.289 124.347 96.2912C124.984 95.3768 132.307 94.3168 137.53 90.8848L136.159 106.017L135.117 114.82L135.347 115.446C139.088 125.58 142.052 130.867 144.24 131.307C146.473 131.755 151.02 128.09 157.882 120.309L158.758 116.624C160.985 107.222 162.099 102.176 162.099 101.484L162.097 101.358C162.064 99.7671 161.517 90.761 161.506 88.3374L161.506 52.0124C154.126 27.4429 147.085 15.1582 140.38 15.1582H114.536Z" fill="#FFDBB4"/>
<path fill-rule="evenodd" clip-rule="evenodd" d="M132.02 6.79076C129.851 5.94909 127.337 6.10813 125.278 7.37553C121.234 7.20181 117.213 9.57024 115.105 13.0275C115.061 13.0764 115.015 13.1253 114.973 13.1743L114.527 13.6958C114.103 14.1938 113.657 14.7427 113.304 15.3095C115.035 15.3491 116.478 16.056 117.485 17.4837C118.203 18.5023 116.557 19.4704 115.823 18.5069L115.797 18.4716C115.193 17.6146 114.28 17.2825 113.264 17.2652C112.972 17.2603 112.751 17.1485 112.595 16.9836C112.532 17.2109 112.477 17.4406 112.426 17.6713C107.31 15.6785 101.794 15.1507 96.3015 15.6234C96.5424 16.0139 96.7437 16.4323 96.8986 16.872C97.0742 17.3704 96.6995 17.9427 96.216 18.0758C95.6933 18.2196 95.2207 17.9128 95.0315 17.4386L95.0141 17.3922C94.8031 16.7932 94.4584 16.2791 93.9957 15.8806C91.4098 16.2317 88.8423 16.79 86.3376 17.5098C83.3272 18.3757 80.3451 19.4325 77.4288 20.6424C77.9227 20.8364 78.3495 21.1643 78.6483 21.7116C79.2447 22.8041 77.6049 23.7827 76.9827 22.7382L76.9607 22.6996C76.8997 22.5876 76.8456 22.5202 76.806 22.4819L76.7919 22.4689L76.7059 22.4292L76.5457 22.3832L76.4841 22.3681C76.4298 22.3558 76.4073 22.3566 76.2645 22.3487C76.0744 22.338 75.8841 22.3389 75.6938 22.3387C75.2463 22.3384 74.9607 22.0886 74.8314 21.7691C73.3923 22.4197 71.9715 23.1048 70.5759 23.8224L70.2441 23.9944C65.9362 26.2487 61.855 29.2092 59.4875 33.5652C59.3309 33.8564 59.2823 34.1744 59.3211 34.4778C58.8157 35.0846 58.3271 35.711 57.858 36.3471C56.4265 38.2947 55.3785 40.509 54.3867 42.7037C52.3908 47.1176 51.0472 51.6514 49.9992 56.3784C48.9851 60.9342 48.167 65.5389 47.407 70.1437C46.5644 75.2598 45.8633 80.4199 45.7165 85.6094C45.4575 94.8604 47.2631 104.165 52.4494 111.953C57.0761 118.902 64.0433 124.419 72.3055 126.186C80.7091 127.982 89.6013 126.23 96.2239 120.622C97.2917 119.719 97.1448 117.896 96.2239 116.971C95.1807 115.929 93.6419 116.073 92.5793 116.971C86.3425 122.254 77.2646 123.069 69.7499 120.377C62.8023 117.886 57.3597 112.142 54.0202 105.69C49.9454 97.8209 49.2587 88.7828 49.8844 80.0773C50.2261 75.2964 50.9372 70.5547 51.6701 65.8203L52.1125 62.9705C52.5951 59.8837 53.1021 56.8011 53.7635 53.7458L53.9183 53.0339C54.7265 49.3494 55.6732 45.5704 57.1371 42.1067C57.9045 40.2888 58.8276 38.5369 59.773 36.8071C59.9563 36.4719 60.1446 36.1318 60.3376 35.7893C60.5966 35.8798 60.8922 35.8945 61.2024 35.7966C63.8725 34.9647 66.6159 34.4069 69.4079 34.2209C70.68 34.1358 71.9539 34.1226 73.2265 34.1722C75.4048 34.0453 77.644 34.2371 79.719 34.906C79.922 34.7316 80.1277 34.5608 80.3336 34.39C80.3891 34.3856 80.4445 34.3797 80.5002 34.3687C81.0296 34.2645 81.4019 33.8877 81.6262 33.4118C81.6379 33.3866 81.6484 33.3614 81.6584 33.3362C81.924 33.1329 82.1917 32.9327 82.4619 32.7353C83.1205 32.9063 83.6975 32.3575 83.8529 31.7561C83.9995 31.657 84.1485 31.5611 84.2965 31.464C84.4126 31.4924 84.5279 31.5158 84.6403 31.5242C85.1252 31.5591 85.5935 31.4848 86.0232 31.2531C86.5672 30.9597 86.9149 30.4865 87.1474 29.949C87.9702 29.9996 88.8028 29.7322 89.5383 29.2487C90.1354 28.8565 90.5927 28.315 91.0473 27.7746C96.5874 25.2997 102.61 23.8385 108.646 23.4642C109.241 23.5787 109.831 23.715 110.414 23.8735C110.552 23.9112 110.748 23.9851 110.974 24.0737C109.628 23.9107 108.265 23.8946 106.882 24.094C100.322 25.044 95.2127 29.9634 90.8152 34.607C89.7692 34.3954 88.7119 35.7521 89.68 36.6505L97.2279 43.6557C97.0427 44.4392 97.9398 45.2113 98.7257 45.0232C100.043 44.7061 101.363 44.3978 102.684 44.0947C104.062 44.7624 105.794 44.6481 107.044 43.6802C107.102 43.6352 107.228 43.5632 107.338 43.4918C107.441 43.5767 107.579 43.6618 107.634 43.6981C108.078 43.9926 108.619 44.0793 109.139 43.9966C109.673 43.9116 110.155 43.6403 110.57 43.3024C110.835 43.0872 111.451 42.1891 111.794 42.123L111.828 42.1192C111.599 42.1258 112.334 42.8106 112.532 42.9523C112.993 43.2819 113.503 43.4551 114.077 43.392C115.077 43.2818 115.937 42.3689 116.426 41.5259L116.463 41.4613L116.478 41.4211L116.491 41.4645C116.494 41.4722 116.497 41.4804 116.5 41.4896C116.573 41.6881 116.803 41.9137 116.96 42.0524C117.405 42.447 117.957 42.6205 118.546 42.5175C119.045 42.4306 119.464 42.1288 119.801 41.7636L119.854 41.7054C119.953 41.5927 120.61 40.7086 120.507 40.4968L120.495 40.4789L120.527 40.472C120.927 40.5704 121.263 40.4718 121.508 40.2655C122.88 39.9646 124.233 39.614 125.544 39.1682C125.646 39.4569 125.747 39.7456 125.844 40.0368C125.129 40.4796 124.467 41.1109 123.858 41.5611C122.705 42.4125 121.552 43.264 120.402 44.1179L115.843 47.4861L115.321 47.3459C114.655 47.1667 114.084 47.5552 113.839 48.1489L113.819 48.2003C113.722 48.4603 113.605 48.7009 113.468 48.9311C112.328 48.8856 111.363 49.5863 111.051 50.5914C110.77 50.5851 110.486 50.5958 110.195 50.6279C109.399 50.7155 108.862 51.3076 109.006 52.1206L109.017 52.1764L109.036 52.2669C108.575 52.4632 108.24 52.8422 108.166 53.4152C108.042 53.6014 107.943 53.804 107.879 54.0296C107.546 55.2001 108.194 56.6471 108.539 57.7684L108.565 57.8562C108.787 58.5932 109.016 59.3266 109.248 60.0597L109.826 61.8798C111.427 66.9523 112.989 72.3006 111.693 77.6184C111.416 78.7439 112.853 79.2528 113.476 78.372C114.986 76.2394 116.618 74.2299 118.331 72.3009L118.414 72.2877C119.614 72.0462 120.08 71.1975 120.63 70.3323C120.955 70.428 121.304 70.4505 121.641 70.3854C122.129 70.2912 122.566 70.012 122.911 69.6595C123.204 69.3605 123.472 68.5937 123.817 68.4035C124.25 68.166 125.119 68.5056 125.635 68.4292C126.055 68.3673 126.447 68.223 126.828 68.0417C127.527 68.9961 127.99 70.1182 128.104 71.3279C128.148 71.7878 128.285 72.1769 128.483 72.4998C127.755 72.4729 127.024 72.5243 126.304 72.6589C123.636 73.1556 121.723 74.8047 120.648 77.2612C120.602 77.3688 120.741 77.4569 120.805 77.3541C122.4 74.8952 125.871 74.7704 128.392 75.6365C131.07 76.5565 132.572 78.9176 133.107 81.6114C133.693 84.5646 132.941 87.7478 131.336 90.263C130.591 91.4326 129.575 92.4993 128.224 92.93C126.619 93.4413 125.136 92.5262 123.492 92.9985C122.373 93.319 121.879 94.4029 122.082 95.4868C122.163 95.9125 122.312 96.2844 122.512 96.6074C121.921 97.7818 121.374 98.9905 120.678 100.101C119.603 101.816 118.303 103.236 116.886 104.667C115.423 106.145 113.933 107.593 112.367 108.963C110.867 110.277 109.147 111.212 107.574 112.416C106.469 113.26 105.922 114.444 106.467 115.799C106.917 116.92 108.431 117.874 109.658 117.368C112.005 116.399 114.06 114.75 115.931 113.052C117.665 111.476 119.175 109.592 120.316 107.547C121.392 105.618 122.185 103.428 122.854 101.319L122.937 101.056C123.253 100.052 123.585 98.9244 123.8 97.7867C125.087 98.4913 126.834 98.5941 128.211 98.4033C130.437 98.0974 132.467 96.9744 134.001 95.3375C134.716 94.5759 135.348 93.707 135.894 92.7653C135.845 93.3386 135.815 93.8932 135.783 94.398C134.508 95.797 133.996 97.816 134.449 99.6582C133.382 100.758 133.083 102.41 133.64 103.815C132.472 104.976 132.516 106.822 133.021 108.499C131.64 110.044 131.509 112.452 132.587 114.196L132.62 114.321C131.531 116.146 131.777 118.503 133.141 120.114C132.209 121.924 132.353 124.358 134.681 125.06C135.53 125.316 136.352 125.097 136.967 124.621C136.405 127.42 136.154 130.262 136.903 133.073C137.202 134.189 138.291 135.004 139.437 135.004C140.395 135.004 141.091 134.522 141.572 133.812C141.516 135.224 141.601 136.643 141.902 138.074C142.083 138.939 142.883 139.613 143.733 139.822C143.427 140.168 143.305 140.669 143.598 141.19C144.845 143.399 147.855 142.483 148.059 140.366C148.909 139.731 149.305 138.687 149.468 137.559C149.707 135.915 149.793 134.297 150.063 132.673L150.167 132.77L150.22 132.816L150.237 132.934C150.392 133.736 150.844 134.298 151.43 134.634C151.303 136.034 151.539 137.459 152.426 138.522C153.016 139.231 154.023 139.51 154.885 139.356C154.939 139.359 154.995 139.359 155.053 139.351C157.006 139.091 158.136 137.235 157.622 135.532C158.409 134.566 158.74 133.341 158.507 132.131C160.03 131.121 159.998 128.904 159.471 127.123C161.067 125.862 161.667 123.504 160.865 121.63C162.304 119.841 162.504 117.348 161.527 115.311C163.109 114.009 163.1 111.496 161.53 110.164C162.366 108.503 162.87 106.512 162.035 104.991C162.624 104.34 162.948 103.412 162.879 102.515C162.779 101.197 161.909 100.287 160.83 99.6807L160.755 99.2687C160.501 99.3002 160.231 99.2293 159.993 99.0003C159.757 98.7735 159.515 98.5907 159.264 98.44C158.98 98.4363 158.735 98.3096 158.563 98.1146C158.093 97.9545 157.587 97.8838 157.025 97.8775C155.814 97.8643 155.771 96.049 156.899 95.9313C157.077 95.7515 157.322 95.6382 157.588 95.6382L157.796 95.6391C158.283 95.6437 158.775 95.6738 159.227 95.8677C159.521 95.9935 159.747 96.1831 159.913 96.4151C159.944 96.7659 160.135 97.1158 160.547 97.4048C161.024 97.7385 161.676 97.7774 162.186 97.4755C162.9 97.0527 162.907 96.3928 162.825 95.6754C162.644 94.1061 163.545 92.6293 163.331 91.0237C163.236 90.3139 163 89.701 162.615 89.206C163.426 87.9898 163.57 86.4197 162.945 85.0845C164.246 83.6823 164.471 81.5209 163.641 79.8334C163.629 79.7925 163.62 79.7507 163.607 79.7103C163.513 79.4236 163.384 79.165 163.242 78.9176C163.97 77.6536 163.965 76.1026 163.224 74.844C164.346 73.5346 164.382 71.4507 163.384 70.0399C163.378 69.923 163.366 69.806 163.356 69.6891C163.814 68.4987 163.704 67.1455 163.123 66.0386C163.33 65.5602 163.49 65.0452 163.592 64.4966C163.854 63.0824 163.719 61.7074 163.328 60.3274C163.265 60.1097 163.194 59.8919 163.119 59.6741C163.106 58.729 163.07 57.788 163.023 56.8487C163.208 56.0536 163.238 55.1798 163.242 54.3686L163.244 53.8426C163.253 52.5039 163.346 50.5439 162.501 49.406C163.043 48.1768 162.82 46.628 161.915 45.6537C162.55 44.5588 162.684 43.2143 162.045 41.9995C161.942 41.804 161.823 41.622 161.693 41.4498C161.746 40.3372 161.512 39.19 160.92 38.0843C160.535 37.3645 159.961 36.7413 159.278 36.2427C159.29 36.0951 159.297 35.9478 159.294 35.8027C159.282 35.1553 159.139 34.5052 158.898 33.8987C159.331 33.1583 159.532 32.3237 159.278 31.4243C158.995 30.4065 158.25 29.5306 157.319 29.0363C157.244 28.0767 157.094 27.1228 156.88 26.1815C157.452 24.906 156.997 23.2227 155.704 22.4713C155.873 21.452 155.721 20.395 154.98 19.5988C154.7 19.2972 154.369 19.0684 154.013 18.9167C154.184 17.8918 153.991 16.8255 153.283 15.9909C152.705 15.3095 151.849 14.8955 150.977 14.8346C150.641 13.0519 148.941 11.7189 147.147 11.8251C146.923 11.0402 146.387 10.3559 145.556 10.0089C145.343 9.92012 145.128 9.86164 144.914 9.8291C143.455 8.3552 141.283 7.3562 139.402 6.84459C137.516 6.33346 135.604 6.28398 133.985 6.87825L133.867 6.92289L133.735 6.90576C133.163 6.84214 132.592 6.80544 132.02 6.79076ZM146.353 127.594C146.857 127.437 147.418 127.78 147.555 128.277C147.699 128.803 147.378 129.324 146.872 129.481C146.242 129.678 145.581 129.727 144.924 129.728C144.396 129.728 143.947 129.278 143.947 128.749C143.947 128.218 144.394 127.771 144.924 127.771C145.458 127.77 145.852 127.75 146.353 127.594ZM150.834 117.201C151.587 117.201 152.233 117.381 152.791 117.91C153.164 118.263 153.173 118.943 152.791 119.294C152.406 119.648 151.847 119.669 151.451 119.332L151.375 119.263C151.366 119.255 151.359 119.248 151.353 119.243C151.321 119.222 151.289 119.201 151.256 119.184L151.319 119.225C151.368 119.261 151.255 119.203 151.192 119.176L151.172 119.168L151.166 119.167L151.115 119.163C151.022 119.158 150.928 119.158 150.834 119.158C150.323 119.158 149.833 118.708 149.857 118.179C149.881 117.649 150.286 117.2 150.834 117.201ZM136.621 110.991C135.564 110.342 136.508 108.68 137.569 109.279L137.608 109.301C138.151 109.635 138.82 109.59 139.436 109.59C140.694 109.591 140.696 111.549 139.436 111.548L139.228 111.547C138.325 111.54 137.412 111.477 136.621 110.991ZM144.946 103.847C145.745 103.697 146.64 103.562 147.481 103.654L147.62 103.671H147.879C148.104 103.671 148.322 103.762 148.496 103.904C148.773 104.019 149.035 104.173 149.274 104.381C150.226 105.207 148.838 106.587 147.892 105.765C147.839 105.719 147.778 105.681 147.71 105.651L147.658 105.629H146.613C146.518 105.629 146.425 105.609 146.335 105.58C145.996 105.627 145.68 105.694 145.465 105.735C144.236 105.966 143.709 104.08 144.946 103.847ZM145.838 85.0613C147.37 84.3498 149.066 84.3549 150.483 85.3429C151.496 86.0494 150.555 87.7156 149.533 87.0576L149.497 87.0331C149.37 86.9445 149.239 86.8704 149.107 86.8031C148.388 87.0113 147.664 87.0211 146.969 86.7651L146.878 86.7302L146.824 86.7513C145.691 87.2778 144.697 85.5913 145.838 85.0613ZM129.159 81.9944C130.706 81.8207 130.718 79.3725 129.159 79.5477C125.865 79.9176 122.877 81.384 120.688 83.9021C119.67 85.0733 121.347 86.7867 122.384 85.6677L122.416 85.6322C124.156 83.6298 126.505 82.2924 129.159 81.9944ZM146.493 69.4251C146.837 69.3874 147.18 69.3685 147.518 69.3849C148.33 69.4241 149.318 69.9663 148.962 70.9459C148.677 71.7309 147.74 71.7619 147.278 71.3433C147.086 71.3479 146.894 71.3607 146.703 71.3802C146.192 71.4328 145.687 71.5302 145.184 71.6295C143.955 71.8715 143.429 69.9854 144.664 69.7419L145.21 69.6337C145.395 69.5976 145.58 69.5623 145.767 69.53C145.878 69.4744 145.998 69.437 146.126 69.4275L146.191 69.4251H146.493ZM156.203 54.2395L156.317 54.2239C157.968 54.0125 160.617 54.207 160.817 56.3109C160.928 57.476 159.247 57.5492 158.915 56.5529C157.697 56.3329 156.468 56.2908 155.258 56.4244C154.796 55.9546 154.792 55.0516 155.561 54.8262C155.669 54.5341 155.896 54.2838 156.203 54.2395ZM118.483 50.6861C118.864 50.3355 119.489 50.289 119.865 50.6861C120.081 50.9146 120.261 51.1686 120.404 51.448L120.499 51.6367C120.516 51.668 120.532 51.6992 120.549 51.7299C120.581 51.7869 120.617 51.8412 120.652 51.8965L120.676 51.9196C120.685 51.9291 120.696 51.9406 120.709 51.9545C121.061 52.3267 121.105 52.9743 120.709 53.3386C120.328 53.6892 119.703 53.7357 119.327 53.3386C119.111 53.1101 118.931 52.8564 118.787 52.5767L118.692 52.3882C118.676 52.3569 118.66 52.3258 118.643 52.2951C118.611 52.2378 118.575 52.1835 118.54 52.1282L118.501 52.0893C118.495 52.0836 118.489 52.0772 118.483 52.0702C118.131 51.6983 118.087 51.0504 118.483 50.6861ZM138.521 48.1374C139.898 47.1602 141.535 47.1147 142.801 48.2903C143.714 49.1389 142.372 50.4985 141.451 49.7034L141.419 49.6744C141.385 49.6431 141.351 49.6157 141.318 49.5895C141.153 49.7304 140.943 49.8197 140.703 49.82C140.64 49.8202 140.578 49.82 140.515 49.8213L140.421 49.8246L140.371 49.8288L140.364 49.83L140.321 49.8487C140.24 49.885 140.129 49.9411 140.281 49.8457C140.247 49.8635 140.216 49.8846 140.183 49.9051L140.127 49.9563C139.759 50.3052 139.122 50.3512 138.756 49.9653C138.108 49.7461 137.764 48.6739 138.521 48.1374ZM125.06 44.931L125.035 44.9231C123.828 44.5779 124.341 42.6888 125.555 43.0355C126.842 43.4037 127.457 44.6038 127.715 45.8331C127.823 46.3501 127.563 46.891 127.032 47.0371C126.547 47.1704 125.939 46.8732 125.83 46.3535C125.753 45.988 125.665 45.678 125.526 45.3903L125.441 45.226C125.402 45.1511 125.388 45.1387 125.255 45.0222C125.233 45.0026 125.131 44.9552 125.06 44.931ZM145.509 35.0729L145.697 35.0297C146.874 34.7717 148.435 34.637 149.145 35.8047C149.792 36.8685 148.159 37.8369 147.487 36.8313C147.476 36.831 147.465 36.8311 147.451 36.8322L147.429 36.8348L147.127 36.8103C146.752 36.8076 146.392 36.8742 146.028 36.9605C144.805 37.2505 144.283 35.3635 145.509 35.0729ZM103.286 27.5482C102.396 26.6564 103.777 25.2718 104.668 26.1644C105.372 26.8698 106.051 27.58 106.509 28.4763C106.749 28.9465 106.632 29.5382 106.159 29.8154C105.722 30.0711 105.063 29.9365 104.822 29.4643C104.425 28.6874 103.924 28.1878 103.286 27.5482ZM114.522 25.2072C115.402 25.7289 115.971 26.5881 116.317 27.5827C116.49 28.0819 116.119 28.6532 115.634 28.7865C115.113 28.9299 114.637 28.6242 114.45 28.1494L114.432 28.1029C114.34 27.837 114.192 27.5228 114.009 27.2857C113.852 27.0834 113.609 26.8808 113.426 26.8135C112.986 26.6515 112.674 26.2517 112.714 25.7849C113.439 26.0357 114.111 25.734 114.522 25.2072ZM140.856 20.9499C141.744 20.1249 142.934 20.0155 144.01 20.5149C144.489 20.7371 144.609 21.4288 144.361 21.854C144.073 22.346 143.504 22.4282 143.024 22.2051C143.147 22.2623 142.924 22.1867 142.828 22.1591C142.816 22.1648 142.655 22.1575 142.599 22.1583L142.532 22.1625C142.531 22.1629 142.548 22.1626 142.581 22.1615C142.534 22.1721 142.488 22.1848 142.442 22.1994L142.384 22.2196C142.413 22.2135 142.281 22.2997 142.245 22.3283L142.238 22.3338C141.317 23.1899 139.932 21.809 140.856 20.9499Z" fill="black"/>
<path fill-rule="evenodd" clip-rule="evenodd" d="M72.3656 100.308C71.9901 99.6552 71.1254 99.0506 70.3342 99.1433C66.7896 99.5588 66.7958 103.854 68.1645 106.361C69.378 108.584 71.8895 109.89 74.4032 109.699C77.0439 109.499 79.294 107.947 80.2842 105.478C80.9391 103.845 81.2416 100.83 79.4996 99.7323C79.4673 99.7117 79.4139 99.7168 79.3882 99.7464C78.5529 100.718 78.5201 102.176 77.7889 103.257C77.1088 104.262 76.0522 105.093 74.8145 105.221C73.8901 105.317 72.9549 104.984 72.5933 104.154C72.3977 103.706 72.42 103.462 72.4935 103.153L72.5603 102.885C72.7918 101.945 72.8958 101.229 72.3656 100.308ZM71.4181 81.4717C69.5695 82.5947 66.7527 85.2135 68.7414 87.9977C71.0823 90.4526 74.4527 87.6379 76.1136 86.3649C77.6536 85.3783 79.3839 87.9157 77.955 89.0677C65.9536 97.9481 61.0832 81.7654 70.4831 80.1513C71.5181 79.9734 71.9024 81.1243 71.4181 81.4717ZM90.9398 73.7708C89.8051 72.0693 87.215 72.3199 86.59 74.3389C86.2515 75.4326 86.7191 76.4157 86.6948 77.5079C86.6745 78.4305 86.735 79.4586 87.018 80.3522C87.6633 82.3898 89.4969 83.829 91.6661 83.7693C93.8283 83.7098 95.7326 82.3421 96.6382 80.4158C97.5469 78.4822 97.3545 76.481 96.6911 74.5148C96.6592 74.4204 96.5354 74.3746 96.4607 74.4541C95.6765 75.287 95.1024 76.1663 94.5084 77.0991L93.8997 78.055C93.4344 78.7748 92.7583 79.6944 91.8897 79.6366L91.7593 79.6238C91.5179 79.6031 91.5549 79.651 91.3687 79.3221C91.2825 79.1699 91.2982 78.8871 91.2566 78.7075L91.2421 78.6468L91.25 78.6141C91.2684 78.5272 91.2866 78.3633 91.3014 78.0789L91.3046 78.0161C91.3675 76.6858 91.7437 74.9763 90.9398 73.7708ZM62.1769 74.9035C62.3803 72.7274 59.3192 72.2441 58.3016 73.8543C57.7708 74.694 57.6163 75.7488 57.4989 76.7481L57.444 77.2225C57.3236 78.2489 57.2758 79.3166 57.7216 80.274C58.4237 81.7819 59.9506 82.5791 61.5977 82.4528C63.1705 82.3319 64.6056 81.4205 65.3621 80.0369C66.0365 78.8023 66.707 76.3918 65.8879 75.1041C65.8385 75.026 65.7396 75.016 65.6717 75.0762C64.8977 75.763 64.7716 77.0157 64.3114 77.9105C63.8367 78.8334 63.1167 79.7328 62.0256 79.873C60.9817 80.0071 60.5829 79.4372 60.8493 78.4426C61.1927 77.1586 62.0476 76.2851 62.1769 74.9035ZM90.113 60.8333L89.6124 60.6417C87.8972 59.9941 85.5424 59.2456 84.148 60.6395C83.2877 61.4991 83.124 62.7652 83.7379 63.8142C84.4819 65.0847 85.8163 65.1161 87.105 65.3032C88.5707 65.5161 90.0613 65.9208 91.4259 66.4977C92.963 67.1478 94.3895 67.9582 95.7871 68.8632C97.1155 69.7232 98.4391 71.1289 100.029 71.3938C100.094 71.4046 100.168 71.3767 100.185 71.3055C100.546 69.7518 99.5423 68.2229 98.6467 67.0108C97.5632 65.5432 96.2503 64.3387 94.7829 63.2587C93.3667 62.2162 91.7485 61.4629 90.113 60.8333ZM58.9569 66.3572L58.804 66.3304C57.7639 66.1573 56.8214 66.1972 56.0376 67.0205C55.4393 67.6486 55.2087 68.4626 55.4939 69.293C55.757 70.0591 56.3455 70.8374 57.1997 70.9979C60.0833 71.5401 63.2773 71.4505 66.1753 71.0399C67.5012 70.852 68.8391 70.6221 70.1306 70.2595L70.7247 70.0873C71.8029 69.7795 73.0373 69.4579 73.8204 68.6654C74.102 68.3806 73.9397 67.973 73.6028 67.8411C72.2363 67.3063 70.3633 67.5908 68.9062 67.549C67.2111 67.5005 65.5134 67.3735 63.8264 67.1986C62.1778 67.0273 60.5827 66.6552 58.9569 66.3572Z" fill="black"/>
<defs>
<clipPath id="clip0_1_234">
<rect width="202" height="283" fill="white" transform="matrix(-1 0 0 1 368.828 4.48438)"/>
</clipPath>
</defs>
</svg>
